Roman_opsz6.ufo
<glyph name="exclam" format="2">
	<unicode hex="0021"/>
	<advance width="351"/>
	<outline>
		<contour>
			<point x="176" y="197" type="curve" smooth="yes"/>
			<point x="193" y="197"/>
			<point x="195" y="206"/>
			<point x="196" y="222" type="curve" smooth="yes"/>
			<point x="209.32" y="367.188"/>
			<point x="222.64" y="512.376"/>
			<point x="236" y="658" type="curve"/>
			<point x="236" y="694"/>
			<point x="205" y="715"/>
			<point x="176" y="715" type="curve" smooth="yes"/>
			<point x="147" y="715"/>
			<point x="116" y="694"/>
			<point x="116" y="658" type="curve"/>
			<point x="129.32" y="512.812"/>
			<point x="142.64" y="367.624"/>
			<point x="156" y="222" type="curve" smooth="yes"/>
			<point x="157" y="206"/>
			<point x="159" y="197"/>
		</contour>
		<contour>
			<point x="176" y="0" type="curve" smooth="yes"/>
			<point x="209" y="0"/>
			<point x="236" y="28"/>
			<point x="236" y="60" type="curve" smooth="yes"/>
			<point x="236" y="92"/>
			<point x="210" y="120"/>
			<point x="176" y="120" type="curve" smooth="yes"/>
			<point x="143" y="120"/>
			<point x="116" y="92"/>
			<point x="116" y="60" type="curve" smooth="yes"/>
			<point x="116" y="28"/>
			<point x="142" y="0"/>
		</contour>
	</outline>
</glyph>
<glyph name="numbersign" format="2">
	<unicode hex="0023"/>
	<advance width="2000"/>
	<outline>
		<contour>
			<point x="468" y="-388" type="curve" smooth="yes"/>
			<point x="504" y="-388"/>
			<point x="514" y="-362"/>
			<point x="522" y="-334" type="curve" smooth="yes"/>
			<point x="698" y="218" type="line"/>
			<point x="1120" y="218" type="line"/>
			<point x="1066" y="46"/>
			<point x="1012" y="-127"/>
			<point x="958" y="-300" type="curve" smooth="yes"/>
			<point x="948" y="-328"/>
			<point x="948" y="-332"/>
			<point x="948" y="-336" type="curve" smooth="yes"/>
			<point x="948" y="-366"/>
			<point x="972" y="-388"/>
			<point x="1000" y="-388" type="curve" smooth="yes"/>
			<point x="1036" y="-388"/>
			<point x="1046" y="-362"/>
			<point x="1054" y="-334" type="curve" smooth="yes"/>
			<point x="1230" y="218" type="line"/>
			<point x="1756" y="218" type="line" smooth="yes"/>
			<point x="1786" y="218"/>
			<point x="1840" y="218"/>
			<point x="1840" y="270" type="curve" smooth="yes"/>
			<point x="1840" y="322"/>
			<point x="1794" y="322"/>
			<point x="1766" y="322" type="curve" smooth="yes"/>
			<point x="1264" y="322" type="line"/>
			<point x="1374" y="678" type="line"/>
			<point x="1766" y="678" type="line" smooth="yes"/>
			<point x="1794" y="678"/>
			<point x="1840" y="678"/>
			<point x="1840" y="730" type="curve" smooth="yes"/>
			<point x="1840" y="782"/>
			<point x="1786" y="782"/>
			<point x="1756" y="782" type="curve" smooth="yes"/>
			<point x="1410" y="782" type="line"/>
			<point x="1572" y="1300" type="line" smooth="yes"/>
			<point x="1582" y="1328"/>
			<point x="1582" y="1332"/>
			<point x="1582" y="1336" type="curve" smooth="yes"/>
			<point x="1582" y="1366"/>
			<point x="1558" y="1388"/>
			<point x="1530" y="1388" type="curve" smooth="yes"/>
			<point x="1494" y="1388"/>
			<point x="1484" y="1362"/>
			<point x="1476" y="1334" type="curve" smooth="yes"/>
			<point x="1300" y="782" type="line"/>
			<point x="878" y="782" type="line"/>
			<point x="1040" y="1300" type="line" smooth="yes"/>
			<point x="1050" y="1328"/>
			<point x="1050" y="1332"/>
			<point x="1050" y="1336" type="curve" smooth="yes"/>
			<point x="1050" y="1366"/>
			<point x="1026" y="1388"/>
			<point x="998" y="1388" type="curve" smooth="yes"/>
			<point x="962" y="1388"/>
			<point x="952" y="1362"/>
			<point x="944" y="1334" type="curve" smooth="yes"/>
			<point x="768" y="782" type="line"/>
			<point x="242" y="782" type="line" smooth="yes"/>
			<point x="212" y="782"/>
			<point x="158" y="782"/>
			<point x="158" y="730" type="curve" smooth="yes"/>
			<point x="158" y="678"/>
			<point x="204" y="678"/>
			<point x="232" y="678" type="curve" smooth="yes"/>
			<point x="734" y="678" type="line"/>
			<point x="624" y="322" type="line"/>
			<point x="232" y="322" type="line" smooth="yes"/>
			<point x="204" y="322"/>
			<point x="158" y="322"/>
			<point x="158" y="270" type="curve" smooth="yes"/>
			<point x="158" y="218"/>
			<point x="212" y="218"/>
			<point x="242" y="218" type="curve" smooth="yes"/>
			<point x="588" y="218" type="line"/>
			<point x="534" y="46"/>
			<point x="480" y="-127"/>
			<point x="426" y="-300" type="curve" smooth="yes"/>
			<point x="416" y="-328"/>
			<point x="416" y="-332"/>
			<point x="416" y="-336" type="curve" smooth="yes"/>
			<point x="416" y="-366"/>
			<point x="440" y="-388"/>
		</contour>
		<contour>
			<point x="732" y="322" type="line"/>
			<point x="842" y="678" type="line"/>
			<point x="1266" y="678" type="line"/>
			<point x="1156" y="322" type="line"/>
		</contour>
	</outline>
</glyph>
<glyph name="dollar" format="2">
	<unicode hex="0024"/>
	<advance width="1222"/>
	<outline>
		<contour>
			<point x="572" y="-112" type="line"/>
			<point x="650" y="-112" type="line"/>
			<point x="650" y="-18" type="line"/>
			<point x="890" y="0"/>
			<point x="1062" y="188"/>
			<point x="1062" y="396" type="curve" smooth="yes"/>
			<point x="1062" y="506"/>
			<point x="1018" y="604"/>
			<point x="940" y="682" type="curve" smooth="yes"/>
			<point x="848" y="772"/>
			<point x="756" y="792"/>
			<point x="650" y="816" type="curve"/>
			<point x="650" y="1328" type="line"/>
			<point x="806" y="1322"/>
			<point x="932" y="1260"/>
			<point x="972" y="1142" type="curve"/>
			<point x="972" y="1142"/>
			<point x="972" y="1142"/>
			<point x="972" y="1142" type="curve" smooth="yes"/>
			<point x="884" y="1142"/>
			<point x="868" y="1076"/>
			<point x="868" y="1046" type="curve" smooth="yes"/>
			<point x="868" y="976"/>
			<point x="924" y="948"/>
			<point x="964" y="948" type="curve" smooth="yes"/>
			<point x="978" y="948"/>
			<point x="1062" y="952"/>
			<point x="1062" y="1054" type="curve" smooth="yes"/>
			<point x="1062" y="1184"/>
			<point x="1000" y="1376"/>
			<point x="650" y="1408" type="curve"/>
			<point x="650" y="1500" type="line"/>
			<point x="572" y="1500" type="line"/>
			<point x="572" y="1406" type="line"/>
			<point x="340" y="1392"/>
			<point x="158" y="1222"/>
			<point x="158" y="1020" type="curve" smooth="yes"/>
			<point x="158" y="888"/>
			<point x="232" y="798"/>
			<point x="276" y="756" type="curve" smooth="yes"/>
			<point x="372" y="670"/>
			<point x="462" y="650"/>
			<point x="572" y="628" type="curve"/>
			<point x="572" y="60" type="line"/>
			<point x="412" y="68"/>
			<point x="286" y="136"/>
			<point x="246" y="274" type="curve"/>
			<point x="246" y="274"/>
			<point x="246" y="274"/>
			<point x="246" y="274" type="curve" smooth="yes"/>
			<point x="344" y="274"/>
			<point x="352" y="350"/>
			<point x="352" y="370" type="curve" smooth="yes"/>
			<point x="352" y="444"/>
			<point x="290" y="468"/>
			<point x="256" y="468" type="curve" smooth="yes"/>
			<point x="244" y="468"/>
			<point x="158" y="464"/>
			<point x="158" y="362" type="curve" smooth="yes"/>
			<point x="158" y="220"/>
			<point x="224" y="12"/>
			<point x="572" y="-20" type="curve"/>
		</contour>
		<contour>
			<point x="572" y="832" type="line"/>
			<point x="510" y="844"/>
			<point x="278" y="892"/>
			<point x="278" y="1082" type="curve" smooth="yes"/>
			<point x="278" y="1192"/>
			<point x="384" y="1312"/>
			<point x="572" y="1328" type="curve"/>
		</contour>
		<contour>
			<point x="650" y="60" type="curve"/>
			<point x="650" y="243"/>
			<point x="650" y="426"/>
			<point x="650" y="610" type="curve"/>
			<point x="886" y="572"/>
			<point x="942" y="422"/>
			<point x="942" y="334" type="curve" smooth="yes"/>
			<point x="942" y="204"/>
			<point x="828" y="78"/>
		</contour>
	</outline>
</glyph>
<glyph name="percent" format="2">
	<unicode hex="0025"/>
	<advance width="2000"/>
	<outline>
		<contour>
			<point x="1624" y="1402" type="line" smooth="yes"/>
			<point x="1638" y="1420"/>
			<point x="1646" y="1430"/>
			<point x="1646" y="1448" type="curve" smooth="yes"/>
			<point x="1646" y="1478"/>
			<point x="1622" y="1500"/>
			<point x="1594" y="1500" type="curve" smooth="yes"/>
			<point x="1570" y="1500"/>
			<point x="1558" y="1486"/>
			<point x="1542" y="1466" type="curve" smooth="yes"/>
			<point x="1444" y="1354"/>
			<point x="1308" y="1276"/>
			<point x="1112" y="1276" type="curve" smooth="yes"/>
			<point x="924" y="1276"/>
			<point x="774" y="1352"/>
			<point x="674" y="1428" type="curve" smooth="yes"/>
			<point x="626" y="1466"/>
			<point x="580" y="1500"/>
			<point x="498" y="1500" type="curve" smooth="yes"/>
			<point x="320" y="1500"/>
			<point x="158" y="1330"/>
			<point x="158" y="1098" type="curve" smooth="yes"/>
			<point x="158" y="860"/>
			<point x="324" y="694"/>
			<point x="498" y="694" type="curve" smooth="yes"/>
			<point x="670" y="694"/>
			<point x="804" y="872"/>
			<point x="804" y="1096" type="curve" smooth="yes"/>
			<point x="804" y="1192"/>
			<point x="780" y="1264"/>
			<point x="766" y="1296" type="curve"/>
			<point x="888" y="1236"/>
			<point x="1000" y="1212"/>
			<point x="1114" y="1212" type="curve" smooth="yes"/>
			<point x="1158" y="1212"/>
			<point x="1258" y="1212"/>
			<point x="1378" y="1264" type="curve"/>
			<point x="1380" y="1262" type="line"/>
			<point x="378" y="-10" type="line" smooth="yes"/>
			<point x="358" y="-36"/>
			<point x="352" y="-42"/>
			<point x="352" y="-60" type="curve" smooth="yes"/>
			<point x="352" y="-88"/>
			<point x="376" y="-112"/>
			<point x="404" y="-112" type="curve" smooth="yes"/>
			<point x="430" y="-112"/>
			<point x="440" y="-98"/>
			<point x="456" y="-78" type="curve" smooth="yes"/>
		</contour>
		<contour>
			<point x="502" y="758" type="curve" smooth="yes"/>
			<point x="460" y="758"/>
			<point x="308" y="778"/>
			<point x="308" y="1096" type="curve" smooth="yes"/>
			<point x="308" y="1416"/>
			<point x="458" y="1436"/>
			<point x="502" y="1436" type="curve" smooth="yes"/>
			<point x="614" y="1436"/>
			<point x="730" y="1298"/>
			<point x="730" y="1098" type="curve" smooth="yes"/>
			<point x="730" y="892"/>
			<point x="612" y="758"/>
		</contour>
		<contour>
			<point x="1538" y="-48" type="curve" smooth="yes"/>
			<point x="1496" y="-48"/>
			<point x="1344" y="-28"/>
			<point x="1344" y="290" type="curve" smooth="yes"/>
			<point x="1344" y="610"/>
			<point x="1494" y="630"/>
			<point x="1538" y="630" type="curve" smooth="yes"/>
			<point x="1650" y="630"/>
			<point x="1766" y="492"/>
			<point x="1766" y="292" type="curve" smooth="yes"/>
			<point x="1766" y="86"/>
			<point x="1648" y="-48"/>
		</contour>
		<contour>
			<point x="1840" y="290" type="curve" smooth="yes"/>
			<point x="1840" y="520"/>
			<point x="1702" y="694"/>
			<point x="1534" y="694" type="curve" smooth="yes"/>
			<point x="1356" y="694"/>
			<point x="1194" y="524"/>
			<point x="1194" y="292" type="curve" smooth="yes"/>
			<point x="1194" y="54"/>
			<point x="1360" y="-112"/>
			<point x="1534" y="-112" type="curve" smooth="yes"/>
			<point x="1706" y="-112"/>
			<point x="1840" y="66"/>
		</contour>
	</outline>
</glyph>
<glyph name="ampersand" format="2">
	<unicode hex="0026"/>
	<advance width="1870"/>
	<outline>
		<contour>
			<point x="1520" y="854" type="curve" smooth="yes"/>
			<point x="1424" y="854"/>
			<point x="1278" y="860"/>
			<point x="1256" y="862" type="curve"/>
			<point x="1256" y="784" type="line"/>
			<point x="1336" y="784"/>
			<point x="1382" y="754"/>
			<point x="1382" y="708" type="curve" smooth="yes"/>
			<point x="1382" y="688"/>
			<point x="1374" y="674"/>
			<point x="1364" y="660" type="curve" smooth="yes"/>
			<point x="1350" y="640"/>
			<point x="1176" y="382"/>
			<point x="1020" y="242" type="curve"/>
			<point x="980" y="282"/>
			<point x="738" y="540"/>
			<point x="650" y="752" type="curve"/>
			<point x="888" y="964"/>
			<point x="944" y="1072"/>
			<point x="944" y="1160" type="curve" smooth="yes"/>
			<point x="944" y="1274"/>
			<point x="880" y="1430"/>
			<point x="730" y="1430" type="curve" smooth="yes"/>
			<point x="582" y="1430"/>
			<point x="406" y="1314"/>
			<point x="406" y="1094" type="curve" smooth="yes"/>
			<point x="406" y="976"/>
			<point x="434" y="832"/>
			<point x="492" y="700" type="curve"/>
			<point x="424" y="641"/>
			<point x="356" y="581"/>
			<point x="288" y="522" type="curve" smooth="yes"/>
			<point x="192" y="438"/>
			<point x="126" y="382"/>
			<point x="126" y="266" type="curve" smooth="yes"/>
			<point x="126" y="78"/>
			<point x="320" y="-42"/>
			<point x="548" y="-42" type="curve" smooth="yes"/>
			<point x="758" y="-42"/>
			<point x="906" y="62"/>
			<point x="964" y="102" type="curve"/>
			<point x="1044" y="50"/>
			<point x="1192" y="-42"/>
			<point x="1380" y="-42" type="curve" smooth="yes"/>
			<point x="1548" y="-42"/>
			<point x="1704" y="62"/>
			<point x="1710" y="242" type="curve"/>
			<point x="1636" y="242" type="line"/>
			<point x="1630" y="88"/>
			<point x="1482" y="36"/>
			<point x="1388" y="36" type="curve" smooth="yes"/>
			<point x="1262" y="36"/>
			<point x="1148" y="118"/>
			<point x="1072" y="190" type="curve"/>
			<point x="1196" y="298"/>
			<point x="1340" y="500"/>
			<point x="1426" y="622" type="curve" smooth="yes"/>
			<point x="1484" y="704"/>
			<point x="1540" y="782"/>
			<point x="1724" y="784" type="curve"/>
			<point x="1724" y="784"/>
			<point x="1724" y="784"/>
			<point x="1724" y="784" type="curve"/>
			<point x="1724" y="862" type="line"/>
			<point x="1656" y="856"/>
			<point x="1588" y="854"/>
		</contour>
		<contour>
			<point x="520" y="638" type="curve"/>
			<point x="644" y="384"/>
			<point x="838" y="204"/>
			<point x="904" y="150" type="curve"/>
			<point x="758" y="48"/>
			<point x="622" y="36"/>
			<point x="564" y="36" type="curve" smooth="yes"/>
			<point x="400" y="36"/>
			<point x="316" y="188"/>
			<point x="316" y="320" type="curve" smooth="yes"/>
			<point x="316" y="390"/>
			<point x="316" y="482"/>
		</contour>
		<contour>
			<point x="624" y="816" type="curve"/>
			<point x="558" y="978"/>
			<point x="558" y="1134"/>
			<point x="558" y="1146" type="curve" smooth="yes"/>
			<point x="558" y="1280"/>
			<point x="640" y="1366"/>
			<point x="732" y="1366" type="curve" smooth="yes"/>
			<point x="834" y="1366"/>
			<point x="870" y="1236"/>
			<point x="870" y="1160" type="curve" smooth="yes"/>
			<point x="870" y="1026"/>
			<point x="652" y="840"/>
		</contour>
	</outline>
</glyph>
<glyph name="parenleft" format="2">
	<unicode hex="0028"/>
	<advance width="481"/>
	<outline>
		<contour>
			<point x="126" y="248" type="curve" smooth="yes"/>
			<point x="126" y="34.08584"/>
			<point x="219.894055296" y="-107.451652376"/>
			<point x="294.87382606" y="-183.4641767271" type="curve" smooth="yes"/>
			<point x="339.7696240816" y="-228.9783588272"/>
			<point x="377.88412" y="-251"/>
			<point x="385" y="-251" type="curve" smooth="yes"/>
			<point x="397" y="-251"/>
			<point x="401" y="-242"/>
			<point x="401" y="-236" type="curve" smooth="yes"/>
			<point x="401" y="-231"/>
			<point x="398" y="-227"/>
			<point x="398" y="-226" type="curve"/>
			<point x="288" y="-142"/>
			<point x="198" y="16"/>
			<point x="198" y="250" type="curve" smooth="yes"/>
			<point x="198" y="481"/>
			<point x="286" y="641"/>
			<point x="398" y="726" type="curve"/>
			<point x="398" y="727"/>
			<point x="401" y="731"/>
			<point x="401" y="736" type="curve" smooth="yes"/>
			<point x="401" y="742"/>
			<point x="397" y="749"/>
			<point x="385" y="749" type="curve" smooth="yes"/>
			<point x="378.32812" y="749"/>
			<point x="341.0185296612" y="727.4299528108"/>
			<point x="296.7002182364" y="682.8130466041" type="curve" smooth="yes"/>
			<point x="221.4525893796" y="607.0584365784"/>
			<point x="126" y="464"/>
		</contour>
	</outline>
</glyph>
<glyph name="parenright" format="2">
	<unicode hex="0029"/>
	<advance width="481"/>
	<outline>
		<contour>
			<point x="354" y="250" type="curve" smooth="yes"/>
			<point x="354" y="466.5544"/>
			<point x="257.7738624" y="609.33542784"/>
			<point x="182.3587119556" y="684.9438758056" type="curve" smooth="yes"/>
			<point x="138.67223504" y="728.74232608"/>
			<point x="101.9692" y="750"/>
			<point x="95" y="750" type="curve" smooth="yes"/>
			<point x="83" y="750"/>
			<point x="80" y="741"/>
			<point x="80" y="736" type="curve" smooth="yes"/>
			<point x="80" y="730"/>
			<point x="81" y="729"/>
			<point x="99" y="713" type="curve" smooth="yes"/>
			<point x="189" y="636"/>
			<point x="282" y="488"/>
			<point x="282" y="250" type="curve" smooth="yes"/>
			<point x="282" y="38"/>
			<point x="208" y="-121"/>
			<point x="95" y="-216" type="curve" smooth="yes"/>
			<point x="81" y="-229"/>
			<point x="80" y="-230"/>
			<point x="80" y="-236" type="curve" smooth="yes"/>
			<point x="80" y="-241"/>
			<point x="83" y="-250"/>
			<point x="95" y="-250" type="curve" smooth="yes"/>
			<point x="101.6024" y="-250"/>
			<point x="138.20771952" y="-228.87686832"/>
			<point x="181.9175151148" y="-185.1994522447" type="curve" smooth="yes"/>
			<point x="257.37292016" y="-109.79994336"/>
			<point x="354" y="33"/>
		</contour>
	</outline>
</glyph>
<glyph name="asterisk" format="2">
	<unicode hex="002A"/>
	<advance width="1222"/>
	<outline>
		<contour>
			<point x="610" y="638" type="curve" smooth="yes"/>
			<point x="654" y="638"/>
			<point x="680" y="666"/>
			<point x="674" y="720" type="curve" smooth="yes"/>
			<point x="664" y="818"/>
			<point x="654" y="916"/>
			<point x="644" y="1014" type="curve"/>
			<point x="928" y="834" type="line"/>
			<point x="946" y="824"/>
			<point x="956" y="816"/>
			<point x="972" y="816" type="curve" smooth="yes"/>
			<point x="1002" y="816"/>
			<point x="1038" y="840"/>
			<point x="1038" y="886" type="curve" smooth="yes"/>
			<point x="1038" y="928"/>
			<point x="1014" y="936"/>
			<point x="986" y="948" type="curve" smooth="yes"/>
			<point x="686" y="1068" type="line"/>
			<point x="986" y="1190" type="line" smooth="yes"/>
			<point x="1014" y="1202"/>
			<point x="1038" y="1210"/>
			<point x="1038" y="1252" type="curve" smooth="yes"/>
			<point x="1038" y="1298"/>
			<point x="1002" y="1322"/>
			<point x="972" y="1322" type="curve" smooth="yes"/>
			<point x="958" y="1322"/>
			<point x="956" y="1320"/>
			<point x="930" y="1304" type="curve" smooth="yes"/>
			<point x="644" y="1124" type="line"/>
			<point x="654" y="1221"/>
			<point x="664" y="1318"/>
			<point x="674" y="1416" type="curve" smooth="yes"/>
			<point x="678" y="1456"/>
			<point x="666" y="1500"/>
			<point x="610" y="1500" type="curve" smooth="yes"/>
			<point x="594" y="1500"/>
			<point x="538" y="1498"/>
			<point x="546" y="1418" type="curve" smooth="yes"/>
			<point x="556" y="1320"/>
			<point x="566" y="1222"/>
			<point x="576" y="1124" type="curve"/>
			<point x="292" y="1304" type="line"/>
			<point x="274" y="1314"/>
			<point x="264" y="1322"/>
			<point x="248" y="1322" type="curve" smooth="yes"/>
			<point x="218" y="1322"/>
			<point x="182" y="1298"/>
			<point x="182" y="1252" type="curve" smooth="yes"/>
			<point x="182" y="1210"/>
			<point x="206" y="1202"/>
			<point x="234" y="1190" type="curve" smooth="yes"/>
			<point x="534" y="1070" type="line"/>
			<point x="234" y="948" type="line" smooth="yes"/>
			<point x="206" y="936"/>
			<point x="182" y="928"/>
			<point x="182" y="886" type="curve" smooth="yes"/>
			<point x="182" y="840"/>
			<point x="218" y="816"/>
			<point x="248" y="816" type="curve" smooth="yes"/>
			<point x="262" y="816"/>
			<point x="264" y="818"/>
			<point x="290" y="834" type="curve" smooth="yes"/>
			<point x="576" y="1014" type="line"/>
			<point x="566" y="917"/>
			<point x="556" y="820"/>
			<point x="546" y="722" type="curve" smooth="yes"/>
			<point x="538" y="640"/>
			<point x="592" y="638"/>
		</contour>
	</outline>
</glyph>
<glyph name="plus" format="2">
	<unicode hex="002B"/>
	<advance width="935"/>
	<outline>
		<contour>
			<point x="493" y="224" type="line"/>
			<point x="816" y="224" type="line" smooth="yes"/>
			<point x="830" y="224"/>
			<point x="855" y="224"/>
			<point x="855" y="250" type="curve" smooth="yes"/>
			<point x="855" y="276"/>
			<point x="830" y="276"/>
			<point x="816" y="276" type="curve" smooth="yes"/>
			<point x="493" y="276" type="line"/>
			<point x="493" y="600" type="line" smooth="yes"/>
			<point x="493" y="614"/>
			<point x="493" y="639"/>
			<point x="467" y="639" type="curve" smooth="yes"/>
			<point x="441" y="639"/>
			<point x="441" y="614"/>
			<point x="441" y="600" type="curve" smooth="yes"/>
			<point x="441" y="276" type="line"/>
			<point x="118" y="276" type="line" smooth="yes"/>
			<point x="104" y="276"/>
			<point x="79" y="276"/>
			<point x="79" y="250" type="curve" smooth="yes"/>
			<point x="79" y="224"/>
			<point x="104" y="224"/>
			<point x="118" y="224" type="curve" smooth="yes"/>
			<point x="441" y="224" type="line"/>
			<point x="441" y="-100" type="line" smooth="yes"/>
			<point x="441" y="-114"/>
			<point x="441" y="-139"/>
			<point x="467" y="-139" type="curve" smooth="yes"/>
			<point x="493" y="-139"/>
			<point x="493" y="-114"/>
			<point x="493" y="-100" type="curve" smooth="yes"/>
		</contour>
	</outline>
</glyph>
<glyph name="comma" format="2">
	<unicode hex="002C"/>
	<advance width="702"/>
	<outline>
		<contour>
			<point x="232" y="120" type="curve" smooth="yes"/>
			<point x="232" y="58"/>
			<point x="274" y="0"/>
			<point x="352" y="0" type="curve" smooth="yes"/>
			<point x="392" y="0"/>
			<point x="420" y="16"/>
			<point x="434" y="30" type="curve"/>
			<point x="434" y="-150"/>
			<point x="350" y="-258"/>
			<point x="282" y="-318" type="curve" smooth="yes"/>
			<point x="262" y="-336"/>
			<point x="256" y="-342"/>
			<point x="256" y="-354" type="curve" smooth="yes"/>
			<point x="256" y="-370"/>
			<point x="274" y="-388"/>
			<point x="290" y="-388" type="curve" smooth="yes"/>
			<point x="318" y="-388"/>
			<point x="498" y="-230"/>
			<point x="498" y="18" type="curve" smooth="yes"/>
			<point x="498" y="142"/>
			<point x="446" y="240"/>
			<point x="352" y="240" type="curve" smooth="yes"/>
			<point x="274" y="240"/>
			<point x="232" y="182"/>
		</contour>
	</outline>
</glyph>
<glyph name="hyphen" format="2">
	<unicode hex="002D"/>
	<advance width="416"/>
	<outline>
		<contour>
			<point x="337" y="180" type="line"/>
			<point x="337" y="251" type="line"/>
			<point x="27" y="251" type="line"/>
			<point x="27" y="180" type="line"/>
		</contour>
	</outline>
</glyph>
<glyph name="period" format="2">
	<unicode hex="002E"/>
	<advance width="702"/>
	<outline>
		<contour>
			<point x="472" y="120" type="curve" smooth="yes"/>
			<point x="472" y="186"/>
			<point x="418" y="240"/>
			<point x="352" y="240" type="curve" smooth="yes"/>
			<point x="286" y="240"/>
			<point x="232" y="186"/>
			<point x="232" y="120" type="curve" smooth="yes"/>
			<point x="232" y="54"/>
			<point x="286" y="0"/>
			<point x="352" y="0" type="curve" smooth="yes"/>
			<point x="418" y="0"/>
			<point x="472" y="54"/>
		</contour>
	</outline>
</glyph>
<glyph name="slash" format="2">
	<unicode hex="002F"/>
	<advance width="611"/>
	<outline>
		<contour>
			<point x="525" y="703" type="line" smooth="yes"/>
			<point x="531" y="717"/>
			<point x="531" y="723"/>
			<point x="531" y="724" type="curve" smooth="yes"/>
			<point x="531" y="739"/>
			<point x="519" y="750"/>
			<point x="505" y="750" type="curve" smooth="yes"/>
			<point x="495" y="750"/>
			<point x="485" y="746"/>
			<point x="477" y="726" type="curve" smooth="yes"/>
			<point x="85" y="-203" type="line" smooth="yes"/>
			<point x="79" y="-217"/>
			<point x="79" y="-223"/>
			<point x="79" y="-224" type="curve" smooth="yes"/>
			<point x="79" y="-239"/>
			<point x="91" y="-250"/>
			<point x="105" y="-250" type="curve" smooth="yes"/>
			<point x="115" y="-250"/>
			<point x="125" y="-246"/>
			<point x="133" y="-226" type="curve" smooth="yes"/>
		</contour>
	</outline>
</glyph>
<glyph name="zero" format="2">
	<unicode hex="0030"/>
	<advance width="611"/>
	<outline>
		<contour>
			<point x="305" y="-21" type="curve" smooth="yes"/>
			<point x="383.4" y="-21"/>
			<point x="436.712" y="6.4432"/>
			<point x="472.96416" y="46.125248" type="curve" smooth="yes"/>
			<point x="550" y="130.4496"/>
			<point x="550" y="270.04"/>
			<point x="550" y="319" type="curve" smooth="yes"/>
			<point x="550" y="369.37"/>
			<point x="550" y="514.96"/>
			<point x="469.515295" y="600.385243" type="curve" smooth="yes"/>
			<point x="433.3555" y="638.7647"/>
			<point x="380.95" y="665"/>
			<point x="305" y="665" type="curve" smooth="yes"/>
			<point x="229.05" y="665"/>
			<point x="176.6445" y="638.7647"/>
			<point x="140.484705" y="600.385243" type="curve" smooth="yes"/>
			<point x="60" y="514.96"/>
			<point x="60" y="369.37"/>
			<point x="60" y="319" type="curve" smooth="yes"/>
			<point x="60" y="269.32"/>
			<point x="60" y="126.3244"/>
			<point x="140.484705" y="42.441376" type="curve" smooth="yes"/>
			<point x="176.6445" y="4.7548"/>
			<point x="229.05" y="-21"/>
		</contour>
		<contour>
			<point x="305" y="11" type="curve" smooth="yes"/>
			<point x="263" y="11"/>
			<point x="195" y="31"/>
			<point x="171" y="114" type="curve" smooth="yes"/>
			<point x="155" y="172"/>
			<point x="155" y="270"/>
			<point x="155" y="332" type="curve" smooth="yes"/>
			<point x="155" y="399"/>
			<point x="155" y="476"/>
			<point x="169" y="530" type="curve" smooth="yes"/>
			<point x="194" y="620"/>
			<point x="270" y="633"/>
			<point x="305" y="633" type="curve" smooth="yes"/>
			<point x="351" y="633"/>
			<point x="417" y="611"/>
			<point x="439" y="535" type="curve" smooth="yes"/>
			<point x="454" y="482"/>
			<point x="455" y="409"/>
			<point x="455" y="332" type="curve" smooth="yes"/>
			<point x="455" y="268"/>
			<point x="455" y="167"/>
			<point x="438" y="111" type="curve" smooth="yes"/>
			<point x="410" y="24"/>
			<point x="338" y="11"/>
		</contour>
	</outline>
</glyph>
<glyph name="one" format="2">
	<unicode hex="0031"/>
	<advance width="1222"/>
	<outline>
		<contour>
			<point x="546" y="1180" type="curve"/>
			<point x="546" y="170" type="line" smooth="yes"/>
			<point x="546" y="104"/>
			<point x="546" y="78"/>
			<point x="340" y="78" type="curve" smooth="yes"/>
			<point x="254" y="78" type="line"/>
			<point x="254" y="0" type="line"/>
			<point x="364" y="8"/>
			<point x="520" y="8"/>
			<point x="632" y="8" type="curve" smooth="yes"/>
			<point x="744" y="8"/>
			<point x="900" y="8"/>
			<point x="1010" y="0" type="curve"/>
			<point x="1010" y="78" type="line"/>
			<point x="924" y="78" type="line" smooth="yes"/>
			<point x="718" y="78"/>
			<point x="718" y="104"/>
			<point x="718" y="170" type="curve" smooth="yes"/>
			<point x="718" y="1270" type="line" smooth="yes"/>
			<point x="718" y="1330"/>
			<point x="710" y="1330"/>
			<point x="650" y="1330" type="curve"/>
			<point x="650" y="1330"/>
			<point x="650" y="1330"/>
			<point x="650" y="1330" type="curve"/>
			<point x="518" y="1202"/>
			<point x="314" y="1202"/>
			<point x="242" y="1202" type="curve" smooth="yes"/>
			<point x="242" y="1202"/>
			<point x="242" y="1202"/>
			<point x="242" y="1202" type="curve"/>
			<point x="242" y="1176"/>
			<point x="242" y="1150"/>
			<point x="242" y="1124" type="curve"/>
			<point x="242" y="1124" type="line"/>
			<point x="294" y="1124"/>
			<point x="426" y="1124"/>
		</contour>
	</outline>
</glyph>
<glyph name="two" format="2">
	<unicode hex="0032"/>
	<advance width="1222"/>
	<outline>
		<contour>
			<point x="874" y="934" type="curve" smooth="yes"/>
			<point x="874" y="792"/>
			<point x="780" y="646"/>
			<point x="640" y="518" type="curve" smooth="yes"/>
			<point x="166" y="84" type="line" smooth="yes"/>
			<point x="146" y="64"/>
			<point x="144" y="62"/>
			<point x="144" y="0" type="curve"/>
			<point x="144" y="0" type="line"/>
			<point x="1014" y="0" type="line"/>
			<point x="1076" y="374" type="line"/>
			<point x="1002" y="374" type="line"/>
			<point x="998" y="346"/>
			<point x="978" y="214"/>
			<point x="948" y="192" type="curve"/>
			<point x="934" y="180"/>
			<point x="772" y="180"/>
			<point x="744" y="180" type="curve" smooth="yes"/>
			<point x="370" y="180" type="line"/>
			<point x="541" y="315"/>
			<point x="712" y="450"/>
			<point x="884" y="586" type="curve" smooth="yes"/>
			<point x="992" y="672"/>
			<point x="1076" y="792"/>
			<point x="1076" y="934" type="curve" smooth="yes"/>
			<point x="1076" y="1184"/>
			<point x="850" y="1330"/>
			<point x="582" y="1330" type="curve" smooth="yes"/>
			<point x="324" y="1330"/>
			<point x="144" y="1160"/>
			<point x="144" y="972" type="curve" smooth="yes"/>
			<point x="144" y="870"/>
			<point x="230" y="858"/>
			<point x="252" y="858" type="curve" smooth="yes"/>
			<point x="302" y="858"/>
			<point x="360" y="894"/>
			<point x="360" y="966" type="curve" smooth="yes"/>
			<point x="360" y="1010"/>
			<point x="334" y="1074"/>
			<point x="246" y="1074" type="curve"/>
			<point x="292" y="1176"/>
			<point x="414" y="1252"/>
			<point x="552" y="1252" type="curve" smooth="yes"/>
			<point x="762" y="1252"/>
			<point x="874" y="1096"/>
		</contour>
	</outline>
</glyph>
<glyph name="three" format="2">
	<unicode hex="0033"/>
	<advance width="1222"/>
	<outline>
		<contour>
			<point x="600" y="-42" type="curve" smooth="yes"/>
			<point x="896" y="-42"/>
			<point x="1094" y="148"/>
			<point x="1094" y="346" type="curve" smooth="yes"/>
			<point x="1094" y="492"/>
			<point x="982" y="646"/>
			<point x="744" y="706" type="curve"/>
			<point x="902" y="758"/>
			<point x="1030" y="886"/>
			<point x="1030" y="1050" type="curve" smooth="yes"/>
			<point x="1030" y="1210"/>
			<point x="842" y="1330"/>
			<point x="602" y="1330" type="curve" smooth="yes"/>
			<point x="368" y="1330"/>
			<point x="190" y="1222"/>
			<point x="190" y="1058" type="curve" smooth="yes"/>
			<point x="190" y="972"/>
			<point x="256" y="948"/>
			<point x="296" y="948" type="curve" smooth="yes"/>
			<point x="348" y="948"/>
			<point x="402" y="984"/>
			<point x="402" y="1054" type="curve" smooth="yes"/>
			<point x="402" y="1116"/>
			<point x="358" y="1152"/>
			<point x="304" y="1160" type="curve"/>
			<point x="398" y="1264"/>
			<point x="580" y="1264"/>
			<point x="598" y="1264" type="curve" smooth="yes"/>
			<point x="700" y="1264"/>
			<point x="828" y="1216"/>
			<point x="828" y="1050" type="curve" smooth="yes"/>
			<point x="828" y="940"/>
			<point x="766" y="748"/>
			<point x="566" y="736" type="curve" smooth="yes"/>
			<point x="530" y="734"/>
			<point x="476" y="730"/>
			<point x="458" y="730" type="curve"/>
			<point x="438" y="728"/>
			<point x="416" y="726"/>
			<point x="416" y="696" type="curve" smooth="yes"/>
			<point x="416" y="664"/>
			<point x="438" y="664"/>
			<point x="472" y="664" type="curve" smooth="yes"/>
			<point x="588" y="664" type="line" smooth="yes"/>
			<point x="758" y="664"/>
			<point x="872" y="550"/>
			<point x="872" y="346" type="curve" smooth="yes"/>
			<point x="872" y="126"/>
			<point x="740" y="30"/>
			<point x="594" y="30" type="curve" smooth="yes"/>
			<point x="540" y="30"/>
			<point x="334" y="42"/>
			<point x="244" y="158" type="curve"/>
			<point x="322" y="166"/>
			<point x="354" y="218"/>
			<point x="354" y="272" type="curve" smooth="yes"/>
			<point x="354" y="340"/>
			<point x="306" y="386"/>
			<point x="240" y="386" type="curve" smooth="yes"/>
			<point x="186" y="386"/>
			<point x="126" y="352"/>
			<point x="126" y="268" type="curve" smooth="yes"/>
			<point x="126" y="70"/>
			<point x="346" y="-42"/>
		</contour>
	</outline>
</glyph>
<glyph name="four" format="2">
	<unicode hex="0034"/>
	<advance width="1222"/>
	<outline>
		<contour>
			<point x="714" y="328" type="line"/>
			<point x="714" y="168" type="line" smooth="yes"/>
			<point x="714" y="102"/>
			<point x="714" y="78"/>
			<point x="546" y="78" type="curve" smooth="yes"/>
			<point x="488" y="78" type="line"/>
			<point x="488" y="0" type="line"/>
			<point x="528" y="2"/>
			<point x="716" y="8"/>
			<point x="804" y="8" type="curve" smooth="yes"/>
			<point x="892" y="8"/>
			<point x="1080" y="2"/>
			<point x="1120" y="0" type="curve"/>
			<point x="1120" y="78" type="line"/>
			<point x="1062" y="78" type="line" smooth="yes"/>
			<point x="894" y="78"/>
			<point x="894" y="102"/>
			<point x="894" y="168" type="curve" smooth="yes"/>
			<point x="894" y="328" type="line"/>
			<point x="1128" y="328" type="line"/>
			<point x="1128" y="406" type="line"/>
			<point x="894" y="406" type="line"/>
			<point x="894" y="1290" type="line" smooth="yes"/>
			<point x="894" y="1336"/>
			<point x="894" y="1350"/>
			<point x="844" y="1350" type="curve" smooth="yes"/>
			<point x="808" y="1350"/>
			<point x="804" y="1344"/>
			<point x="786" y="1320" type="curve" smooth="yes"/>
			<point x="92" y="406" type="line"/>
			<point x="92" y="328" type="line"/>
		</contour>
		<contour>
			<point x="178" y="406" type="line"/>
			<point x="728" y="1132" type="line"/>
			<point x="728" y="406" type="line"/>
		</contour>
	</outline>
</glyph>
<glyph name="six" format="2">
	<unicode hex="0036"/>
	<advance width="1222"/>
	<outline>
		<contour>
			<point x="126" y="634" type="curve" smooth="yes"/>
			<point x="126" y="374"/>
			<point x="191" y="199"/>
			<point x="291" y="92" type="curve" smooth="yes"/>
			<point x="379" y="-1"/>
			<point x="493" y="-42"/>
			<point x="616" y="-42" type="curve" smooth="yes"/>
			<point x="694" y="-42"/>
			<point x="830" y="-30"/>
			<point x="952" y="88" type="curve" smooth="yes"/>
			<point x="1016" y="152"/>
			<point x="1094" y="232"/>
			<point x="1094" y="408" type="curve" smooth="yes"/>
			<point x="1094" y="476"/>
			<point x="1086" y="604"/>
			<point x="964" y="718" type="curve" smooth="yes"/>
			<point x="894" y="782"/>
			<point x="806" y="852"/>
			<point x="636" y="852" type="curve" smooth="yes"/>
			<point x="496" y="852"/>
			<point x="394" y="780"/>
			<point x="326" y="662" type="curve"/>
			<point x="328" y="762"/>
			<point x="332" y="928"/>
			<point x="402" y="1052" type="curve" smooth="yes"/>
			<point x="490" y="1204"/>
			<point x="622" y="1264"/>
			<point x="742" y="1264" type="curve" smooth="yes"/>
			<point x="788" y="1264"/>
			<point x="880" y="1256"/>
			<point x="928" y="1200" type="curve"/>
			<point x="854" y="1188"/>
			<point x="842" y="1136"/>
			<point x="842" y="1104" type="curve" smooth="yes"/>
			<point x="842" y="1052"/>
			<point x="878" y="1008"/>
			<point x="938" y="1008" type="curve" smooth="yes"/>
			<point x="998" y="1008"/>
			<point x="1036" y="1046"/>
			<point x="1036" y="1108" type="curve" smooth="yes"/>
			<point x="1036" y="1230"/>
			<point x="944" y="1330"/>
			<point x="740" y="1330" type="curve" smooth="yes"/>
			<point x="430" y="1330"/>
			<point x="126" y="1060"/>
		</contour>
		<contour>
			<point x="614" y="30" type="curve" smooth="yes"/>
			<point x="534" y="30"/>
			<point x="477" y="58"/>
			<point x="436" y="99" type="curve" smooth="yes"/>
			<point x="332" y="204"/>
			<point x="332" y="396"/>
			<point x="332" y="452" type="curve" smooth="yes"/>
			<point x="332" y="624"/>
			<point x="446" y="788"/>
			<point x="626" y="788" type="curve" smooth="yes"/>
			<point x="730" y="788"/>
			<point x="790" y="746"/>
			<point x="838" y="682" type="curve" smooth="yes"/>
			<point x="894" y="604"/>
			<point x="894" y="514"/>
			<point x="894" y="408" type="curve" smooth="yes"/>
			<point x="894" y="270"/>
			<point x="890" y="202"/>
			<point x="822" y="122" type="curve" smooth="yes"/>
			<point x="774" y="62"/>
			<point x="710" y="30"/>
		</contour>
	</outline>
</glyph>
<glyph name="seven" format="2">
  <advance width="611"/>
  <unicode hex="0037"/>
  <outline>
    <contour>
      <point x="273" y="-21" type="curve" smooth="yes"/>
      <point x="322" y="-21"/>
      <point x="322" y="25"/>
      <point x="322" y="38" type="curve" smooth="yes"/>
      <point x="322.0" y="47.324"/>
      <point x="322.0" y="56.647999999999996"/>
      <point x="322" y="66" type="curve" smooth="yes"/>
      <point x="322" y="258"/>
      <point x="363" y="356"/>
      <point x="413" y="416" type="curve" smooth="yes"/>
      <point x="465.61400000000003" y="478.604"/>
      <point x="518.2280000000001" y="541.208"/>
      <point x="571" y="604" type="curve" smooth="yes"/>
      <point x="580" y="614"/>
      <point x="580" y="616"/>
      <point x="580" y="644" type="curve"/>
      <point x="580" y="644" type="line"/>
      <point x="322" y="644" type="line" smooth="yes"/>
      <point x="281" y="644"/>
      <point x="257" y="645"/>
      <point x="218" y="648" type="curve" smooth="yes"/>
      <point x="169" y="651"/>
      <point x="157" y="652"/>
      <point x="152" y="676" type="curve"/>
      <point x="115" y="676" type="line"/>
      <point x="79" y="457" type="line"/>
      <point x="116" y="457" type="line"/>
      <point x="119" y="478"/>
      <point x="129" y="537"/>
      <point x="144" y="548" type="curve" smooth="yes"/>
      <point x="152" y="554"/>
      <point x="238" y="554"/>
      <point x="253" y="554" type="curve" smooth="yes"/>
      <point x="479" y="554" type="line"/>
      <point x="449.363" y="518.369"/>
      <point x="419.726" y="482.738"/>
      <point x="390" y="447" type="curve" smooth="yes"/>
      <point x="293" y="330"/>
      <point x="225" y="188"/>
      <point x="225" y="36" type="curve" smooth="yes"/>
      <point x="225" y="27"/>
      <point x="225" y="-21"/>
    </contour>
  </outline>
</glyph>
<glyph name="eight" format="2">
  <advance width="611"/>
  <unicode hex="0038"/>
  <outline>
    <contour>
      <point x="304" y="-21" type="curve" smooth="yes"/>
      <point x="437" y="-21"/>
      <point x="547" y="59"/>
      <point x="547" y="170" type="curve" smooth="yes"/>
      <point x="547" y="249"/>
      <point x="503" y="300"/>
      <point x="385" y="361" type="curve"/>
      <point x="459" y="394"/>
      <point x="515" y="443"/>
      <point x="515" y="515" type="curve" smooth="yes"/>
      <point x="515" y="613"/>
      <point x="410" y="665"/>
      <point x="306" y="665" type="curve" smooth="yes"/>
      <point x="193" y="665"/>
      <point x="95" y="597"/>
      <point x="95" y="496" type="curve" smooth="yes"/>
      <point x="95" y="434"/>
      <point x="136" y="386"/>
      <point x="178" y="361" type="curve" smooth="yes"/>
      <point x="188" y="355"/>
      <point x="212" y="342"/>
      <point x="222" y="336" type="curve"/>
      <point x="156" y="311"/>
      <point x="63" y="255"/>
      <point x="63" y="154" type="curve" smooth="yes"/>
      <point x="63" y="37"/>
      <point x="188" y="-21"/>
    </contour>
    <contour>
      <point x="306" y="15" type="curve" smooth="yes"/>
      <point x="213" y="15"/>
      <point x="127" y="69"/>
      <point x="127" y="154" type="curve" smooth="yes"/>
      <point x="127" y="239"/>
      <point x="207" y="295"/>
      <point x="262" y="315" type="curve"/>
      <point x="310.285" y="288.36"/>
      <point x="358.57" y="261.72"/>
      <point x="407" y="235" type="curve" smooth="yes"/>
      <point x="429" y="223"/>
      <point x="483" y="192"/>
      <point x="483" y="135" type="curve" smooth="yes"/>
      <point x="483" y="56"/>
      <point x="391" y="15"/>
    </contour>
    <contour>
      <point x="348" y="382" type="curve"/>
      <point x="300.048" y="407.974"/>
      <point x="252.096" y="433.948"/>
      <point x="204" y="460" type="curve" smooth="yes"/>
      <point x="202" y="461"/>
      <point x="151" y="489"/>
      <point x="151" y="535" type="curve" smooth="yes"/>
      <point x="151" y="600"/>
      <point x="230" y="632"/>
      <point x="304" y="632" type="curve" smooth="yes"/>
      <point x="382" y="632"/>
      <point x="459" y="589"/>
      <point x="459" y="514" type="curve" smooth="yes"/>
      <point x="459" y="437"/>
      <point x="376" y="396"/>
    </contour>
  </outline>
</glyph>
<glyph name="nine" format="2">
	<unicode hex="0039"/>
	<advance width="1222"/>
	<outline>
		<contour>
			<point x="508" y="-42" type="curve" smooth="yes"/>
			<point x="816" y="-42"/>
			<point x="1094" y="238"/>
			<point x="1094" y="656" type="curve" smooth="yes"/>
			<point x="1094" y="1142"/>
			<point x="872" y="1330"/>
			<point x="616" y="1330" type="curve" smooth="yes"/>
			<point x="476" y="1330"/>
			<point x="344" y="1276"/>
			<point x="252" y="1184" type="curve" smooth="yes"/>
			<point x="174" y="1107"/>
			<point x="126" y="1003"/>
			<point x="126" y="882" type="curve" smooth="yes"/>
			<point x="126" y="732"/>
			<point x="182" y="648"/>
			<point x="254" y="576" type="curve" smooth="yes"/>
			<point x="342" y="490"/>
			<point x="438" y="438"/>
			<point x="584" y="438" type="curve" smooth="yes"/>
			<point x="758" y="438"/>
			<point x="852" y="552"/>
			<point x="894" y="630" type="curve"/>
			<point x="894" y="478"/>
			<point x="880" y="328"/>
			<point x="808" y="208" type="curve" smooth="yes"/>
			<point x="758" y="130"/>
			<point x="662" y="30"/>
			<point x="506" y="30" type="curve" smooth="yes"/>
			<point x="460" y="30"/>
			<point x="352" y="36"/>
			<point x="296" y="88" type="curve"/>
			<point x="360" y="102"/>
			<point x="378" y="146"/>
			<point x="378" y="184" type="curve" smooth="yes"/>
			<point x="378" y="236"/>
			<point x="342" y="280"/>
			<point x="282" y="280" type="curve" smooth="yes"/>
			<point x="222" y="280"/>
			<point x="184" y="242"/>
			<point x="184" y="180" type="curve" smooth="yes"/>
			<point x="184" y="18"/>
			<point x="334" y="-42"/>
		</contour>
		<contour>
			<point x="594" y="502" type="curve" smooth="yes"/>
			<point x="470" y="502"/>
			<point x="416" y="564"/>
			<point x="384" y="606" type="curve" smooth="yes"/>
			<point x="328" y="682"/>
			<point x="326" y="768"/>
			<point x="326" y="882" type="curve" smooth="yes"/>
			<point x="326" y="1000"/>
			<point x="326" y="1078"/>
			<point x="392" y="1160" type="curve" smooth="yes"/>
			<point x="448" y="1228"/>
			<point x="514" y="1264"/>
			<point x="618" y="1264" type="curve" smooth="yes"/>
			<point x="732" y="1264"/>
			<point x="798" y="1202"/>
			<point x="836" y="1126" type="curve" smooth="yes"/>
			<point x="888" y="1022"/>
			<point x="888" y="888"/>
			<point x="888" y="842" type="curve" smooth="yes"/>
			<point x="888" y="662"/>
			<point x="770" y="502"/>
		</contour>
	</outline>
</glyph>
<glyph name="colon" format="2">
	<unicode hex="003A"/>
	<advance width="702"/>
	<outline>
		<contour>
			<point x="472" y="742" type="curve" smooth="yes"/>
			<point x="472" y="808"/>
			<point x="418" y="862"/>
			<point x="352" y="862" type="curve" smooth="yes"/>
			<point x="286" y="862"/>
			<point x="232" y="808"/>
			<point x="232" y="742" type="curve" smooth="yes"/>
			<point x="232" y="676"/>
			<point x="286" y="622"/>
			<point x="352" y="622" type="curve" smooth="yes"/>
			<point x="418" y="622"/>
			<point x="472" y="676"/>
		</contour>
		<contour>
			<point x="472" y="120" type="curve" smooth="yes"/>
			<point x="472" y="186"/>
			<point x="418" y="240"/>
			<point x="352" y="240" type="curve" smooth="yes"/>
			<point x="286" y="240"/>
			<point x="232" y="186"/>
			<point x="232" y="120" type="curve" smooth="yes"/>
			<point x="232" y="54"/>
			<point x="286" y="0"/>
			<point x="352" y="0" type="curve" smooth="yes"/>
			<point x="418" y="0"/>
			<point x="472" y="54"/>
		</contour>
	</outline>
</glyph>
<glyph name="semicolon" format="2">
	<unicode hex="003B"/>
	<advance width="702"/>
	<outline>
		<contour>
			<point x="352" y="622" type="curve" smooth="yes"/>
			<point x="418" y="622"/>
			<point x="472" y="676"/>
			<point x="472" y="742" type="curve" smooth="yes"/>
			<point x="472" y="808"/>
			<point x="418" y="862"/>
			<point x="352" y="862" type="curve" smooth="yes"/>
			<point x="286" y="862"/>
			<point x="232" y="808"/>
			<point x="232" y="742" type="curve" smooth="yes"/>
			<point x="232" y="676"/>
			<point x="286" y="622"/>
		</contour>
		<contour>
			<point x="290" y="-388" type="curve" smooth="yes"/>
			<point x="318" y="-388"/>
			<point x="478" y="-222"/>
			<point x="478" y="20" type="curve" smooth="yes"/>
			<point x="478" y="78"/>
			<point x="474" y="240"/>
			<point x="350" y="240" type="curve" smooth="yes"/>
			<point x="280" y="240"/>
			<point x="232" y="186"/>
			<point x="232" y="120" type="curve" smooth="yes"/>
			<point x="232" y="58"/>
			<point x="274" y="0"/>
			<point x="352" y="0" type="curve" smooth="yes"/>
			<point x="388" y="0"/>
			<point x="398" y="6"/>
			<point x="414" y="14" type="curve"/>
			<point x="410" y="-152"/>
			<point x="338" y="-256"/>
			<point x="270" y="-328" type="curve"/>
			<point x="262" y="-338"/>
			<point x="256" y="-342"/>
			<point x="256" y="-354" type="curve" smooth="yes"/>
			<point x="256" y="-370"/>
			<point x="274" y="-388"/>
		</contour>
	</outline>
</glyph>
<glyph name="equal" format="2">
	<unicode hex="003D"/>
	<advance width="935"/>
	<outline>
		<contour>
			<point x="818" y="339" type="line" smooth="yes"/>
			<point x="832" y="339"/>
			<point x="855" y="339"/>
			<point x="855" y="365" type="curve" smooth="yes"/>
			<point x="855" y="391"/>
			<point x="828" y="391"/>
			<point x="813" y="391" type="curve" smooth="yes"/>
			<point x="121" y="391" type="line" smooth="yes"/>
			<point x="106" y="391"/>
			<point x="79" y="391"/>
			<point x="79" y="365" type="curve" smooth="yes"/>
			<point x="79" y="339"/>
			<point x="102" y="339"/>
			<point x="116" y="339" type="curve" smooth="yes"/>
		</contour>
		<contour>
			<point x="813" y="109" type="line" smooth="yes"/>
			<point x="828" y="109"/>
			<point x="855" y="109"/>
			<point x="855" y="135" type="curve" smooth="yes"/>
			<point x="855" y="161"/>
			<point x="832" y="161"/>
			<point x="818" y="161" type="curve" smooth="yes"/>
			<point x="116" y="161" type="line" smooth="yes"/>
			<point x="102" y="161"/>
			<point x="79" y="161"/>
			<point x="79" y="135" type="curve" smooth="yes"/>
			<point x="79" y="109"/>
			<point x="106" y="109"/>
			<point x="121" y="109" type="curve" smooth="yes"/>
		</contour>
	</outline>
</glyph>
<glyph name="question" format="2">
	<unicode hex="003F"/>
	<advance width="1156"/>
	<outline>
		<contour>
			<point x="998" y="1138" type="curve" smooth="yes"/>
			<point x="998" y="1224"/>
			<point x="940" y="1408"/>
			<point x="556" y="1408" type="curve" smooth="yes"/>
			<point x="300" y="1408"/>
			<point x="158" y="1284"/>
			<point x="158" y="1142" type="curve" smooth="yes"/>
			<point x="158" y="1050"/>
			<point x="238" y="1040"/>
			<point x="256" y="1040" type="curve" smooth="yes"/>
			<point x="286" y="1040"/>
			<point x="352" y="1060"/>
			<point x="352" y="1138" type="curve" smooth="yes"/>
			<point x="352" y="1168"/>
			<point x="338" y="1224"/>
			<point x="264" y="1234" type="curve"/>
			<point x="304" y="1290"/>
			<point x="402" y="1344"/>
			<point x="552" y="1344" type="curve" smooth="yes"/>
			<point x="788" y="1344"/>
			<point x="808" y="1238"/>
			<point x="808" y="1144" type="curve" smooth="yes"/>
			<point x="808" y="1042"/>
			<point x="762" y="1004"/>
			<point x="728" y="974" type="curve" smooth="yes"/>
			<point x="608" y="874"/>
			<point x="510" y="708"/>
			<point x="510" y="530" type="curve" smooth="yes"/>
			<point x="510" y="503"/>
			<point x="510" y="475"/>
			<point x="510" y="448" type="curve" smooth="yes"/>
			<point x="510" y="412"/>
			<point x="510" y="394"/>
			<point x="546" y="394" type="curve" smooth="yes"/>
			<point x="584" y="394"/>
			<point x="584" y="416"/>
			<point x="584" y="456" type="curve" smooth="yes"/>
			<point x="584" y="518" type="line" smooth="yes"/>
			<point x="584" y="734"/>
			<point x="764" y="868"/>
			<point x="850" y="922" type="curve" smooth="yes"/>
			<point x="906" y="956"/>
			<point x="998" y="1012"/>
		</contour>
		<contour>
			<point x="666" y="120" type="curve" smooth="yes"/>
			<point x="666" y="184"/>
			<point x="614" y="240"/>
			<point x="546" y="240" type="curve" smooth="yes"/>
			<point x="480" y="240"/>
			<point x="426" y="184"/>
			<point x="426" y="120" type="curve" smooth="yes"/>
			<point x="426" y="56"/>
			<point x="478" y="0"/>
			<point x="546" y="0" type="curve" smooth="yes"/>
			<point x="612" y="0"/>
			<point x="666" y="56"/>
		</contour>
	</outline>
</glyph>
<glyph name="at" format="2">
	<unicode hex="0040"/>
	<advance width="1870"/>
	<outline>
		<contour>
			<point x="946" y="-20" type="curve" smooth="yes"/>
			<point x="1114" y="-20"/>
			<point x="1269" y="3"/>
			<point x="1394" y="32" type="curve" smooth="yes"/>
			<point x="1559" y="69"/>
			<point x="1675" y="114"/>
			<point x="1704" y="128" type="curve"/>
			<point x="1704" y="130"/>
			<point x="1710" y="138"/>
			<point x="1710" y="148" type="curve" smooth="yes"/>
			<point x="1710" y="176"/>
			<point x="1684" y="176"/>
			<point x="1654" y="176" type="curve" smooth="yes"/>
			<point x="1638" y="176" type="line" smooth="yes"/>
			<point x="1606" y="176"/>
			<point x="1602" y="176"/>
			<point x="1568" y="162" type="curve" smooth="yes"/>
			<point x="1314" y="64"/>
			<point x="1086" y="44"/>
			<point x="944" y="44" type="curve" smooth="yes"/>
			<point x="516" y="44"/>
			<point x="232" y="360"/>
			<point x="232" y="694" type="curve" smooth="yes"/>
			<point x="232" y="1048"/>
			<point x="542" y="1344"/>
			<point x="934" y="1344" type="curve" smooth="yes"/>
			<point x="1300" y="1344"/>
			<point x="1636" y="1078"/>
			<point x="1636" y="682" type="curve" smooth="yes"/>
			<point x="1636" y="614"/>
			<point x="1636" y="316"/>
			<point x="1474" y="316" type="curve" smooth="yes"/>
			<point x="1400" y="316"/>
			<point x="1400" y="416"/>
			<point x="1400" y="440" type="curve" smooth="yes"/>
			<point x="1400" y="912" type="line" smooth="yes"/>
			<point x="1400" y="964"/>
			<point x="1398" y="968"/>
			<point x="1344" y="968" type="curve" smooth="yes"/>
			<point x="1318" y="968"/>
			<point x="1290" y="968"/>
			<point x="1264" y="968" type="curve"/>
			<point x="1168" y="1088"/>
			<point x="1052" y="1136"/>
			<point x="932" y="1136" type="curve" smooth="yes"/>
			<point x="678" y="1136"/>
			<point x="468" y="940"/>
			<point x="468" y="694" type="curve" smooth="yes"/>
			<point x="468" y="448"/>
			<point x="680" y="252"/>
			<point x="932" y="252" type="curve" smooth="yes"/>
			<point x="1098" y="252"/>
			<point x="1202" y="348"/>
			<point x="1238" y="388" type="curve"/>
			<point x="1264" y="282"/>
			<point x="1390" y="252"/>
			<point x="1462" y="252" type="curve" smooth="yes"/>
			<point x="1676" y="252"/>
			<point x="1710" y="520"/>
			<point x="1710" y="686" type="curve" smooth="yes"/>
			<point x="1710" y="1102"/>
			<point x="1352" y="1408"/>
			<point x="934" y="1408" type="curve" smooth="yes"/>
			<point x="498" y="1408"/>
			<point x="158" y="1082"/>
			<point x="158" y="694" type="curve" smooth="yes"/>
			<point x="158" y="330"/>
			<point x="468" y="-20"/>
		</contour>
		<contour>
			<point x="936" y="316" type="curve" smooth="yes"/>
			<point x="772" y="316"/>
			<point x="634" y="482"/>
			<point x="634" y="694" type="curve" smooth="yes"/>
			<point x="634" y="906"/>
			<point x="772" y="1072"/>
			<point x="936" y="1072" type="curve" smooth="yes"/>
			<point x="1016" y="1072"/>
			<point x="1124" y="1038"/>
			<point x="1204" y="928" type="curve" smooth="yes"/>
			<point x="1234" y="890"/>
			<point x="1234" y="888"/>
			<point x="1234" y="848" type="curve" smooth="yes"/>
			<point x="1234" y="524" type="line" smooth="yes"/>
			<point x="1234" y="456"/>
			<point x="1094" y="316"/>
		</contour>
	</outline>
</glyph>
<glyph name="A" format="2">
	<unicode hex="0041"/>
	<advance width="1792"/>
	<outline>
		<contour>
			<point x="896" y="1428" type="curve" smooth="yes"/>
			<point x="854" y="1428"/>
			<point x="846" y="1410"/>
			<point x="834" y="1380" type="curve" smooth="yes"/>
			<point x="350" y="208" type="line" smooth="yes"/>
			<point x="308" y="106"/>
			<point x="216" y="78"/>
			<point x="108" y="78" type="curve"/>
			<point x="108" y="0" type="line"/>
			<point x="180" y="8"/>
			<point x="252" y="8"/>
			<point x="324" y="8" type="curve" smooth="yes"/>
			<point x="402" y="8"/>
			<point x="538" y="2"/>
			<point x="572" y="0" type="curve"/>
			<point x="572" y="78" type="line"/>
			<point x="468" y="78"/>
			<point x="424" y="128"/>
			<point x="424" y="172" type="curve" smooth="yes"/>
			<point x="424" y="184"/>
			<point x="428" y="190"/>
			<point x="436" y="212" type="curve" smooth="yes"/>
			<point x="534" y="450" type="line"/>
			<point x="1132" y="450" type="line"/>
			<point x="1252" y="162" type="line"/>
			<point x="1256" y="154"/>
			<point x="1262" y="140"/>
			<point x="1262" y="132" type="curve" smooth="yes"/>
			<point x="1262" y="78"/>
			<point x="1148" y="78"/>
			<point x="1094" y="78" type="curve"/>
			<point x="1094" y="0" type="line"/>
			<point x="1126" y="2"/>
			<point x="1322" y="8"/>
			<point x="1404" y="8" type="curve" smooth="yes"/>
			<point x="1502" y="8"/>
			<point x="1630" y="2"/>
			<point x="1682" y="0" type="curve"/>
			<point x="1682" y="78" type="line"/>
			<point x="1638" y="78" type="line" smooth="yes"/>
			<point x="1500" y="78"/>
			<point x="1486" y="100"/>
			<point x="1464" y="154" type="curve" smooth="yes"/>
			<point x="958" y="1380" type="line" smooth="yes"/>
			<point x="942" y="1420"/>
			<point x="924" y="1428"/>
		</contour>
		<contour>
			<point x="834" y="1176" type="line"/>
			<point x="1100" y="528" type="line"/>
			<point x="566" y="528" type="line"/>
		</contour>
	</outline>
</glyph>
<glyph name="B" format="2">
	<unicode hex="0042"/>
	<advance width="1700"/>
	<outline>
		<contour>
			<point x="1542" y="368" type="curve" smooth="yes"/>
			<point x="1542" y="524"/>
			<point x="1386" y="680"/>
			<point x="1104" y="716" type="curve"/>
			<point x="1308" y="750"/>
			<point x="1478" y="872"/>
			<point x="1478" y="1026" type="curve" smooth="yes"/>
			<point x="1478" y="1208"/>
			<point x="1252" y="1366"/>
			<point x="966" y="1366" type="curve" smooth="yes"/>
			<point x="138" y="1366" type="line"/>
			<point x="138" y="1288" type="line"/>
			<point x="190" y="1288" type="line" smooth="yes"/>
			<point x="350" y="1288"/>
			<point x="350" y="1264"/>
			<point x="350" y="1198" type="curve" smooth="yes"/>
			<point x="350" y="168" type="line" smooth="yes"/>
			<point x="350" y="102"/>
			<point x="350" y="78"/>
			<point x="190" y="78" type="curve" smooth="yes"/>
			<point x="138" y="78" type="line"/>
			<point x="138" y="0" type="line"/>
			<point x="1028" y="0" type="line" smooth="yes"/>
			<point x="1320" y="0"/>
			<point x="1542" y="172"/>
		</contour>
		<contour>
			<point x="536" y="742" type="line"/>
			<point x="536" y="1210" type="line" smooth="yes"/>
			<point x="536" y="1272"/>
			<point x="536" y="1288"/>
			<point x="634" y="1288" type="curve" smooth="yes"/>
			<point x="952" y="1288" type="line" smooth="yes"/>
			<point x="1150" y="1288"/>
			<point x="1270" y="1158"/>
			<point x="1270" y="1026" type="curve" smooth="yes"/>
			<point x="1270" y="874"/>
			<point x="1116" y="742"/>
			<point x="886" y="742" type="curve" smooth="yes"/>
		</contour>
		<contour>
			<point x="956" y="78" type="curve" smooth="yes"/>
			<point x="634" y="78" type="line" smooth="yes"/>
			<point x="536" y="78"/>
			<point x="536" y="94"/>
			<point x="536" y="156" type="curve" smooth="yes"/>
			<point x="536" y="678" type="line"/>
			<point x="988" y="678" type="line" smooth="yes"/>
			<point x="1204" y="678"/>
			<point x="1328" y="514"/>
			<point x="1328" y="370" type="curve" smooth="yes"/>
			<point x="1328" y="224"/>
			<point x="1182" y="78"/>
		</contour>
	</outline>
</glyph>
<glyph name="C" format="2">
  <advance width="870"/>
  <unicode hex="0043"/>
  <outline>
    <contour>
      <point x="79" y="342" type="curve" smooth="yes"/>
      <point x="79" y="141"/>
      <point x="260" y="-21"/>
      <point x="483" y="-21" type="curve" smooth="yes"/>
      <point x="666" y="-21"/>
      <point x="790" y="107"/>
      <point x="790" y="234" type="curve" smooth="yes"/>
      <point x="790" y="245"/>
      <point x="789" y="255"/>
      <point x="771" y="255" type="curve" smooth="yes"/>
      <point x="755" y="255"/>
      <point x="754" y="247"/>
      <point x="753" y="238" type="curve"/>
      <point x="745" y="85"/>
      <point x="606" y="18"/>
      <point x="496" y="18" type="curve" smooth="yes"/>
      <point x="428.9416" y="18.0"/>
      <point x="341.2727337016" y="40.1718652604"/>
      <point x="276.9694658892199" y="103.88600526957543" type="curve" smooth="yes"/>
      <point x="226.20300138639996" y="154.18736221679998"/>
      <point x="189.99999999999994" y="230.38146"/>
      <point x="190" y="342" type="curve" smooth="yes"/>
      <point x="190.0" y="450.95632"/>
      <point x="224.9365540436" y="526.5202430412"/>
      <point x="274.62696541512804" y="577.0022913006413" type="curve" smooth="yes"/>
      <point x="338.0389607708" y="641.42452733"/>
      <point x="425.47815999999995" y="665.0"/>
      <point x="495" y="665" type="curve" smooth="yes"/>
      <point x="608" y="665"/>
      <point x="725" y="588"/>
      <point x="750" y="435" type="curve" smooth="yes"/>
      <point x="752" y="422"/>
      <point x="753" y="415"/>
      <point x="770" y="415" type="curve" smooth="yes"/>
      <point x="790" y="415"/>
      <point x="790" y="423"/>
      <point x="790" y="443" type="curve" smooth="yes"/>
      <point x="790" y="676" type="line" smooth="yes"/>
      <point x="790" y="693"/>
      <point x="790" y="704"/>
      <point x="774" y="704" type="curve" smooth="yes"/>
      <point x="765" y="704"/>
      <point x="763" y="700"/>
      <point x="756" y="691" type="curve" smooth="yes"/>
      <point x="701" y="615" type="line"/>
      <point x="643" y="673"/>
      <point x="564" y="704"/>
      <point x="482" y="704" type="curve" smooth="yes"/>
      <point x="260" y="704"/>
      <point x="79" y="540"/>
    </contour>
  </outline>
</glyph>
<glyph name="D" format="2">
	<unicode hex="0044"/>
	<advance width="1830"/>
	<outline>
		<contour>
			<point x="1672" y="670" type="curve" smooth="yes"/>
			<point x="1672" y="1056"/>
			<point x="1350" y="1366"/>
			<point x="962" y="1366" type="curve" smooth="yes"/>
			<point x="134" y="1366" type="line"/>
			<point x="134" y="1288" type="line"/>
			<point x="152" y="1288"/>
			<point x="168" y="1288"/>
			<point x="186" y="1288" type="curve" smooth="yes"/>
			<point x="346" y="1288"/>
			<point x="346" y="1264"/>
			<point x="346" y="1198" type="curve" smooth="yes"/>
			<point x="346" y="168" type="line" smooth="yes"/>
			<point x="346" y="102"/>
			<point x="346" y="78"/>
			<point x="186" y="78" type="curve" smooth="yes"/>
			<point x="168" y="78"/>
			<point x="152" y="78"/>
			<point x="134" y="78" type="curve"/>
			<point x="134" y="0" type="line"/>
			<point x="964" y="0" type="line" smooth="yes"/>
			<point x="1350" y="0"/>
			<point x="1672" y="298"/>
		</contour>
		<contour>
			<point x="636" y="78" type="line" smooth="yes"/>
			<point x="538" y="78"/>
			<point x="538" y="94"/>
			<point x="538" y="156" type="curve" smooth="yes"/>
			<point x="538" y="1210" type="line" smooth="yes"/>
			<point x="538" y="1272"/>
			<point x="538" y="1288"/>
			<point x="636" y="1288" type="curve" smooth="yes"/>
			<point x="906" y="1288" type="line" smooth="yes"/>
			<point x="1048" y="1288"/>
			<point x="1204" y="1244"/>
			<point x="1320" y="1122" type="curve" smooth="yes"/>
			<point x="1432" y="1002"/>
			<point x="1458" y="820"/>
			<point x="1458" y="672" type="curve" smooth="yes"/>
			<point x="1458" y="542"/>
			<point x="1436" y="366"/>
			<point x="1332" y="250" type="curve" smooth="yes"/>
			<point x="1208" y="114"/>
			<point x="1038" y="78"/>
			<point x="908" y="78" type="curve" smooth="yes"/>
		</contour>
	</outline>
</glyph>
<glyph name="E" format="2">
	<unicode hex="0045"/>
	<advance width="818"/>
	<outline>
		<contour>
			<point x="772" y="266" type="line"/>
			<point x="735" y="266" type="line"/>
			<point x="708" y="112"/>
			<point x="680" y="39"/>
			<point x="490" y="39" type="curve" smooth="yes"/>
			<point x="320" y="39" type="line" smooth="yes"/>
			<point x="271" y="39"/>
			<point x="271" y="47"/>
			<point x="271" y="78" type="curve" smooth="yes"/>
			<point x="271" y="333" type="line"/>
			<point x="379" y="333" type="line" smooth="yes"/>
			<point x="480" y="333"/>
			<point x="500" y="306"/>
			<point x="500" y="216" type="curve"/>
			<point x="537" y="216" type="line"/>
			<point x="537" y="489" type="line"/>
			<point x="500" y="489" type="line"/>
			<point x="500" y="399"/>
			<point x="480" y="372"/>
			<point x="379" y="372" type="curve" smooth="yes"/>
			<point x="271" y="372" type="line"/>
			<point x="271" y="601" type="line" smooth="yes"/>
			<point x="271" y="632"/>
			<point x="271" y="640"/>
			<point x="320" y="640" type="curve" smooth="yes"/>
			<point x="481" y="640" type="line" smooth="yes"/>
			<point x="647" y="640"/>
			<point x="683" y="592"/>
			<point x="702" y="446" type="curve"/>
			<point x="739" y="446" type="line"/>
			<point x="708" y="679" type="line"/>
			<point x="65" y="679" type="line"/>
			<point x="65" y="640" type="line"/>
			<point x="91" y="640" type="line" smooth="yes"/>
			<point x="171" y="640"/>
			<point x="171" y="628"/>
			<point x="171" y="595" type="curve" smooth="yes"/>
			<point x="171" y="84" type="line" smooth="yes"/>
			<point x="171" y="51"/>
			<point x="171" y="39"/>
			<point x="91" y="39" type="curve" smooth="yes"/>
			<point x="65" y="39" type="line"/>
			<point x="65" y="0" type="line"/>
			<point x="725" y="0" type="line"/>
		</contour>
	</outline>
</glyph>
<glyph name="F" format="2">
	<unicode hex="0046"/>
	<advance width="1572"/>
	<outline>
		<contour>
			<point x="1382" y="1358" type="line"/>
			<point x="130" y="1358" type="line"/>
			<point x="130" y="1280" type="line"/>
			<point x="182" y="1280" type="line" smooth="yes"/>
			<point x="342" y="1280"/>
			<point x="342" y="1256"/>
			<point x="342" y="1190" type="curve" smooth="yes"/>
			<point x="342" y="168" type="line" smooth="yes"/>
			<point x="342" y="102"/>
			<point x="342" y="78"/>
			<point x="182" y="78" type="curve" smooth="yes"/>
			<point x="130" y="78" type="line"/>
			<point x="130" y="0" type="line"/>
			<point x="168" y="2"/>
			<point x="358" y="8"/>
			<point x="448" y="8" type="curve" smooth="yes"/>
			<point x="556" y="8"/>
			<point x="702" y="8"/>
			<point x="808" y="0" type="curve"/>
			<point x="808" y="78" type="line"/>
			<point x="734" y="78" type="line" smooth="yes"/>
			<point x="542" y="78"/>
			<point x="542" y="102"/>
			<point x="542" y="168" type="curve" smooth="yes"/>
			<point x="542" y="640" type="line"/>
			<point x="748" y="640" type="line" smooth="yes"/>
			<point x="952" y="640"/>
			<point x="986" y="584"/>
			<point x="986" y="406" type="curve"/>
			<point x="1060" y="406" type="line"/>
			<point x="1060" y="952" type="line"/>
			<point x="986" y="952" type="line"/>
			<point x="986" y="774"/>
			<point x="952" y="718"/>
			<point x="748" y="718" type="curve" smooth="yes"/>
			<point x="542" y="718" type="line"/>
			<point x="542" y="1202" type="line" smooth="yes"/>
			<point x="542" y="1264"/>
			<point x="542" y="1280"/>
			<point x="640" y="1280" type="curve" smooth="yes"/>
			<point x="940" y="1280" type="line" smooth="yes"/>
			<point x="1282" y="1280"/>
			<point x="1332" y="1166"/>
			<point x="1370" y="892" type="curve"/>
			<point x="1444" y="892" type="line"/>
		</contour>
	</outline>
</glyph>
<glyph name="G" format="2">
	<unicode hex="0047"/>
	<advance width="1882"/>
	<outline>
		<contour>
			<point x="974" y="-42" type="curve" smooth="yes"/>
			<point x="1045" y="-42"/>
			<point x="1155" y="-36"/>
			<point x="1253" y="-2" type="curve" smooth="yes"/>
			<point x="1321" y="22"/>
			<point x="1384" y="59"/>
			<point x="1424" y="116" type="curve"/>
			<point x="1464" y="58"/>
			<point x="1536" y="0"/>
			<point x="1554" y="0" type="curve" smooth="yes"/>
			<point x="1582" y="0"/>
			<point x="1582" y="26"/>
			<point x="1582" y="56" type="curve" smooth="yes"/>
			<point x="1582" y="168"/>
			<point x="1582" y="280"/>
			<point x="1582" y="392" type="curve" smooth="yes"/>
			<point x="1582" y="478"/>
			<point x="1602" y="478"/>
			<point x="1744" y="478" type="curve"/>
			<point x="1744" y="478"/>
			<point x="1744" y="478"/>
			<point x="1744" y="478" type="curve"/>
			<point x="1744" y="504"/>
			<point x="1744" y="530"/>
			<point x="1744" y="556" type="curve"/>
			<point x="1684" y="552"/>
			<point x="1562" y="548"/>
			<point x="1466" y="548" type="curve" smooth="yes"/>
			<point x="1360" y="548"/>
			<point x="1190" y="548"/>
			<point x="1090" y="556" type="curve"/>
			<point x="1090" y="530"/>
			<point x="1090" y="504"/>
			<point x="1090" y="478" type="curve"/>
			<point x="1119" y="478"/>
			<point x="1147" y="478"/>
			<point x="1176" y="478" type="curve" smooth="yes"/>
			<point x="1382" y="478"/>
			<point x="1382" y="452"/>
			<point x="1382" y="386" type="curve" smooth="yes"/>
			<point x="1382" y="344"/>
			<point x="1382" y="302"/>
			<point x="1382" y="260" type="curve" smooth="yes"/>
			<point x="1382" y="212"/>
			<point x="1382" y="136"/>
			<point x="1260" y="82" type="curve" smooth="yes"/>
			<point x="1160" y="36"/>
			<point x="1030" y="36"/>
			<point x="1010" y="36" type="curve" smooth="yes"/>
			<point x="859" y="36"/>
			<point x="682" y="85"/>
			<point x="555" y="211" type="curve" smooth="yes"/>
			<point x="451" y="313"/>
			<point x="380" y="466"/>
			<point x="380" y="684" type="curve" smooth="yes"/>
			<point x="380" y="904"/>
			<point x="451" y="1055"/>
			<point x="551" y="1156" type="curve" smooth="yes"/>
			<point x="679" y="1284"/>
			<point x="854" y="1330"/>
			<point x="990" y="1330" type="curve" smooth="yes"/>
			<point x="1336" y="1330"/>
			<point x="1490" y="1026"/>
			<point x="1504" y="852" type="curve" smooth="yes"/>
			<point x="1506" y="830"/>
			<point x="1534" y="830"/>
			<point x="1542" y="830" type="curve" smooth="yes"/>
			<point x="1582" y="830"/>
			<point x="1582" y="846"/>
			<point x="1582" y="886" type="curve" smooth="yes"/>
			<point x="1582" y="1041"/>
			<point x="1582" y="1196"/>
			<point x="1582" y="1352" type="curve" smooth="yes"/>
			<point x="1582" y="1386"/>
			<point x="1582" y="1408"/>
			<point x="1550" y="1408" type="curve" smooth="yes"/>
			<point x="1532" y="1408"/>
			<point x="1528" y="1400"/>
			<point x="1514" y="1382" type="curve" smooth="yes"/>
			<point x="1477" y="1331"/>
			<point x="1441" y="1281"/>
			<point x="1404" y="1230" type="curve"/>
			<point x="1286" y="1342"/>
			<point x="1140" y="1408"/>
			<point x="966" y="1408" type="curve" smooth="yes"/>
			<point x="518" y="1408"/>
			<point x="158" y="1080"/>
			<point x="158" y="684" type="curve" smooth="yes"/>
			<point x="158" y="296"/>
			<point x="504" y="-42"/>
		</contour>
	</outline>
</glyph>
<glyph name="H" format="2">
	<unicode hex="0048"/>
	<advance width="1792"/>
	<outline>
		<contour>
			<point x="130" y="0" type="line"/>
			<point x="158" y="2"/>
			<point x="358" y="8"/>
			<point x="442" y="8" type="curve" smooth="yes"/>
			<point x="526" y="8"/>
			<point x="722" y="2"/>
			<point x="754" y="0" type="curve"/>
			<point x="754" y="78" type="line"/>
			<point x="702" y="78" type="line" smooth="yes"/>
			<point x="542" y="78"/>
			<point x="542" y="102"/>
			<point x="542" y="168" type="curve" smooth="yes"/>
			<point x="542" y="672" type="line"/>
			<point x="1248" y="672" type="line"/>
			<point x="1248" y="168" type="line" smooth="yes"/>
			<point x="1248" y="102"/>
			<point x="1248" y="78"/>
			<point x="1088" y="78" type="curve" smooth="yes"/>
			<point x="1036" y="78" type="line"/>
			<point x="1036" y="0" type="line"/>
			<point x="1064" y="2"/>
			<point x="1264" y="8"/>
			<point x="1348" y="8" type="curve" smooth="yes"/>
			<point x="1432" y="8"/>
			<point x="1628" y="2"/>
			<point x="1660" y="0" type="curve"/>
			<point x="1660" y="78" type="line"/>
			<point x="1608" y="78" type="line" smooth="yes"/>
			<point x="1448" y="78"/>
			<point x="1448" y="102"/>
			<point x="1448" y="168" type="curve" smooth="yes"/>
			<point x="1448" y="1198" type="line" smooth="yes"/>
			<point x="1448" y="1264"/>
			<point x="1448" y="1288"/>
			<point x="1608" y="1288" type="curve" smooth="yes"/>
			<point x="1660" y="1288" type="line"/>
			<point x="1660" y="1366" type="line"/>
			<point x="1632" y="1364"/>
			<point x="1432" y="1358"/>
			<point x="1348" y="1358" type="curve" smooth="yes"/>
			<point x="1264" y="1358"/>
			<point x="1068" y="1364"/>
			<point x="1036" y="1366" type="curve"/>
			<point x="1036" y="1288" type="line"/>
			<point x="1088" y="1288" type="line" smooth="yes"/>
			<point x="1248" y="1288"/>
			<point x="1248" y="1264"/>
			<point x="1248" y="1198" type="curve" smooth="yes"/>
			<point x="1248" y="750" type="line"/>
			<point x="542" y="750" type="line"/>
			<point x="542" y="1198" type="line" smooth="yes"/>
			<point x="542" y="1264"/>
			<point x="542" y="1288"/>
			<point x="702" y="1288" type="curve" smooth="yes"/>
			<point x="754" y="1288" type="line"/>
			<point x="754" y="1366" type="line"/>
			<point x="726" y="1364"/>
			<point x="526" y="1358"/>
			<point x="442" y="1358" type="curve" smooth="yes"/>
			<point x="358" y="1358"/>
			<point x="162" y="1364"/>
			<point x="130" y="1366" type="curve"/>
			<point x="130" y="1288" type="line"/>
			<point x="182" y="1288" type="line" smooth="yes"/>
			<point x="342" y="1288"/>
			<point x="342" y="1264"/>
			<point x="342" y="1198" type="curve" smooth="yes"/>
			<point x="342" y="168" type="line" smooth="yes"/>
			<point x="342" y="102"/>
			<point x="342" y="78"/>
			<point x="182" y="78" type="curve" smooth="yes"/>
			<point x="130" y="78" type="line"/>
		</contour>
	</outline>
</glyph>
<glyph name="I" format="2">
	<unicode hex="0049"/>
	<advance width="884"/>
	<outline>
		<contour>
			<point x="118" y="0" type="line"/>
			<point x="172" y="2"/>
			<point x="342" y="8"/>
			<point x="442" y="8" type="curve" smooth="yes"/>
			<point x="542" y="8"/>
			<point x="710" y="2"/>
			<point x="766" y="0" type="curve"/>
			<point x="766" y="78" type="line"/>
			<point x="708" y="78" type="line" smooth="yes"/>
			<point x="542" y="78"/>
			<point x="542" y="102"/>
			<point x="542" y="168" type="curve" smooth="yes"/>
			<point x="542" y="1198" type="line" smooth="yes"/>
			<point x="542" y="1264"/>
			<point x="542" y="1288"/>
			<point x="708" y="1288" type="curve" smooth="yes"/>
			<point x="766" y="1288" type="line"/>
			<point x="766" y="1366" type="line"/>
			<point x="712" y="1364"/>
			<point x="542" y="1358"/>
			<point x="442" y="1358" type="curve" smooth="yes"/>
			<point x="342" y="1358"/>
			<point x="174" y="1364"/>
			<point x="118" y="1366" type="curve"/>
			<point x="118" y="1288" type="line"/>
			<point x="176" y="1288" type="line" smooth="yes"/>
			<point x="342" y="1288"/>
			<point x="342" y="1264"/>
			<point x="342" y="1198" type="curve" smooth="yes"/>
			<point x="342" y="168" type="line" smooth="yes"/>
			<point x="342" y="102"/>
			<point x="342" y="78"/>
			<point x="176" y="78" type="curve" smooth="yes"/>
			<point x="118" y="78" type="line"/>
		</contour>
	</outline>
</glyph>
<glyph name="J" format="2">
	<unicode hex="004A"/>
	<advance width="1248"/>
	<outline>
		<contour>
			<point x="516" y="-42" type="curve" smooth="yes"/>
			<point x="724" y="-42"/>
			<point x="932" y="82"/>
			<point x="932" y="298" type="curve" smooth="yes"/>
			<point x="932" y="1202" type="line" smooth="yes"/>
			<point x="932" y="1288"/>
			<point x="952" y="1288"/>
			<point x="1092" y="1288" type="curve"/>
			<point x="1092" y="1288" type="line"/>
			<point x="1092" y="1366" type="line"/>
			<point x="1020" y="1362"/>
			<point x="880" y="1358"/>
			<point x="822" y="1358" type="curve" smooth="yes"/>
			<point x="716" y="1358"/>
			<point x="568" y="1360"/>
			<point x="464" y="1366" type="curve"/>
			<point x="464" y="1288" type="line"/>
			<point x="542" y="1288" type="line" smooth="yes"/>
			<point x="740" y="1288"/>
			<point x="740" y="1262"/>
			<point x="740" y="1198" type="curve" smooth="yes"/>
			<point x="740" y="300" type="line" smooth="yes"/>
			<point x="740" y="112"/>
			<point x="620" y="22"/>
			<point x="512" y="22" type="curve" smooth="yes"/>
			<point x="482" y="22"/>
			<point x="362" y="26"/>
			<point x="278" y="114" type="curve"/>
			<point x="358" y="122"/>
			<point x="384" y="182"/>
			<point x="384" y="228" type="curve" smooth="yes"/>
			<point x="384" y="304"/>
			<point x="324" y="342"/>
			<point x="270" y="342" type="curve" smooth="yes"/>
			<point x="230" y="342"/>
			<point x="156" y="316"/>
			<point x="156" y="224" type="curve" smooth="yes"/>
			<point x="156" y="72"/>
			<point x="314" y="-42"/>
		</contour>
	</outline>
</glyph>
<glyph name="K" format="2">
	<unicode hex="004B"/>
	<advance width="1856"/>
	<outline>
		<contour>
			<point x="130" y="0" type="line"/>
			<point x="158" y="2"/>
			<point x="358" y="8"/>
			<point x="442" y="8" type="curve" smooth="yes"/>
			<point x="526" y="8"/>
			<point x="722" y="2"/>
			<point x="754" y="0" type="curve"/>
			<point x="754" y="78" type="line"/>
			<point x="702" y="78" type="line" smooth="yes"/>
			<point x="542" y="78"/>
			<point x="542" y="102"/>
			<point x="542" y="168" type="curve" smooth="yes"/>
			<point x="542" y="488" type="line"/>
			<point x="826" y="718" type="line"/>
			<point x="1252" y="192" type="line" smooth="yes"/>
			<point x="1268" y="172"/>
			<point x="1284" y="152"/>
			<point x="1284" y="130" type="curve" smooth="yes"/>
			<point x="1284" y="78"/>
			<point x="1218" y="78"/>
			<point x="1178" y="78" type="curve"/>
			<point x="1178" y="0" type="line"/>
			<point x="1224" y="2"/>
			<point x="1410" y="8"/>
			<point x="1486" y="8" type="curve" smooth="yes"/>
			<point x="1532" y="8"/>
			<point x="1668" y="4"/>
			<point x="1730" y="0" type="curve"/>
			<point x="1730" y="78" type="line"/>
			<point x="1624" y="78"/>
			<point x="1572" y="82"/>
			<point x="1502" y="168" type="curve" smooth="yes"/>
			<point x="964" y="830" type="line"/>
			<point x="1392" y="1174" type="line" smooth="yes"/>
			<point x="1528" y="1282"/>
			<point x="1648" y="1288"/>
			<point x="1698" y="1288" type="curve"/>
			<point x="1698" y="1366" type="line"/>
			<point x="1668" y="1364"/>
			<point x="1592" y="1358"/>
			<point x="1514" y="1358" type="curve" smooth="yes"/>
			<point x="1430" y="1358"/>
			<point x="1272" y="1364"/>
			<point x="1234" y="1366" type="curve"/>
			<point x="1234" y="1288" type="line"/>
			<point x="1264" y="1288"/>
			<point x="1306" y="1276"/>
			<point x="1306" y="1234" type="curve" smooth="yes"/>
			<point x="1306" y="1202"/>
			<point x="1276" y="1178"/>
			<point x="1262" y="1166" type="curve" smooth="yes"/>
			<point x="542" y="584" type="line"/>
			<point x="542" y="1198" type="line" smooth="yes"/>
			<point x="542" y="1264"/>
			<point x="542" y="1288"/>
			<point x="702" y="1288" type="curve" smooth="yes"/>
			<point x="754" y="1288" type="line"/>
			<point x="754" y="1366" type="line"/>
			<point x="726" y="1364"/>
			<point x="526" y="1358"/>
			<point x="442" y="1358" type="curve" smooth="yes"/>
			<point x="358" y="1358"/>
			<point x="162" y="1364"/>
			<point x="130" y="1366" type="curve"/>
			<point x="130" y="1288" type="line"/>
			<point x="182" y="1288" type="line" smooth="yes"/>
			<point x="342" y="1288"/>
			<point x="342" y="1264"/>
			<point x="342" y="1198" type="curve" smooth="yes"/>
			<point x="342" y="168" type="line" smooth="yes"/>
			<point x="342" y="102"/>
			<point x="342" y="78"/>
			<point x="182" y="78" type="curve" smooth="yes"/>
			<point x="130" y="78" type="line"/>
		</contour>
	</outline>
</glyph>
<glyph name="L" format="2">
	<unicode hex="004C"/>
	<advance width="753"/>
	<outline>
		<contour>
			<point x="690" y="266" type="line"/>
			<point x="653" y="266" type="line"/>
			<point x="641" y="145"/>
			<point x="610" y="39"/>
			<point x="429" y="39" type="curve" smooth="yes"/>
			<point x="320" y="39" type="line" smooth="yes"/>
			<point x="271" y="39"/>
			<point x="271" y="47"/>
			<point x="271" y="78" type="curve" smooth="yes"/>
			<point x="271" y="599" type="line" smooth="yes"/>
			<point x="271" y="632"/>
			<point x="271" y="644"/>
			<point x="367" y="644" type="curve" smooth="yes"/>
			<point x="404" y="644" type="line"/>
			<point x="404" y="683" type="line"/>
			<point x="351" y="679"/>
			<point x="278" y="679"/>
			<point x="224" y="679" type="curve" smooth="yes"/>
			<point x="179" y="679"/>
			<point x="89" y="682"/>
			<point x="65" y="683" type="curve"/>
			<point x="65" y="644" type="line"/>
			<point x="91" y="644" type="line" smooth="yes"/>
			<point x="171" y="644"/>
			<point x="171" y="632"/>
			<point x="171" y="599" type="curve" smooth="yes"/>
			<point x="171" y="84" type="line" smooth="yes"/>
			<point x="171" y="51"/>
			<point x="171" y="39"/>
			<point x="91" y="39" type="curve" smooth="yes"/>
			<point x="65" y="39" type="line"/>
			<point x="65" y="0" type="line"/>
			<point x="659" y="0" type="line"/>
		</contour>
	</outline>
</glyph>
<glyph name="M" format="2">
	<unicode hex="004D"/>
	<advance width="2180"/>
	<outline>
		<contour>
			<point x="1090" y="190" type="line"/>
			<point x="586" y="1320" type="line" smooth="yes"/>
			<point x="566" y="1366"/>
			<point x="548" y="1366"/>
			<point x="504" y="1366" type="curve" smooth="yes"/>
			<point x="142" y="1366" type="line"/>
			<point x="142" y="1288" type="line"/>
			<point x="194" y="1288" type="line" smooth="yes"/>
			<point x="354" y="1288"/>
			<point x="354" y="1264"/>
			<point x="354" y="1198" type="curve" smooth="yes"/>
			<point x="354" y="220" type="line" smooth="yes"/>
			<point x="354" y="168"/>
			<point x="354" y="78"/>
			<point x="142" y="78" type="curve"/>
			<point x="142" y="78" type="line"/>
			<point x="142" y="0" type="line"/>
			<point x="180" y="2"/>
			<point x="310" y="8"/>
			<point x="394" y="8" type="curve" smooth="yes"/>
			<point x="486" y="8"/>
			<point x="612" y="2"/>
			<point x="648" y="0" type="curve"/>
			<point x="648" y="78" type="line"/>
			<point x="648" y="78" type="line"/>
			<point x="436" y="78"/>
			<point x="436" y="168"/>
			<point x="436" y="220" type="curve" smooth="yes"/>
			<point x="436" y="1270" type="line"/>
			<point x="438" y="1270" type="line"/>
			<point x="984" y="46" type="line"/>
			<point x="990" y="30"/>
			<point x="1004" y="0"/>
			<point x="1038" y="0" type="curve" smooth="yes"/>
			<point x="1072" y="0"/>
			<point x="1086" y="32"/>
			<point x="1092" y="46" type="curve" smooth="yes"/>
			<point x="1646" y="1288" type="line"/>
			<point x="1648" y="1288" type="line"/>
			<point x="1648" y="168" type="line" smooth="yes"/>
			<point x="1648" y="102"/>
			<point x="1648" y="78"/>
			<point x="1488" y="78" type="curve" smooth="yes"/>
			<point x="1436" y="78" type="line"/>
			<point x="1436" y="0" type="line"/>
			<point x="1476" y="2"/>
			<point x="1644" y="8"/>
			<point x="1736" y="8" type="curve" smooth="yes"/>
			<point x="1830" y="8"/>
			<point x="1996" y="2"/>
			<point x="2038" y="0" type="curve"/>
			<point x="2038" y="78" type="line"/>
			<point x="1986" y="78" type="line" smooth="yes"/>
			<point x="1826" y="78"/>
			<point x="1826" y="102"/>
			<point x="1826" y="168" type="curve" smooth="yes"/>
			<point x="1826" y="1198" type="line" smooth="yes"/>
			<point x="1826" y="1264"/>
			<point x="1826" y="1288"/>
			<point x="1986" y="1288" type="curve" smooth="yes"/>
			<point x="2038" y="1288" type="line"/>
			<point x="2038" y="1366" type="line"/>
			<point x="1676" y="1366" type="line" smooth="yes"/>
			<point x="1632" y="1366"/>
			<point x="1614" y="1366"/>
			<point x="1594" y="1320" type="curve" smooth="yes"/>
		</contour>
	</outline>
</glyph>
<glyph name="N" format="2">
	<unicode hex="004E"/>
	<advance width="1792"/>
	<outline>
		<contour>
			<point x="1366" y="308" type="line"/>
			<point x="556" y="1338" type="line" smooth="yes"/>
			<point x="534" y="1364"/>
			<point x="532" y="1366"/>
			<point x="490" y="1366" type="curve" smooth="yes"/>
			<point x="130" y="1366" type="line"/>
			<point x="130" y="1288" type="line"/>
			<point x="194" y="1288" type="line" smooth="yes"/>
			<point x="240" y="1288"/>
			<point x="290" y="1288"/>
			<point x="328" y="1278" type="curve"/>
			<point x="340" y="1276"/>
			<point x="342" y="1274"/>
			<point x="342" y="1240" type="curve" smooth="yes"/>
			<point x="342" y="220" type="line" smooth="yes"/>
			<point x="342" y="168"/>
			<point x="342" y="78"/>
			<point x="130" y="78" type="curve"/>
			<point x="130" y="78" type="line"/>
			<point x="130" y="0" type="line"/>
			<point x="168" y="2"/>
			<point x="298" y="8"/>
			<point x="382" y="8" type="curve" smooth="yes"/>
			<point x="474" y="8"/>
			<point x="600" y="2"/>
			<point x="636" y="0" type="curve"/>
			<point x="636" y="78" type="line"/>
			<point x="636" y="78" type="line"/>
			<point x="424" y="78"/>
			<point x="424" y="168"/>
			<point x="424" y="220" type="curve" smooth="yes"/>
			<point x="424" y="1218" type="line"/>
			<point x="424" y="1218"/>
			<point x="424" y="1218"/>
			<point x="424" y="1218" type="curve"/>
			<point x="1364" y="24" type="line" smooth="yes"/>
			<point x="1380" y="4"/>
			<point x="1382" y="0"/>
			<point x="1406" y="0" type="curve" smooth="yes"/>
			<point x="1448" y="0"/>
			<point x="1448" y="20"/>
			<point x="1448" y="60" type="curve" smooth="yes"/>
			<point x="1448" y="1146" type="line" smooth="yes"/>
			<point x="1448" y="1198"/>
			<point x="1448" y="1288"/>
			<point x="1660" y="1288" type="curve"/>
			<point x="1660" y="1288" type="line"/>
			<point x="1660" y="1366" type="line"/>
			<point x="1622" y="1364"/>
			<point x="1492" y="1358"/>
			<point x="1408" y="1358" type="curve" smooth="yes"/>
			<point x="1316" y="1358"/>
			<point x="1190" y="1364"/>
			<point x="1154" y="1366" type="curve"/>
			<point x="1154" y="1288" type="line"/>
			<point x="1154" y="1288" type="line"/>
			<point x="1366" y="1288"/>
			<point x="1366" y="1198"/>
			<point x="1366" y="1146" type="curve" smooth="yes"/>
		</contour>
	</outline>
</glyph>
<glyph name="O" format="2">
	<unicode hex="004F"/>
	<advance width="935"/>
	<outline>
		<contour>
			<point x="855" y="339" type="curve" smooth="yes"/>
			<point x="855" y="536"/>
			<point x="685" y="704"/>
			<point x="467" y="704" type="curve" smooth="yes"/>
			<point x="249" y="704"/>
			<point x="79" y="536"/>
			<point x="79" y="339" type="curve" smooth="yes"/>
			<point x="79" y="141"/>
			<point x="251" y="-21"/>
			<point x="467" y="-21" type="curve" smooth="yes"/>
			<point x="683" y="-21"/>
			<point x="855" y="141"/>
		</contour>
		<contour>
			<point x="467" y="16" type="curve" smooth="yes"/>
			<point x="403" y="16"/>
			<point x="334.7507818484" y="40.2163282636"/>
			<point x="281.8582827436" y="93.6091199114" type="curve" smooth="yes"/>
			<point x="227.8065077072" y="148.172152696"/>
			<point x="190" y="233.20462"/>
			<point x="190" y="354" type="curve" smooth="yes"/>
			<point x="190" y="462"/>
			<point x="224.58016294" y="538.4416421932"/>
			<point x="274.5913270728" y="589.3197760211" type="curve" smooth="yes"/>
			<point x="328.7397083492" y="644.4068478164"/>
			<point x="401" y="669"/>
			<point x="467" y="669" type="curve" smooth="yes"/>
			<point x="532.15584" y="669"/>
			<point x="602.7530223589" y="645.1617382372"/>
			<point x="656.3693039738" y="592.3412883527" type="curve" smooth="yes"/>
			<point x="708.0833204059" y="541.3948681421"/>
			<point x="744" y="463"/>
			<point x="744" y="354" type="curve" smooth="yes"/>
			<point x="744" y="232.34183"/>
			<point x="705.6514919468" y="146.959275726"/>
			<point x="650.9810323003" y="92.4446197238" type="curve" smooth="yes"/>
			<point x="598.2502392771" y="39.8641025491"/>
			<point x="530.33513" y="16"/>
		</contour>
	</outline>
</glyph>
<glyph name="P" format="2">
	<unicode hex="0050"/>
	<advance width="1636"/>
	<outline>
		<contour>
			<point x="546" y="614" type="line"/>
			<point x="952" y="614" type="line" smooth="yes"/>
			<point x="1210" y="614"/>
			<point x="1478" y="770"/>
			<point x="1478" y="986" type="curve" smooth="yes"/>
			<point x="1478" y="1194"/>
			<point x="1232" y="1366"/>
			<point x="934" y="1366" type="curve" smooth="yes"/>
			<point x="134" y="1366" type="line"/>
			<point x="134" y="1288" type="line"/>
			<point x="186" y="1288" type="line" smooth="yes"/>
			<point x="346" y="1288"/>
			<point x="346" y="1264"/>
			<point x="346" y="1198" type="curve" smooth="yes"/>
			<point x="346" y="168" type="line" smooth="yes"/>
			<point x="346" y="102"/>
			<point x="346" y="78"/>
			<point x="186" y="78" type="curve" smooth="yes"/>
			<point x="134" y="78" type="line"/>
			<point x="134" y="0" type="line"/>
			<point x="162" y="2"/>
			<point x="362" y="8"/>
			<point x="446" y="8" type="curve" smooth="yes"/>
			<point x="530" y="8"/>
			<point x="726" y="2"/>
			<point x="758" y="0" type="curve"/>
			<point x="758" y="78" type="line"/>
			<point x="706" y="78" type="line" smooth="yes"/>
			<point x="546" y="78"/>
			<point x="546" y="102"/>
			<point x="546" y="168" type="curve" smooth="yes"/>
		</contour>
		<contour>
			<point x="538" y="684" type="line"/>
			<point x="538" y="1210" type="line" smooth="yes"/>
			<point x="538" y="1272"/>
			<point x="538" y="1288"/>
			<point x="636" y="1288" type="curve" smooth="yes"/>
			<point x="884" y="1288" type="line" smooth="yes"/>
			<point x="1198" y="1288"/>
			<point x="1256" y="1140"/>
			<point x="1256" y="986" type="curve" smooth="yes"/>
			<point x="1256" y="864"/>
			<point x="1226" y="684"/>
			<point x="884" y="684" type="curve" smooth="yes"/>
		</contour>
	</outline>
</glyph>
<glyph name="Q" format="2">
	<unicode hex="0051"/>
	<advance width="1870"/>
	<outline>
		<contour>
			<point x="1242" y="16" type="curve"/>
			<point x="1534" y="136"/>
			<point x="1710" y="398"/>
			<point x="1710" y="678" type="curve" smooth="yes"/>
			<point x="1710" y="1072"/>
			<point x="1370" y="1408"/>
			<point x="934" y="1408" type="curve" smooth="yes"/>
			<point x="498" y="1408"/>
			<point x="158" y="1072"/>
			<point x="158" y="678" type="curve" smooth="yes"/>
			<point x="158" y="282"/>
			<point x="502" y="-42"/>
			<point x="934" y="-42" type="curve" smooth="yes"/>
			<point x="962" y="-42"/>
			<point x="1036" y="-42"/>
			<point x="1146" y="-16" type="curve"/>
			<point x="1208" y="-234"/>
			<point x="1252" y="-388"/>
			<point x="1438" y="-388" type="curve" smooth="yes"/>
			<point x="1642" y="-388"/>
			<point x="1722" y="-158"/>
			<point x="1722" y="-16" type="curve" smooth="yes"/>
			<point x="1722" y="0"/>
			<point x="1722" y="32"/>
			<point x="1690" y="32" type="curve" smooth="yes"/>
			<point x="1662" y="32"/>
			<point x="1660" y="8"/>
			<point x="1658" y="-10" type="curve" smooth="yes"/>
			<point x="1646" y="-118"/>
			<point x="1540" y="-166"/>
			<point x="1454" y="-166" type="curve" smooth="yes"/>
			<point x="1358" y="-166"/>
			<point x="1304" y="-104"/>
		</contour>
		<contour>
			<point x="758" y="58" type="curve"/>
			<point x="542" y="130"/>
			<point x="372" y="336"/>
			<point x="372" y="678" type="curve" smooth="yes"/>
			<point x="372" y="907"/>
			<point x="446" y="1072"/>
			<point x="553" y="1180" type="curve" smooth="yes"/>
			<point x="660" y="1287"/>
			<point x="800" y="1338"/>
			<point x="934" y="1338" type="curve" smooth="yes"/>
			<point x="1068" y="1338"/>
			<point x="1206" y="1288"/>
			<point x="1313" y="1182" type="curve" smooth="yes"/>
			<point x="1421" y="1074"/>
			<point x="1496" y="907"/>
			<point x="1496" y="678" type="curve" smooth="yes"/>
			<point x="1496" y="334"/>
			<point x="1328" y="166"/>
			<point x="1198" y="96" type="curve"/>
			<point x="1150" y="186"/>
			<point x="1078" y="306"/>
			<point x="936" y="306" type="curve" smooth="yes"/>
			<point x="822" y="306"/>
			<point x="740" y="226"/>
			<point x="740" y="134" type="curve" smooth="yes"/>
			<point x="740" y="90"/>
			<point x="746" y="78"/>
		</contour>
		<contour>
			<point x="1122" y="60" type="curve"/>
			<point x="1118" y="58"/>
			<point x="1034" y="28"/>
			<point x="934" y="28" type="curve" smooth="yes"/>
			<point x="826" y="28"/>
			<point x="804" y="102"/>
			<point x="804" y="134" type="curve" smooth="yes"/>
			<point x="804" y="194"/>
			<point x="862" y="242"/>
			<point x="936" y="242" type="curve" smooth="yes"/>
			<point x="1036" y="242"/>
			<point x="1086" y="170"/>
		</contour>
	</outline>
</glyph>
<glyph name="R" format="2">
	<unicode hex="0052"/>
	<advance width="1766"/>
	<outline>
		<contour>
			<point x="1086" y="682" type="curve"/>
			<point x="1268" y="732"/>
			<point x="1444" y="844"/>
			<point x="1444" y="1002" type="curve" smooth="yes"/>
			<point x="1444" y="1208"/>
			<point x="1158" y="1366"/>
			<point x="842" y="1366" type="curve" smooth="yes"/>
			<point x="134" y="1366" type="line"/>
			<point x="134" y="1288" type="line"/>
			<point x="186" y="1288" type="line" smooth="yes"/>
			<point x="346" y="1288"/>
			<point x="346" y="1264"/>
			<point x="346" y="1198" type="curve" smooth="yes"/>
			<point x="346" y="168" type="line" smooth="yes"/>
			<point x="346" y="102"/>
			<point x="346" y="78"/>
			<point x="186" y="78" type="curve" smooth="yes"/>
			<point x="134" y="78" type="line"/>
			<point x="134" y="0" type="line"/>
			<point x="164" y="2"/>
			<point x="362" y="8"/>
			<point x="442" y="8" type="curve" smooth="yes"/>
			<point x="522" y="8"/>
			<point x="698" y="2"/>
			<point x="750" y="0" type="curve"/>
			<point x="750" y="78" type="line"/>
			<point x="698" y="78" type="line" smooth="yes"/>
			<point x="538" y="78"/>
			<point x="538" y="102"/>
			<point x="538" y="168" type="curve" smooth="yes"/>
			<point x="538" y="652" type="line"/>
			<point x="822" y="652" type="line" smooth="yes"/>
			<point x="928" y="652"/>
			<point x="1010" y="620"/>
			<point x="1062" y="576" type="curve" smooth="yes"/>
			<point x="1136" y="512"/>
			<point x="1136" y="468"/>
			<point x="1136" y="326" type="curve" smooth="yes"/>
			<point x="1136" y="192"/>
			<point x="1136" y="110"/>
			<point x="1246" y="26" type="curve" smooth="yes"/>
			<point x="1296" y="-10"/>
			<point x="1394" y="-42"/>
			<point x="1502" y="-42" type="curve" smooth="yes"/>
			<point x="1674" y="-42"/>
			<point x="1730" y="110"/>
			<point x="1730" y="186" type="curve" smooth="yes"/>
			<point x="1730" y="198"/>
			<point x="1730" y="228"/>
			<point x="1692" y="228" type="curve" smooth="yes"/>
			<point x="1660" y="228"/>
			<point x="1658" y="204"/>
			<point x="1656" y="184" type="curve" smooth="yes"/>
			<point x="1648" y="88"/>
			<point x="1588" y="22"/>
			<point x="1510" y="22" type="curve" smooth="yes"/>
			<point x="1398" y="22"/>
			<point x="1372" y="140"/>
			<point x="1356" y="268" type="curve" smooth="yes"/>
			<point x="1350" y="322"/>
			<point x="1338" y="416"/>
			<point x="1336" y="430" type="curve" smooth="yes"/>
			<point x="1314" y="586"/>
			<point x="1186" y="650"/>
		</contour>
		<contour>
			<point x="538" y="716" type="line"/>
			<point x="538" y="1210" type="line" smooth="yes"/>
			<point x="538" y="1266"/>
			<point x="542" y="1280"/>
			<point x="592" y="1286" type="curve" smooth="yes"/>
			<point x="608" y="1288"/>
			<point x="684" y="1288"/>
			<point x="730" y="1288" type="curve" smooth="yes"/>
			<point x="936" y="1288"/>
			<point x="1222" y="1288"/>
			<point x="1222" y="1002" type="curve" smooth="yes"/>
			<point x="1222" y="784"/>
			<point x="1042" y="716"/>
			<point x="818" y="716" type="curve" smooth="yes"/>
		</contour>
	</outline>
</glyph>
<glyph name="S" format="2">
	<unicode hex="0053"/>
	<advance width="1350"/>
	<outline>
		<contour>
			<point x="1064" y="318" type="curve" smooth="yes"/>
			<point x="1064" y="180"/>
			<point x="940" y="36"/>
			<point x="732" y="36" type="curve" smooth="yes"/>
			<point x="560" y="36"/>
			<point x="248" y="88"/>
			<point x="232" y="408" type="curve" smooth="yes"/>
			<point x="230" y="438"/>
			<point x="230" y="454"/>
			<point x="196" y="454" type="curve" smooth="yes"/>
			<point x="158" y="454"/>
			<point x="158" y="436"/>
			<point x="158" y="396" type="curve" smooth="yes"/>
			<point x="158" y="14" type="line" smooth="yes"/>
			<point x="158" y="-20"/>
			<point x="158" y="-42"/>
			<point x="190" y="-42" type="curve" smooth="yes"/>
			<point x="208" y="-42"/>
			<point x="212" y="-34"/>
			<point x="222" y="-18" type="curve" smooth="yes"/>
			<point x="247" y="19"/>
			<point x="273" y="57"/>
			<point x="298" y="94" type="curve"/>
			<point x="444" y="-28"/>
			<point x="638" y="-42"/>
			<point x="732" y="-42" type="curve" smooth="yes"/>
			<point x="1010" y="-42"/>
			<point x="1192" y="156"/>
			<point x="1192" y="368" type="curve" smooth="yes"/>
			<point x="1192" y="508"/>
			<point x="1114" y="604"/>
			<point x="1084" y="634" type="curve" smooth="yes"/>
			<point x="982" y="736"/>
			<point x="922" y="748"/>
			<point x="674" y="800" type="curve" smooth="yes"/>
			<point x="612" y="814"/>
			<point x="510" y="836"/>
			<point x="486" y="842" type="curve"/>
			<point x="382" y="876"/>
			<point x="286" y="964"/>
			<point x="286" y="1078" type="curve" smooth="yes"/>
			<point x="286" y="1212"/>
			<point x="418" y="1336"/>
			<point x="614" y="1336" type="curve" smooth="yes"/>
			<point x="880" y="1336"/>
			<point x="1026" y="1168"/>
			<point x="1052" y="956" type="curve" smooth="yes"/>
			<point x="1056" y="926"/>
			<point x="1058" y="912"/>
			<point x="1090" y="912" type="curve" smooth="yes"/>
			<point x="1128" y="912"/>
			<point x="1128" y="930"/>
			<point x="1128" y="968" type="curve" smooth="yes"/>
			<point x="1128" y="1352" type="line" smooth="yes"/>
			<point x="1128" y="1386"/>
			<point x="1128" y="1408"/>
			<point x="1096" y="1408" type="curve" smooth="yes"/>
			<point x="1088" y="1408"/>
			<point x="1076" y="1408"/>
			<point x="1060" y="1382" type="curve" smooth="yes"/>
			<point x="1035" y="1344"/>
			<point x="1011" y="1306"/>
			<point x="986" y="1268" type="curve"/>
			<point x="872" y="1380"/>
			<point x="728" y="1408"/>
			<point x="612" y="1408" type="curve" smooth="yes"/>
			<point x="352" y="1408"/>
			<point x="158" y="1232"/>
			<point x="158" y="1026" type="curve" smooth="yes"/>
			<point x="158" y="922"/>
			<point x="206" y="834"/>
			<point x="278" y="766" type="curve" smooth="yes"/>
			<point x="368" y="684"/>
			<point x="436" y="670"/>
			<point x="660" y="624" type="curve" smooth="yes"/>
			<point x="866" y="580"/>
			<point x="912" y="570"/>
			<point x="974" y="512" type="curve" smooth="yes"/>
			<point x="998" y="488"/>
			<point x="1064" y="424"/>
		</contour>
	</outline>
</glyph>
<glyph name="T" format="2">
	<unicode hex="0054"/>
	<advance width="1740"/>
	<outline>
		<contour>
			<point x="1582" y="1352" type="line"/>
			<point x="156" y="1352" type="line"/>
			<point x="112" y="886" type="line"/>
			<point x="186" y="886" type="line"/>
			<point x="216" y="1248"/>
			<point x="294" y="1274"/>
			<point x="596" y="1274" type="curve" smooth="yes"/>
			<point x="638" y="1274"/>
			<point x="704" y="1274"/>
			<point x="724" y="1272" type="curve"/>
			<point x="770" y="1264"/>
			<point x="770" y="1244"/>
			<point x="770" y="1196" type="curve" smooth="yes"/>
			<point x="770" y="170" type="line" smooth="yes"/>
			<point x="770" y="104"/>
			<point x="770" y="78"/>
			<point x="558" y="78" type="curve" smooth="yes"/>
			<point x="468" y="78" type="line"/>
			<point x="468" y="0" type="line"/>
			<point x="566" y="8"/>
			<point x="764" y="8"/>
			<point x="870" y="8" type="curve" smooth="yes"/>
			<point x="976" y="8"/>
			<point x="1174" y="8"/>
			<point x="1272" y="0" type="curve"/>
			<point x="1272" y="78" type="line"/>
			<point x="1182" y="78" type="line" smooth="yes"/>
			<point x="970" y="78"/>
			<point x="970" y="104"/>
			<point x="970" y="170" type="curve" smooth="yes"/>
			<point x="970" y="1196" type="line" smooth="yes"/>
			<point x="970" y="1244"/>
			<point x="970" y="1264"/>
			<point x="1014" y="1272" type="curve"/>
			<point x="1034" y="1274"/>
			<point x="1100" y="1274"/>
			<point x="1142" y="1274" type="curve" smooth="yes"/>
			<point x="1446" y="1274"/>
			<point x="1522" y="1246"/>
			<point x="1552" y="886" type="curve"/>
			<point x="1626" y="886" type="line"/>
		</contour>
	</outline>
</glyph>
<glyph name="U" format="2">
	<unicode hex="0055"/>
	<advance width="1792"/>
	<outline>
		<contour>
			<point x="928" y="36" type="curve" smooth="yes"/>
			<point x="788" y="36"/>
			<point x="542" y="108"/>
			<point x="542" y="456" type="curve" smooth="yes"/>
			<point x="542" y="1198" type="line" smooth="yes"/>
			<point x="542" y="1264"/>
			<point x="542" y="1288"/>
			<point x="702" y="1288" type="curve" smooth="yes"/>
			<point x="754" y="1288" type="line"/>
			<point x="754" y="1366" type="line"/>
			<point x="726" y="1364"/>
			<point x="526" y="1358"/>
			<point x="442" y="1358" type="curve" smooth="yes"/>
			<point x="358" y="1358"/>
			<point x="162" y="1364"/>
			<point x="130" y="1366" type="curve"/>
			<point x="130" y="1288" type="line"/>
			<point x="182" y="1288" type="line" smooth="yes"/>
			<point x="342" y="1288"/>
			<point x="342" y="1264"/>
			<point x="342" y="1198" type="curve" smooth="yes"/>
			<point x="342" y="460" type="line" smooth="yes"/>
			<point x="342" y="172"/>
			<point x="614" y="-42"/>
			<point x="922" y="-42" type="curve" smooth="yes"/>
			<point x="1222" y="-42"/>
			<point x="1448" y="186"/>
			<point x="1448" y="458" type="curve" smooth="yes"/>
			<point x="1448" y="1146" type="line" smooth="yes"/>
			<point x="1448" y="1198"/>
			<point x="1448" y="1288"/>
			<point x="1660" y="1288" type="curve"/>
			<point x="1660" y="1288" type="line"/>
			<point x="1660" y="1366" type="line"/>
			<point x="1620" y="1364"/>
			<point x="1484" y="1358"/>
			<point x="1410" y="1358" type="curve" smooth="yes"/>
			<point x="1336" y="1358"/>
			<point x="1202" y="1362"/>
			<point x="1158" y="1366" type="curve"/>
			<point x="1158" y="1288" type="line"/>
			<point x="1158" y="1288" type="line"/>
			<point x="1370" y="1288"/>
			<point x="1370" y="1198"/>
			<point x="1370" y="1146" type="curve" smooth="yes"/>
			<point x="1370" y="464" type="line" smooth="yes"/>
			<point x="1370" y="194"/>
			<point x="1150" y="36"/>
		</contour>
	</outline>
</glyph>
<glyph name="V" format="2">
	<unicode hex="0056"/>
	<advance width="1792"/>
	<outline>
		<contour>
			<point x="896" y="-42" type="curve" smooth="yes"/>
			<point x="932" y="-42"/>
			<point x="946" y="-26"/>
			<point x="958" y="2" type="curve" smooth="yes"/>
			<point x="1478" y="1162" type="line" smooth="yes"/>
			<point x="1524" y="1262"/>
			<point x="1616" y="1288"/>
			<point x="1712" y="1288" type="curve"/>
			<point x="1712" y="1288" type="line"/>
			<point x="1712" y="1366" type="line"/>
			<point x="1644" y="1360"/>
			<point x="1574" y="1358"/>
			<point x="1506" y="1358" type="curve" smooth="yes"/>
			<point x="1422" y="1358"/>
			<point x="1286" y="1364"/>
			<point x="1260" y="1366" type="curve"/>
			<point x="1260" y="1288" type="line"/>
			<point x="1356" y="1288"/>
			<point x="1402" y="1244"/>
			<point x="1402" y="1196" type="curve" smooth="yes"/>
			<point x="1402" y="1182"/>
			<point x="1396" y="1170"/>
			<point x="1390" y="1156" type="curve" smooth="yes"/>
			<point x="958" y="194" type="line"/>
			<point x="506" y="1200" type="line" smooth="yes"/>
			<point x="494" y="1224"/>
			<point x="494" y="1228"/>
			<point x="494" y="1234" type="curve" smooth="yes"/>
			<point x="494" y="1288"/>
			<point x="594" y="1288"/>
			<point x="656" y="1288" type="curve"/>
			<point x="656" y="1366" type="line"/>
			<point x="624" y="1364"/>
			<point x="428" y="1358"/>
			<point x="346" y="1358" type="curve" smooth="yes"/>
			<point x="272" y="1358"/>
			<point x="148" y="1362"/>
			<point x="78" y="1366" type="curve"/>
			<point x="78" y="1288" type="line"/>
			<point x="116" y="1288" type="line" smooth="yes"/>
			<point x="240" y="1288"/>
			<point x="262" y="1272"/>
			<point x="290" y="1212" type="curve" smooth="yes"/>
			<point x="830" y="6" type="line" smooth="yes"/>
			<point x="848" y="-34"/>
			<point x="864" y="-42"/>
		</contour>
	</outline>
</glyph>
<glyph name="W" format="2">
	<unicode hex="0057"/>
	<advance width="2440"/>
	<outline>
		<contour>
			<point x="842" y="232" type="line"/>
			<point x="478" y="1198" type="line" smooth="yes"/>
			<point x="468" y="1224"/>
			<point x="468" y="1228"/>
			<point x="468" y="1234" type="curve" smooth="yes"/>
			<point x="468" y="1288"/>
			<point x="584" y="1288"/>
			<point x="638" y="1288" type="curve"/>
			<point x="638" y="1366" type="line"/>
			<point x="608" y="1364"/>
			<point x="410" y="1358"/>
			<point x="332" y="1358" type="curve" smooth="yes"/>
			<point x="252" y="1358"/>
			<point x="122" y="1362"/>
			<point x="74" y="1366" type="curve"/>
			<point x="74" y="1288" type="line"/>
			<point x="108" y="1288" type="line" smooth="yes"/>
			<point x="232" y="1288"/>
			<point x="246" y="1270"/>
			<point x="266" y="1214" type="curve" smooth="yes"/>
			<point x="720" y="6" type="line" smooth="yes"/>
			<point x="728" y="-16"/>
			<point x="738" y="-42"/>
			<point x="778" y="-42" type="curve" smooth="yes"/>
			<point x="816" y="-42"/>
			<point x="824" y="-20"/>
			<point x="834" y="4" type="curve" smooth="yes"/>
			<point x="1218" y="1026" type="line"/>
			<point x="1602" y="6" type="line" smooth="yes"/>
			<point x="1612" y="-18"/>
			<point x="1622" y="-42"/>
			<point x="1660" y="-42" type="curve" smooth="yes"/>
			<point x="1698" y="-42"/>
			<point x="1708" y="-20"/>
			<point x="1716" y="4" type="curve" smooth="yes"/>
			<point x="2152" y="1160" type="line" smooth="yes"/>
			<point x="2166" y="1198"/>
			<point x="2200" y="1288"/>
			<point x="2364" y="1288" type="curve"/>
			<point x="2364" y="1288" type="line"/>
			<point x="2364" y="1366" type="line"/>
			<point x="2318" y="1362"/>
			<point x="2226" y="1358"/>
			<point x="2166" y="1358" type="curve" smooth="yes"/>
			<point x="2072" y="1358"/>
			<point x="1928" y="1364"/>
			<point x="1906" y="1366" type="curve"/>
			<point x="1906" y="1288" type="line"/>
			<point x="2028" y="1286"/>
			<point x="2078" y="1234"/>
			<point x="2078" y="1188" type="curve" smooth="yes"/>
			<point x="2078" y="1180"/>
			<point x="2078" y="1174"/>
			<point x="2068" y="1148" type="curve" smooth="yes"/>
			<point x="1724" y="232" type="line"/>
			<point x="1360" y="1198" type="line" smooth="yes"/>
			<point x="1350" y="1224"/>
			<point x="1350" y="1228"/>
			<point x="1350" y="1234" type="curve" smooth="yes"/>
			<point x="1350" y="1288"/>
			<point x="1466" y="1288"/>
			<point x="1520" y="1288" type="curve"/>
			<point x="1520" y="1366" type="line"/>
			<point x="1490" y="1364"/>
			<point x="1292" y="1358"/>
			<point x="1214" y="1358" type="curve" smooth="yes"/>
			<point x="1134" y="1358"/>
			<point x="1004" y="1362"/>
			<point x="956" y="1366" type="curve"/>
			<point x="956" y="1288" type="line"/>
			<point x="990" y="1288" type="line" smooth="yes"/>
			<point x="1096" y="1288"/>
			<point x="1112" y="1272"/>
			<point x="1126" y="1256" type="curve" smooth="yes"/>
			<point x="1146" y="1234"/>
			<point x="1178" y="1130"/>
			<point x="1178" y="1128" type="curve"/>
		</contour>
	</outline>
</glyph>
<glyph name="X" format="2">
	<unicode hex="0058"/>
	<advance width="1792"/>
	<outline>
		<contour>
			<point x="964" y="766" type="line"/>
			<point x="1284" y="1164" type="line" smooth="yes"/>
			<point x="1364" y="1264"/>
			<point x="1478" y="1288"/>
			<point x="1598" y="1288" type="curve"/>
			<point x="1598" y="1288" type="line"/>
			<point x="1598" y="1366" type="line"/>
			<point x="1520" y="1360"/>
			<point x="1442" y="1358"/>
			<point x="1364" y="1358" type="curve" smooth="yes"/>
			<point x="1266" y="1358"/>
			<point x="1116" y="1364"/>
			<point x="1090" y="1366" type="curve"/>
			<point x="1090" y="1288" type="line"/>
			<point x="1170" y="1286"/>
			<point x="1200" y="1242"/>
			<point x="1200" y="1208" type="curve" smooth="yes"/>
			<point x="1200" y="1186"/>
			<point x="1194" y="1178"/>
			<point x="1176" y="1156" type="curve" smooth="yes"/>
			<point x="914" y="828" type="line"/>
			<point x="614" y="1208" type="line" smooth="yes"/>
			<point x="602" y="1222"/>
			<point x="600" y="1226"/>
			<point x="600" y="1234" type="curve" smooth="yes"/>
			<point x="600" y="1262"/>
			<point x="650" y="1288"/>
			<point x="718" y="1288" type="curve"/>
			<point x="718" y="1366" type="line"/>
			<point x="656" y="1364"/>
			<point x="486" y="1358"/>
			<point x="402" y="1358" type="curve" smooth="yes"/>
			<point x="306" y="1358"/>
			<point x="180" y="1362"/>
			<point x="126" y="1366" type="curve"/>
			<point x="126" y="1288" type="line"/>
			<point x="170" y="1288" type="line" smooth="yes"/>
			<point x="300" y="1288"/>
			<point x="328" y="1270"/>
			<point x="366" y="1222" type="curve" smooth="yes"/>
			<point x="794" y="680" type="line"/>
			<point x="412" y="206" type="line" smooth="yes"/>
			<point x="368" y="150"/>
			<point x="296" y="80"/>
			<point x="96" y="78" type="curve"/>
			<point x="96" y="78" type="line"/>
			<point x="96" y="0" type="line"/>
			<point x="174" y="6"/>
			<point x="252" y="8"/>
			<point x="330" y="8" type="curve" smooth="yes"/>
			<point x="434" y="8"/>
			<point x="572" y="2"/>
			<point x="604" y="0" type="curve"/>
			<point x="604" y="78" type="line"/>
			<point x="518" y="80"/>
			<point x="492" y="130"/>
			<point x="492" y="158" type="curve" smooth="yes"/>
			<point x="492" y="178"/>
			<point x="498" y="186"/>
			<point x="516" y="208" type="curve" smooth="yes"/>
			<point x="844" y="618" type="line"/>
			<point x="1206" y="162" type="line" smooth="yes"/>
			<point x="1222" y="140"/>
			<point x="1222" y="136"/>
			<point x="1222" y="132" type="curve" smooth="yes"/>
			<point x="1222" y="106"/>
			<point x="1178" y="80"/>
			<point x="1104" y="78" type="curve"/>
			<point x="1104" y="0" type="line"/>
			<point x="1148" y="2"/>
			<point x="1336" y="8"/>
			<point x="1420" y="8" type="curve" smooth="yes"/>
			<point x="1516" y="8"/>
			<point x="1642" y="4"/>
			<point x="1696" y="0" type="curve"/>
			<point x="1696" y="78" type="line"/>
			<point x="1652" y="78" type="line" smooth="yes"/>
			<point x="1524" y="78"/>
			<point x="1494" y="96"/>
			<point x="1458" y="142" type="curve" smooth="yes"/>
		</contour>
	</outline>
</glyph>
<glyph name="Y" format="2">
	<unicode hex="0059"/>
	<advance width="1792"/>
	<outline>
		<contour>
			<point x="798" y="546" type="line"/>
			<point x="798" y="168" type="line" smooth="yes"/>
			<point x="798" y="102"/>
			<point x="798" y="78"/>
			<point x="638" y="78" type="curve" smooth="yes"/>
			<point x="586" y="78" type="line"/>
			<point x="586" y="0" type="line"/>
			<point x="616" y="2"/>
			<point x="814" y="8"/>
			<point x="894" y="8" type="curve" smooth="yes"/>
			<point x="976" y="8"/>
			<point x="1154" y="2"/>
			<point x="1204" y="0" type="curve"/>
			<point x="1204" y="78" type="line"/>
			<point x="1152" y="78" type="line" smooth="yes"/>
			<point x="994" y="78"/>
			<point x="990" y="98"/>
			<point x="990" y="172" type="curve" smooth="yes"/>
			<point x="990" y="546" type="line"/>
			<point x="1446" y="1164" type="line" smooth="yes"/>
			<point x="1532" y="1280"/>
			<point x="1658" y="1288"/>
			<point x="1724" y="1288" type="curve"/>
			<point x="1724" y="1288" type="line"/>
			<point x="1724" y="1366" type="line"/>
			<point x="1654" y="1360"/>
			<point x="1586" y="1358"/>
			<point x="1516" y="1358" type="curve" smooth="yes"/>
			<point x="1434" y="1358"/>
			<point x="1294" y="1364"/>
			<point x="1270" y="1366" type="curve"/>
			<point x="1270" y="1288" type="line"/>
			<point x="1328" y="1288"/>
			<point x="1372" y="1266"/>
			<point x="1372" y="1220" type="curve" smooth="yes"/>
			<point x="1372" y="1206"/>
			<point x="1366" y="1186"/>
			<point x="1346" y="1158" type="curve" smooth="yes"/>
			<point x="966" y="644" type="line"/>
			<point x="552" y="1206" type="line"/>
			<point x="532" y="1230"/>
			<point x="532" y="1234"/>
			<point x="532" y="1246" type="curve" smooth="yes"/>
			<point x="532" y="1282"/>
			<point x="588" y="1288"/>
			<point x="662" y="1288" type="curve"/>
			<point x="662" y="1366" type="line"/>
			<point x="628" y="1364"/>
			<point x="430" y="1358"/>
			<point x="344" y="1358" type="curve" smooth="yes"/>
			<point x="234" y="1358"/>
			<point x="112" y="1364"/>
			<point x="66" y="1366" type="curve"/>
			<point x="66" y="1288" type="line"/>
			<point x="108" y="1288" type="line" smooth="yes"/>
			<point x="226" y="1288"/>
			<point x="262" y="1276"/>
			<point x="304" y="1218" type="curve" smooth="yes"/>
		</contour>
	</outline>
</glyph>
<glyph name="Z" format="2">
	<unicode hex="005A"/>
	<advance width="1480"/>
	<outline>
		<contour>
			<point x="218" y="0" type="curve" smooth="yes"/>
			<point x="1298" y="0" type="line"/>
			<point x="1336" y="550" type="line"/>
			<point x="1262" y="550" type="line"/>
			<point x="1242" y="278"/>
			<point x="1198" y="84"/>
			<point x="804" y="84" type="curve" smooth="yes"/>
			<point x="404" y="84" type="line"/>
			<point x="1304" y="1280" type="line" smooth="yes"/>
			<point x="1322" y="1302"/>
			<point x="1322" y="1306"/>
			<point x="1322" y="1324" type="curve" smooth="yes"/>
			<point x="1322" y="1366"/>
			<point x="1302" y="1366"/>
			<point x="1262" y="1366" type="curve" smooth="yes"/>
			<point x="216" y="1366" type="line"/>
			<point x="190" y="900" type="line"/>
			<point x="264" y="900" type="line"/>
			<point x="284" y="1200"/>
			<point x="434" y="1288"/>
			<point x="704" y="1288" type="curve" smooth="yes"/>
			<point x="1078" y="1288" type="line"/>
			<point x="176" y="90" type="line" smooth="yes"/>
			<point x="158" y="68"/>
			<point x="158" y="64"/>
			<point x="158" y="44" type="curve" smooth="yes"/>
			<point x="158" y="0"/>
			<point x="178" y="0"/>
		</contour>
	</outline>
</glyph>
<glyph name="bracketleft" format="2">
	<unicode hex="005B"/>
	<advance width="351"/>
	<outline>
		<contour>
			<point x="312" y="698" type="line"/>
			<point x="312" y="750" type="line"/>
			<point x="149" y="750" type="line"/>
			<point x="149" y="-250" type="line"/>
			<point x="312" y="-250" type="line"/>
			<point x="312" y="-198" type="line"/>
			<point x="201" y="-198" type="line"/>
			<point x="201" y="698" type="line"/>
		</contour>
	</outline>
</glyph>
<glyph name="bracketright" format="2">
	<unicode hex="005D"/>
	<advance width="702"/>
	<outline>
		<contour>
			<point x="404" y="1500" type="line"/>
			<point x="78" y="1500" type="line"/>
			<point x="78" y="1396" type="line"/>
			<point x="300" y="1396" type="line"/>
			<point x="300" y="-396" type="line"/>
			<point x="78" y="-396" type="line"/>
			<point x="78" y="-500" type="line"/>
			<point x="404" y="-500" type="line"/>
		</contour>
	</outline>
</glyph>
<glyph name="grave" format="2">
	<unicode hex="0060"/>
	<advance width="1222"/>
	<outline>
		<contour>
			<point x="666" y="1008" type="line"/>
			<point x="714" y="1066" type="line"/>
			<point x="434" y="1358" type="line" smooth="yes"/>
			<point x="414" y="1380"/>
			<point x="398" y="1396"/>
			<point x="364" y="1396" type="curve" smooth="yes"/>
			<point x="314" y="1396"/>
			<point x="278" y="1348"/>
			<point x="278" y="1308" type="curve" smooth="yes"/>
			<point x="278" y="1270"/>
			<point x="304" y="1252"/>
			<point x="328" y="1236" type="curve" smooth="yes"/>
		</contour>
	</outline>
</glyph>
<glyph name="a" format="2">
	<unicode hex="0061"/>
	<advance width="1222"/>
	<outline>
		<contour>
			<point x="128" y="210" type="curve" smooth="yes"/>
			<point x="128" y="32"/>
			<point x="340" y="-20"/>
			<point x="496" y="-20" type="curve" smooth="yes"/>
			<point x="664" y="-20"/>
			<point x="764" y="64"/>
			<point x="808" y="140" type="curve"/>
			<point x="822" y="36"/>
			<point x="888" y="-10"/>
			<point x="958" y="-10" type="curve" smooth="yes"/>
			<point x="966" y="-10"/>
			<point x="1180" y="-10"/>
			<point x="1180" y="180" type="curve" smooth="yes"/>
			<point x="1180" y="290" type="line"/>
			<point x="1106" y="290" type="line"/>
			<point x="1106" y="184" type="line" smooth="yes"/>
			<point x="1106" y="164"/>
			<point x="1106" y="74"/>
			<point x="1028" y="74" type="curve" smooth="yes"/>
			<point x="950" y="74"/>
			<point x="950" y="164"/>
			<point x="950" y="184" type="curve" smooth="yes"/>
			<point x="950" y="596" type="line" smooth="yes"/>
			<point x="950" y="694"/>
			<point x="897" y="771"/>
			<point x="815" y="822" type="curve" smooth="yes"/>
			<point x="740" y="867"/>
			<point x="642" y="892"/>
			<point x="536" y="892" type="curve" smooth="yes"/>
			<point x="440" y="892"/>
			<point x="204" y="882"/>
			<point x="204" y="714" type="curve" smooth="yes"/>
			<point x="204" y="660"/>
			<point x="240" y="616"/>
			<point x="302" y="616" type="curve" smooth="yes"/>
			<point x="360" y="616"/>
			<point x="398" y="660"/>
			<point x="398" y="712" type="curve" smooth="yes"/>
			<point x="398" y="748"/>
			<point x="382" y="782"/>
			<point x="346" y="798" type="curve"/>
			<point x="412" y="828"/>
			<point x="512" y="828"/>
			<point x="532" y="828" type="curve" smooth="yes"/>
			<point x="674" y="828"/>
			<point x="784" y="744"/>
			<point x="784" y="592" type="curve" smooth="yes"/>
			<point x="784" y="540" type="line"/>
			<point x="692" y="536"/>
			<point x="532" y="532"/>
			<point x="386" y="480" type="curve" smooth="yes"/>
			<point x="254" y="434"/>
			<point x="128" y="344"/>
		</contour>
		<contour>
			<point x="304" y="210" type="curve" smooth="yes"/>
			<point x="304" y="322"/>
			<point x="412" y="468"/>
			<point x="784" y="480" type="curve"/>
			<point x="784" y="284" type="line" smooth="yes"/>
			<point x="784" y="199"/>
			<point x="750" y="144"/>
			<point x="705" y="108" type="curve" smooth="yes"/>
			<point x="640" y="55"/>
			<point x="552" y="44"/>
			<point x="514" y="44" type="curve" smooth="yes"/>
			<point x="406" y="44"/>
			<point x="304" y="110"/>
		</contour>
	</outline>
</glyph>
<glyph name="b" format="2">
	<unicode hex="0062"/>
	<advance width="1350"/>
	<outline>
		<contour>
			<point x="274" y="0" type="line"/>
			<point x="348" y="0" type="line"/>
			<point x="371" y="41"/>
			<point x="395" y="81"/>
			<point x="418" y="122" type="curve"/>
			<point x="486" y="42"/>
			<point x="588" y="-20"/>
			<point x="726" y="-20" type="curve" smooth="yes"/>
			<point x="1004" y="-20"/>
			<point x="1242" y="178"/>
			<point x="1242" y="432" type="curve" smooth="yes"/>
			<point x="1242" y="676"/>
			<point x="1026" y="882"/>
			<point x="750" y="882" type="curve" smooth="yes"/>
			<point x="644" y="882"/>
			<point x="530" y="852"/>
			<point x="432" y="764" type="curve"/>
			<point x="432" y="1388" type="line"/>
			<point x="116" y="1366" type="line"/>
			<point x="116" y="1288" type="line"/>
			<point x="256" y="1288"/>
			<point x="274" y="1274"/>
			<point x="274" y="1176" type="curve" smooth="yes"/>
		</contour>
		<contour>
			<point x="716" y="44" type="curve" smooth="yes"/>
			<point x="648" y="44"/>
			<point x="550" y="64"/>
			<point x="470" y="168" type="curve" smooth="yes"/>
			<point x="440" y="208"/>
			<point x="440" y="212"/>
			<point x="440" y="250" type="curve" smooth="yes"/>
			<point x="440" y="664" type="line"/>
			<point x="440" y="664"/>
			<point x="440" y="664"/>
			<point x="440" y="664" type="curve"/>
			<point x="502" y="764"/>
			<point x="622" y="818"/>
			<point x="738" y="818" type="curve" smooth="yes"/>
			<point x="844" y="818"/>
			<point x="926" y="766"/>
			<point x="972" y="712" type="curve" smooth="yes"/>
			<point x="1036" y="634"/>
			<point x="1052" y="536"/>
			<point x="1052" y="432" type="curve" smooth="yes"/>
			<point x="1052" y="283"/>
			<point x="1007" y="192"/>
			<point x="950" y="135" type="curve" smooth="yes"/>
			<point x="861" y="48"/>
			<point x="743" y="44"/>
		</contour>
	</outline>
</glyph>
<glyph name="c" format="2">
  <advance width="546"/>
  <unicode hex="0063"/>
  <outline>
    <contour>
      <point x="149" y="217" type="curve" smooth="yes"/>
      <point x="149" y="335"/>
      <point x="208" y="411"/>
      <point x="314" y="411" type="curve" smooth="yes"/>
      <point x="349" y="411"/>
      <point x="383" y="410"/>
      <point x="410" y="403" type="curve"/>
      <point x="400" y="397"/>
      <point x="389" y="383"/>
      <point x="389" y="362" type="curve" smooth="yes"/>
      <point x="389" y="336"/>
      <point x="408" y="314"/>
      <point x="437" y="314" type="curve" smooth="yes"/>
      <point x="468" y="314"/>
      <point x="486" y="336"/>
      <point x="486" y="363" type="curve" smooth="yes"/>
      <point x="486" y="443"/>
      <point x="380" y="446"/>
      <point x="317" y="446" type="curve" smooth="yes"/>
      <point x="132" y="446"/>
      <point x="54" y="314"/>
      <point x="54" y="216" type="curve" smooth="yes"/>
      <point x="54" y="91"/>
      <point x="165" y="-10"/>
      <point x="305" y="-10" type="curve" smooth="yes"/>
      <point x="464" y="-10"/>
      <point x="499" y="109"/>
      <point x="499" y="120" type="curve" smooth="yes"/>
      <point x="499" y="134"/>
      <point x="484" y="134"/>
      <point x="480" y="134" type="curve" smooth="yes"/>
      <point x="467" y="134"/>
      <point x="464" y="129"/>
      <point x="461" y="119" type="curve" smooth="yes"/>
      <point x="451" y="89"/>
      <point x="414" y="25"/>
      <point x="316" y="25" type="curve" smooth="yes"/>
      <point x="239" y="25"/>
      <point x="149" y="80"/>
    </contour>
  </outline>
</glyph>
<glyph name="d" format="2">
	<unicode hex="0064"/>
	<advance width="1350"/>
	<outline>
		<contour>
			<point x="910" y="104" type="curve"/>
			<point x="910" y="-20" type="line"/>
			<point x="1234" y="0" type="line"/>
			<point x="1234" y="78" type="line"/>
			<point x="1094" y="78"/>
			<point x="1076" y="92"/>
			<point x="1076" y="190" type="curve" smooth="yes"/>
			<point x="1076" y="1388" type="line"/>
			<point x="760" y="1366" type="line"/>
			<point x="760" y="1288" type="line"/>
			<point x="900" y="1288"/>
			<point x="918" y="1274"/>
			<point x="918" y="1176" type="curve" smooth="yes"/>
			<point x="918" y="770" type="line"/>
			<point x="830" y="848"/>
			<point x="732" y="882"/>
			<point x="624" y="882" type="curve" smooth="yes"/>
			<point x="344" y="882"/>
			<point x="108" y="682"/>
			<point x="108" y="430" type="curve" smooth="yes"/>
			<point x="108" y="182"/>
			<point x="330" y="-20"/>
			<point x="600" y="-20" type="curve" smooth="yes"/>
			<point x="720" y="-20"/>
			<point x="824" y="24"/>
		</contour>
		<contour>
			<point x="298" y="430" type="curve" smooth="yes"/>
			<point x="298" y="579"/>
			<point x="343" y="671"/>
			<point x="400" y="727" type="curve" smooth="yes"/>
			<point x="484" y="810"/>
			<point x="595" y="818"/>
			<point x="636" y="818" type="curve" smooth="yes"/>
			<point x="704" y="818"/>
			<point x="804" y="796"/>
			<point x="882" y="708" type="curve" smooth="yes"/>
			<point x="910" y="674"/>
			<point x="910" y="670"/>
			<point x="910" y="632" type="curve" smooth="yes"/>
			<point x="910" y="256" type="line" smooth="yes"/>
			<point x="910" y="218"/>
			<point x="910" y="212"/>
			<point x="878" y="172" type="curve" smooth="yes"/>
			<point x="780" y="52"/>
			<point x="650" y="44"/>
			<point x="612" y="44" type="curve" smooth="yes"/>
			<point x="530" y="44"/>
			<point x="442" y="76"/>
			<point x="374" y="154" type="curve" smooth="yes"/>
			<point x="312" y="232"/>
			<point x="298" y="340"/>
		</contour>
	</outline>
</glyph>
<glyph name="e" format="2">
	<unicode hex="0065"/>
	<advance width="1092"/>
	<outline>
		<contour>
			<point x="286" y="452" type="curve"/>
			<point x="938" y="452" type="line" smooth="yes"/>
			<point x="982" y="452"/>
			<point x="998" y="452"/>
			<point x="998" y="500" type="curve" smooth="yes"/>
			<point x="998" y="654"/>
			<point x="912" y="892"/>
			<point x="580" y="892" type="curve" smooth="yes"/>
			<point x="300" y="892"/>
			<point x="96" y="678"/>
			<point x="96" y="438" type="curve" smooth="yes"/>
			<point x="96" y="186"/>
			<point x="326" y="-20"/>
			<point x="608" y="-20" type="curve" smooth="yes"/>
			<point x="896" y="-20"/>
			<point x="998" y="196"/>
			<point x="998" y="240" type="curve" smooth="yes"/>
			<point x="998" y="250"/>
			<point x="994" y="272"/>
			<point x="960" y="272" type="curve" smooth="yes"/>
			<point x="934" y="272"/>
			<point x="930" y="260"/>
			<point x="922" y="236" type="curve"/>
			<point x="862" y="88"/>
			<point x="712" y="50"/>
			<point x="620" y="50" type="curve" smooth="yes"/>
			<point x="510" y="50"/>
			<point x="416" y="100"/>
			<point x="360" y="172" type="curve" smooth="yes"/>
			<point x="286" y="266"/>
			<point x="286" y="398"/>
		</contour>
		<contour>
			<point x="290" y="512" type="line"/>
			<point x="312" y="780"/>
			<point x="496" y="828"/>
			<point x="578" y="828" type="curve" smooth="yes"/>
			<point x="836" y="828"/>
			<point x="850" y="570"/>
			<point x="852" y="512" type="curve"/>
		</contour>
	</outline>
</glyph>
<glyph name="f" format="2">
	<unicode hex="0066"/>
	<advance width="768"/>
	<outline>
		<contour>
			<point x="288" y="164" type="line" smooth="yes"/>
			<point x="288" y="78"/>
			<point x="268" y="78"/>
			<point x="130" y="78" type="curve"/>
			<point x="130" y="78" type="line"/>
			<point x="130" y="0" type="line"/>
			<point x="180" y="4"/>
			<point x="328" y="8"/>
			<point x="372" y="8" type="curve" smooth="yes"/>
			<point x="476" y="8"/>
			<point x="614" y="2"/>
			<point x="642" y="0" type="curve"/>
			<point x="642" y="78" type="line"/>
			<point x="598" y="78" type="line" smooth="yes"/>
			<point x="448" y="78"/>
			<point x="446" y="98"/>
			<point x="446" y="166" type="curve" smooth="yes"/>
			<point x="446" y="784" type="line"/>
			<point x="708" y="784" type="line"/>
			<point x="708" y="862" type="line"/>
			<point x="438" y="862" type="line"/>
			<point x="438" y="1080" type="line" smooth="yes"/>
			<point x="438" y="1266"/>
			<point x="552" y="1344"/>
			<point x="636" y="1344" type="curve" smooth="yes"/>
			<point x="662" y="1344"/>
			<point x="684" y="1338"/>
			<point x="692" y="1336" type="curve"/>
			<point x="678" y="1326"/>
			<point x="656" y="1310"/>
			<point x="656" y="1260" type="curve" smooth="yes"/>
			<point x="656" y="1208"/>
			<point x="692" y="1166"/>
			<point x="750" y="1166" type="curve" smooth="yes"/>
			<point x="808" y="1166"/>
			<point x="844" y="1208"/>
			<point x="844" y="1260" type="curve" smooth="yes"/>
			<point x="844" y="1348"/>
			<point x="758" y="1408"/>
			<point x="638" y="1408" type="curve" smooth="yes"/>
			<point x="476" y="1408"/>
			<point x="288" y="1296"/>
			<point x="288" y="1082" type="curve" smooth="yes"/>
			<point x="288" y="862" type="line"/>
			<point x="104" y="862" type="line"/>
			<point x="104" y="784" type="line"/>
			<point x="288" y="784" type="line"/>
		</contour>
	</outline>
</glyph>
<glyph name="g" format="2">
	<unicode hex="0067"/>
	<advance width="1222"/>
	<outline>
		<contour>
			<point x="610" y="-410" type="curve" smooth="yes"/>
			<point x="866" y="-410"/>
			<point x="1128" y="-318"/>
			<point x="1128" y="-148" type="curve" smooth="yes"/>
			<point x="1128" y="-98"/>
			<point x="1112" y="30"/>
			<point x="952" y="96" type="curve" smooth="yes"/>
			<point x="838" y="144"/>
			<point x="724" y="144"/>
			<point x="536" y="144" type="curve" smooth="yes"/>
			<point x="488" y="144"/>
			<point x="410" y="144"/>
			<point x="394" y="148" type="curve"/>
			<point x="342" y="156"/>
			<point x="292" y="206"/>
			<point x="292" y="276" type="curve" smooth="yes"/>
			<point x="292" y="318"/>
			<point x="312" y="346"/>
			<point x="316" y="352" type="curve"/>
			<point x="364" y="324"/>
			<point x="444" y="292"/>
			<point x="544" y="292" type="curve" smooth="yes"/>
			<point x="766" y="292"/>
			<point x="920" y="434"/>
			<point x="920" y="586" type="curve" smooth="yes"/>
			<point x="920" y="698"/>
			<point x="838" y="772"/>
			<point x="834" y="776" type="curve"/>
			<point x="924" y="836"/>
			<point x="1010" y="840"/>
			<point x="1040" y="840" type="curve"/>
			<point x="1034" y="832"/>
			<point x="1026" y="824"/>
			<point x="1026" y="796" type="curve" smooth="yes"/>
			<point x="1026" y="760"/>
			<point x="1052" y="730"/>
			<point x="1092" y="730" type="curve" smooth="yes"/>
			<point x="1136" y="730"/>
			<point x="1160" y="762"/>
			<point x="1160" y="798" type="curve" smooth="yes"/>
			<point x="1160" y="842"/>
			<point x="1122" y="904"/>
			<point x="1034" y="904" type="curve" smooth="yes"/>
			<point x="950" y="904"/>
			<point x="858" y="870"/>
			<point x="788" y="812" type="curve"/>
			<point x="722" y="858"/>
			<point x="632" y="882"/>
			<point x="546" y="882" type="curve" smooth="yes"/>
			<point x="330" y="882"/>
			<point x="170" y="744"/>
			<point x="170" y="586" type="curve" smooth="yes"/>
			<point x="170" y="524"/>
			<point x="196" y="452"/>
			<point x="268" y="386" type="curve"/>
			<point x="224" y="330"/>
			<point x="210" y="274"/>
			<point x="210" y="226" type="curve" smooth="yes"/>
			<point x="210" y="116"/>
			<point x="280" y="56"/>
			<point x="292" y="46" type="curve"/>
			<point x="214" y="24"/>
			<point x="92" y="-40"/>
			<point x="92" y="-152" type="curve" smooth="yes"/>
			<point x="92" y="-306"/>
			<point x="334" y="-410"/>
		</contour>
		<contour>
			<point x="546" y="358" type="curve" smooth="yes"/>
			<point x="380" y="358"/>
			<point x="316" y="458"/>
			<point x="316" y="564" type="curve" smooth="yes"/>
			<point x="316" y="589"/>
			<point x="316" y="681"/>
			<point x="375" y="741" type="curve" smooth="yes"/>
			<point x="406" y="772"/>
			<point x="452" y="794"/>
			<point x="522" y="794" type="curve" smooth="yes"/>
			<point x="700" y="794"/>
			<point x="752" y="676"/>
			<point x="752" y="588" type="curve" smooth="yes"/>
			<point x="752" y="563"/>
			<point x="752" y="471"/>
			<point x="693" y="411" type="curve" smooth="yes"/>
			<point x="662" y="380"/>
			<point x="616" y="358"/>
		</contour>
		<contour>
			<point x="610" y="-344" type="curve" smooth="yes"/>
			<point x="394" y="-344"/>
			<point x="222" y="-254"/>
			<point x="222" y="-150" type="curve" smooth="yes"/>
			<point x="222" y="-125"/>
			<point x="233" y="-88"/>
			<point x="265" y="-56" type="curve" smooth="yes"/>
			<point x="298" y="-24"/>
			<point x="351" y="2"/>
			<point x="436" y="2" type="curve" smooth="yes"/>
			<point x="658" y="2" type="line" smooth="yes"/>
			<point x="720" y="2"/>
			<point x="998" y="-2"/>
			<point x="998" y="-152" type="curve" smooth="yes"/>
			<point x="998" y="-250"/>
			<point x="834" y="-344"/>
		</contour>
	</outline>
</glyph>
<glyph name="h" format="2">
	<unicode hex="0068"/>
	<advance width="1350"/>
	<outline>
		<contour>
			<point x="284" y="164" type="line" smooth="yes"/>
			<point x="284" y="78"/>
			<point x="264" y="78"/>
			<point x="126" y="78" type="curve"/>
			<point x="126" y="78" type="line"/>
			<point x="126" y="0" type="line"/>
			<point x="140" y="2"/>
			<point x="276" y="8"/>
			<point x="366" y="8" type="curve" smooth="yes"/>
			<point x="456" y="8"/>
			<point x="588" y="2"/>
			<point x="608" y="0" type="curve"/>
			<point x="608" y="78" type="line"/>
			<point x="608" y="78" type="line"/>
			<point x="470" y="78"/>
			<point x="450" y="78"/>
			<point x="450" y="164" type="curve" smooth="yes"/>
			<point x="450" y="516" type="line" smooth="yes"/>
			<point x="450" y="736"/>
			<point x="638" y="818"/>
			<point x="762" y="818" type="curve" smooth="yes"/>
			<point x="896" y="818"/>
			<point x="928" y="734"/>
			<point x="928" y="610" type="curve" smooth="yes"/>
			<point x="928" y="164" type="line" smooth="yes"/>
			<point x="928" y="78"/>
			<point x="908" y="78"/>
			<point x="770" y="78" type="curve"/>
			<point x="770" y="78" type="line"/>
			<point x="770" y="0" type="line"/>
			<point x="784" y="2"/>
			<point x="920" y="8"/>
			<point x="1010" y="8" type="curve" smooth="yes"/>
			<point x="1100" y="8"/>
			<point x="1232" y="2"/>
			<point x="1252" y="0" type="curve"/>
			<point x="1252" y="78" type="line"/>
			<point x="1252" y="78" type="line"/>
			<point x="1114" y="78"/>
			<point x="1094" y="78"/>
			<point x="1094" y="164" type="curve" smooth="yes"/>
			<point x="1094" y="604" type="line" smooth="yes"/>
			<point x="1094" y="694"/>
			<point x="1070" y="760"/>
			<point x="1025" y="805" type="curve" smooth="yes"/>
			<point x="972" y="858"/>
			<point x="889" y="882"/>
			<point x="780" y="882" type="curve" smooth="yes"/>
			<point x="568" y="882"/>
			<point x="470" y="748"/>
			<point x="442" y="704" type="curve"/>
			<point x="442" y="704" type="line"/>
			<point x="442" y="1388" type="line"/>
			<point x="126" y="1366" type="line"/>
			<point x="126" y="1288" type="line"/>
			<point x="266" y="1288"/>
			<point x="284" y="1274"/>
			<point x="284" y="1176" type="curve" smooth="yes"/>
		</contour>
	</outline>
</glyph>
<glyph name="i" format="2">
  <advance width="351"/>
  <unicode hex="0069"/>
  <outline>
    <contour>
      <point x="143" y="82" type="line" smooth="yes"/>
      <point x="143" y="39"/>
      <point x="133" y="39"/>
      <point x="64" y="39" type="curve"/>
      <point x="64" y="39" type="line"/>
      <point x="64" y="0" type="line"/>
      <point x="93" y="2"/>
      <point x="171" y="4"/>
      <point x="181" y="4" type="curve" smooth="yes"/>
      <point x="191" y="4"/>
      <point x="267" y="2"/>
      <point x="293" y="0" type="curve"/>
      <point x="293" y="39" type="line"/>
      <point x="231" y="39"/>
      <point x="222" y="39"/>
      <point x="222" y="81" type="curve" smooth="yes"/>
      <point x="222" y="441" type="line"/>
      <point x="68" y="430" type="line"/>
      <point x="68" y="391" type="line"/>
      <point x="134" y="391"/>
      <point x="143" y="384"/>
      <point x="143" y="335" type="curve" smooth="yes"/>
    </contour>
    <contour>
      <point x="227" y="616" type="curve" smooth="yes"/>
      <point x="227" y="646"/>
      <point x="202" y="676"/>
      <point x="167" y="676" type="curve" smooth="yes"/>
      <point x="136" y="676"/>
      <point x="107" y="652"/>
      <point x="107" y="616" type="curve" smooth="yes"/>
      <point x="107" y="580"/>
      <point x="136" y="556"/>
      <point x="167" y="556" type="curve" smooth="yes"/>
      <point x="202" y="556"/>
      <point x="227" y="586"/>
    </contour>
  </outline>
</glyph>
<glyph name="j" format="2">
	<unicode hex="006A"/>
	<advance width="768"/>
	<outline>
		<contour>
			<point x="366" y="670" type="curve" smooth="yes"/>
			<point x="366" y="-90" type="line" smooth="yes"/>
			<point x="366" y="-184"/>
			<point x="340" y="-344"/>
			<point x="212" y="-344" type="curve" smooth="yes"/>
			<point x="182" y="-344"/>
			<point x="138" y="-338"/>
			<point x="110" y="-328" type="curve"/>
			<point x="128" y="-318"/>
			<point x="154" y="-302"/>
			<point x="154" y="-244" type="curve" smooth="yes"/>
			<point x="154" y="-188"/>
			<point x="112" y="-148"/>
			<point x="58" y="-148" type="curve" smooth="yes"/>
			<point x="0" y="-148"/>
			<point x="-40" y="-188"/>
			<point x="-40" y="-246" type="curve" smooth="yes"/>
			<point x="-40" y="-360"/>
			<point x="88" y="-408"/>
			<point x="214" y="-408" type="curve" smooth="yes"/>
			<point x="382" y="-408"/>
			<point x="524" y="-280"/>
			<point x="524" y="-88" type="curve" smooth="yes"/>
			<point x="524" y="882" type="line"/>
			<point x="192" y="860" type="line"/>
			<point x="192" y="782" type="line"/>
			<point x="346" y="782"/>
			<point x="366" y="768"/>
		</contour>
		<contour>
			<point x="524" y="1232" type="curve" smooth="yes"/>
			<point x="524" y="1296"/>
			<point x="472" y="1352"/>
			<point x="404" y="1352" type="curve" smooth="yes"/>
			<point x="338" y="1352"/>
			<point x="284" y="1296"/>
			<point x="284" y="1232" type="curve" smooth="yes"/>
			<point x="284" y="1168"/>
			<point x="336" y="1112"/>
			<point x="404" y="1112" type="curve" smooth="yes"/>
			<point x="470" y="1112"/>
			<point x="524" y="1168"/>
		</contour>
	</outline>
</glyph>
<glyph name="k" format="2">
  <advance width="643"/>
  <unicode hex="006B"/>
  <outline>
    <contour>
      <point x="348" y="270" type="line"/>
      <point x="348" y="270" type="line"/>
      <point x="457" y="352"/>
      <point x="508" y="390"/>
      <point x="583" y="392" type="curve"/>
      <point x="583" y="431" type="line"/>
      <point x="570" y="430"/>
      <point x="540" y="427"/>
      <point x="508" y="427" type="curve" smooth="yes"/>
      <point x="465" y="427"/>
      <point x="394" y="430"/>
      <point x="385" y="431" type="curve"/>
      <point x="385" y="392" type="line"/>
      <point x="401" y="390"/>
      <point x="403" y="378"/>
      <point x="403" y="376" type="curve" smooth="yes"/>
      <point x="403" y="372"/>
      <point x="401" y="355"/>
      <point x="372" y="334" type="curve" smooth="yes"/>
      <point x="216" y="221" type="line"/>
      <point x="216" y="694" type="line"/>
      <point x="58" y="683" type="line"/>
      <point x="58" y="644" type="line"/>
      <point x="128" y="644"/>
      <point x="137" y="637"/>
      <point x="137" y="588" type="curve" smooth="yes"/>
      <point x="137" y="82" type="line" smooth="yes"/>
      <point x="137" y="39"/>
      <point x="127" y="39"/>
      <point x="58" y="39" type="curve"/>
      <point x="58" y="39" type="line"/>
      <point x="58" y="0" type="line"/>
      <point x="85" y="2"/>
      <point x="153" y="4"/>
      <point x="175" y="4" type="curve" smooth="yes"/>
      <point x="190" y="4"/>
      <point x="261" y="2"/>
      <point x="292" y="0" type="curve"/>
      <point x="292" y="39" type="line"/>
      <point x="292" y="39" type="line"/>
      <point x="223" y="39"/>
      <point x="213" y="39"/>
      <point x="213" y="82" type="curve" smooth="yes"/>
      <point x="213" y="173" type="line"/>
      <point x="238.308" y="191.315"/>
      <point x="263.616" y="209.63"/>
      <point x="289" y="228" type="curve"/>
      <point x="401" y="98" type="line" smooth="yes"/>
      <point x="412" y="85"/>
      <point x="426" y="70"/>
      <point x="426" y="56" type="curve" smooth="yes"/>
      <point x="426" y="42"/>
      <point x="410" y="39"/>
      <point x="399" y="39" type="curve"/>
      <point x="399" y="0" type="line"/>
      <point x="420" y="2"/>
      <point x="490" y="4"/>
      <point x="516" y="4" type="curve" smooth="yes"/>
      <point x="555" y="4"/>
      <point x="600" y="1"/>
      <point x="609" y="0" type="curve"/>
      <point x="609" y="39" type="line"/>
      <point x="556" y="39"/>
      <point x="542" y="47"/>
      <point x="507" y="87" type="curve" smooth="yes"/>
    </contour>
  </outline>
</glyph>
<glyph name="l" format="2">
	<unicode hex="006C"/>
	<advance width="702"/>
	<outline>
		<contour>
			<point x="444" y="1388" type="line"/>
			<point x="128" y="1366" type="line"/>
			<point x="128" y="1288" type="line"/>
			<point x="268" y="1288"/>
			<point x="286" y="1274"/>
			<point x="286" y="1176" type="curve" smooth="yes"/>
			<point x="286" y="164" type="line" smooth="yes"/>
			<point x="286" y="78"/>
			<point x="266" y="78"/>
			<point x="128" y="78" type="curve"/>
			<point x="128" y="78" type="line"/>
			<point x="128" y="0" type="line"/>
			<point x="188" y="4"/>
			<point x="348" y="8"/>
			<point x="364" y="8" type="curve" smooth="yes"/>
			<point x="444" y="8"/>
			<point x="522" y="6"/>
			<point x="602" y="0" type="curve"/>
			<point x="602" y="78" type="line"/>
			<point x="602" y="78" type="line"/>
			<point x="464" y="78"/>
			<point x="444" y="78"/>
			<point x="444" y="164" type="curve" smooth="yes"/>
		</contour>
	</outline>
</glyph>
<glyph name="m" format="2">
	<unicode hex="006D"/>
	<advance width="2000"/>
	<outline>
		<contour>
			<point x="284" y="164" type="line" smooth="yes"/>
			<point x="284" y="78"/>
			<point x="264" y="78"/>
			<point x="126" y="78" type="curve"/>
			<point x="126" y="78" type="line"/>
			<point x="126" y="0" type="line"/>
			<point x="140" y="2"/>
			<point x="276" y="8"/>
			<point x="366" y="8" type="curve" smooth="yes"/>
			<point x="456" y="8"/>
			<point x="588" y="2"/>
			<point x="608" y="0" type="curve"/>
			<point x="608" y="78" type="line"/>
			<point x="608" y="78" type="line"/>
			<point x="470" y="78"/>
			<point x="450" y="78"/>
			<point x="450" y="164" type="curve" smooth="yes"/>
			<point x="450" y="516" type="line" smooth="yes"/>
			<point x="450" y="736"/>
			<point x="640" y="818"/>
			<point x="762" y="818" type="curve" smooth="yes"/>
			<point x="900" y="818"/>
			<point x="930" y="732"/>
			<point x="930" y="608" type="curve" smooth="yes"/>
			<point x="930" y="164" type="line" smooth="yes"/>
			<point x="930" y="78"/>
			<point x="910" y="78"/>
			<point x="772" y="78" type="curve"/>
			<point x="772" y="78" type="line"/>
			<point x="772" y="0" type="line"/>
			<point x="786" y="2"/>
			<point x="922" y="8"/>
			<point x="1012" y="8" type="curve" smooth="yes"/>
			<point x="1102" y="8"/>
			<point x="1234" y="2"/>
			<point x="1254" y="0" type="curve"/>
			<point x="1254" y="78" type="line"/>
			<point x="1254" y="78" type="line"/>
			<point x="1116" y="78"/>
			<point x="1096" y="78"/>
			<point x="1096" y="164" type="curve" smooth="yes"/>
			<point x="1096" y="516" type="line" smooth="yes"/>
			<point x="1096" y="736"/>
			<point x="1286" y="818"/>
			<point x="1408" y="818" type="curve" smooth="yes"/>
			<point x="1546" y="818"/>
			<point x="1576" y="732"/>
			<point x="1576" y="608" type="curve" smooth="yes"/>
			<point x="1576" y="164" type="line" smooth="yes"/>
			<point x="1576" y="78"/>
			<point x="1556" y="78"/>
			<point x="1418" y="78" type="curve"/>
			<point x="1418" y="78" type="line"/>
			<point x="1418" y="0" type="line"/>
			<point x="1432" y="2"/>
			<point x="1568" y="8"/>
			<point x="1658" y="8" type="curve" smooth="yes"/>
			<point x="1748" y="8"/>
			<point x="1880" y="2"/>
			<point x="1900" y="0" type="curve"/>
			<point x="1900" y="78" type="line"/>
			<point x="1900" y="78" type="line"/>
			<point x="1762" y="78"/>
			<point x="1742" y="78"/>
			<point x="1742" y="164" type="curve" smooth="yes"/>
			<point x="1742" y="604" type="line" smooth="yes"/>
			<point x="1742" y="696"/>
			<point x="1718" y="762"/>
			<point x="1674" y="806" type="curve" smooth="yes"/>
			<point x="1618" y="860"/>
			<point x="1534" y="882"/>
			<point x="1426" y="882" type="curve" smooth="yes"/>
			<point x="1240" y="882"/>
			<point x="1130" y="776"/>
			<point x="1086" y="700" type="curve"/>
			<point x="1040" y="882"/>
			<point x="836" y="882"/>
			<point x="780" y="882" type="curve" smooth="yes"/>
			<point x="598" y="882"/>
			<point x="486" y="782"/>
			<point x="438" y="698" type="curve"/>
			<point x="436" y="698" type="line"/>
			<point x="436" y="882" type="line"/>
			<point x="126" y="860" type="line"/>
			<point x="126" y="782" type="line"/>
			<point x="266" y="782"/>
			<point x="284" y="768"/>
			<point x="284" y="670" type="curve" smooth="yes"/>
		</contour>
	</outline>
</glyph>
<glyph name="n" format="2">
	<unicode hex="006E"/>
	<advance width="675"/>
	<outline>
		<contour>
			<point x="142" y="82" type="line" smooth="yes"/>
			<point x="142" y="39"/>
			<point x="132" y="39"/>
			<point x="63" y="39" type="curve"/>
			<point x="63" y="39" type="line"/>
			<point x="63" y="0" type="line"/>
			<point x="70" y="1"/>
			<point x="138" y="4"/>
			<point x="183" y="4" type="curve" smooth="yes"/>
			<point x="228" y="4"/>
			<point x="294" y="1"/>
			<point x="304" y="0" type="curve"/>
			<point x="304" y="39" type="line"/>
			<point x="304" y="39" type="line"/>
			<point x="235" y="39"/>
			<point x="225" y="39"/>
			<point x="225" y="82" type="curve" smooth="yes"/>
			<point x="225" y="258" type="line" smooth="yes"/>
			<point x="225" y="368"/>
			<point x="319" y="409"/>
			<point x="381" y="409" type="curve" smooth="yes"/>
			<point x="448" y="409"/>
			<point x="464" y="367"/>
			<point x="464" y="305" type="curve" smooth="yes"/>
			<point x="464" y="82" type="line" smooth="yes"/>
			<point x="464" y="39"/>
			<point x="454" y="39"/>
			<point x="385" y="39" type="curve"/>
			<point x="385" y="39" type="line"/>
			<point x="385" y="0" type="line"/>
			<point x="392" y="1"/>
			<point x="460" y="4"/>
			<point x="505" y="4" type="curve" smooth="yes"/>
			<point x="550" y="4"/>
			<point x="616" y="1"/>
			<point x="626" y="0" type="curve"/>
			<point x="626" y="39" type="line"/>
			<point x="626" y="39" type="line"/>
			<point x="557" y="39"/>
			<point x="547" y="39"/>
			<point x="547" y="82" type="curve" smooth="yes"/>
			<point x="547" y="302" type="line" smooth="yes"/>
			<point x="547" y="346.9428"/>
			<point x="535.22241824" y="379.89770428"/>
			<point x="512.7282045226" y="402.4079125529" type="curve" smooth="yes"/>
			<point x="486.1726718" y="428.98232764"/>
			<point x="444.6814" y="441"/>
			<point x="390" y="441" type="curve" smooth="yes"/>
			<point x="302" y="441"/>
			<point x="247" y="395"/>
			<point x="218" y="347" type="curve"/>
			<point x="218" y="347" type="line"/>
			<point x="218" y="441" type="line"/>
			<point x="63" y="430" type="line"/>
			<point x="63" y="391" type="line"/>
			<point x="133" y="391"/>
			<point x="142" y="384"/>
			<point x="142" y="335" type="curve" smooth="yes"/>
		</contour>
	</outline>
</glyph>
<glyph name="o" format="2">
	<unicode hex="006F"/>
	<advance width="1222"/>
	<outline>
		<contour>
			<point x="1124" y="426" type="curve" smooth="yes"/>
			<point x="1124" y="676"/>
			<point x="900" y="892"/>
			<point x="610" y="892" type="curve" smooth="yes"/>
			<point x="318" y="892"/>
			<point x="96" y="676"/>
			<point x="96" y="426" type="curve" smooth="yes"/>
			<point x="96" y="182"/>
			<point x="322" y="-20"/>
			<point x="610" y="-20" type="curve" smooth="yes"/>
			<point x="898" y="-20"/>
			<point x="1124" y="182"/>
		</contour>
		<contour>
			<point x="610" y="50" type="curve" smooth="yes"/>
			<point x="502" y="50"/>
			<point x="430" y="83"/>
			<point x="382" y="131" type="curve" smooth="yes"/>
			<point x="286" y="226"/>
			<point x="286" y="380"/>
			<point x="286" y="444" type="curve" smooth="yes"/>
			<point x="286" y="506"/>
			<point x="286" y="644"/>
			<point x="360" y="726" type="curve" smooth="yes"/>
			<point x="428" y="798"/>
			<point x="514" y="828"/>
			<point x="610" y="828" type="curve" smooth="yes"/>
			<point x="706" y="828"/>
			<point x="796" y="798"/>
			<point x="862" y="724" type="curve" smooth="yes"/>
			<point x="934" y="642"/>
			<point x="934" y="508"/>
			<point x="934" y="444" type="curve" smooth="yes"/>
			<point x="934" y="380"/>
			<point x="934" y="226"/>
			<point x="838" y="131" type="curve" smooth="yes"/>
			<point x="790" y="83"/>
			<point x="718" y="50"/>
		</contour>
	</outline>
</glyph>
<glyph name="p" format="2">
	<unicode hex="0070"/>
	<advance width="675"/>
	<outline>
		<contour>
			<point x="58" y="391" type="line"/>
			<point x="58" y="391" type="line"/>
			<point x="126" y="391"/>
			<point x="137" y="391"/>
			<point x="137" y="345" type="curve" smooth="yes"/>
			<point x="137" y="-112" type="line" smooth="yes"/>
			<point x="137" y="-155"/>
			<point x="127" y="-155"/>
			<point x="58" y="-155" type="curve"/>
			<point x="58" y="-155" type="line"/>
			<point x="58" y="-194" type="line"/>
			<point x="65" y="-193"/>
			<point x="133" y="-190"/>
			<point x="178" y="-190" type="curve" smooth="yes"/>
			<point x="223" y="-190"/>
			<point x="289" y="-193"/>
			<point x="299" y="-194" type="curve"/>
			<point x="299" y="-155" type="line"/>
			<point x="230" y="-155"/>
			<point x="220" y="-155"/>
			<point x="220" y="-112" type="curve" smooth="yes"/>
			<point x="220" y="48" type="line"/>
			<point x="261" y="9"/>
			<point x="308" y="-10"/>
			<point x="363" y="-10" type="curve" smooth="yes"/>
			<point x="502" y="-10"/>
			<point x="621" y="89"/>
			<point x="621" y="216" type="curve" smooth="yes"/>
			<point x="621" y="337"/>
			<point x="516" y="441"/>
			<point x="378" y="441" type="curve" smooth="yes"/>
			<point x="287" y="441"/>
			<point x="231" y="396"/>
			<point x="216" y="382" type="curve"/>
			<point x="216" y="441" type="line"/>
			<point x="58" y="430" type="line"/>
		</contour>
		<contour>
			<point x="526" y="216" type="curve" smooth="yes"/>
			<point x="526" y="104"/>
			<point x="446" y="22"/>
			<point x="357" y="22" type="curve" smooth="yes"/>
			<point x="280" y="22"/>
			<point x="235" y="77"/>
			<point x="220" y="106" type="curve"/>
			<point x="220" y="106"/>
			<point x="220" y="106"/>
			<point x="220" y="106" type="curve"/>
			<point x="220" y="331" type="line"/>
			<point x="218" y="332"/>
			<point x="220" y="331"/>
			<point x="220" y="331" type="curve"/>
			<point x="254" y="378"/>
			<point x="309" y="406"/>
			<point x="368" y="406" type="curve" smooth="yes"/>
			<point x="459" y="406"/>
			<point x="526" y="318"/>
		</contour>
	</outline>
</glyph>
<glyph name="q" format="2">
	<unicode hex="0071"/>
	<advance width="1286"/>
	<outline>
		<contour>
			<point x="108" y="430" type="curve" smooth="yes"/>
			<point x="108" y="184"/>
			<point x="330" y="-20"/>
			<point x="600" y="-20" type="curve" smooth="yes"/>
			<point x="744" y="-20"/>
			<point x="846" y="48"/>
			<point x="910" y="118" type="curve"/>
			<point x="910" y="-224" type="line" smooth="yes"/>
			<point x="910" y="-310"/>
			<point x="890" y="-310"/>
			<point x="752" y="-310" type="curve"/>
			<point x="752" y="-310" type="line"/>
			<point x="752" y="-388" type="line"/>
			<point x="766" y="-386"/>
			<point x="902" y="-380"/>
			<point x="992" y="-380" type="curve" smooth="yes"/>
			<point x="1082" y="-380"/>
			<point x="1214" y="-386"/>
			<point x="1234" y="-388" type="curve"/>
			<point x="1234" y="-310" type="line"/>
			<point x="1234" y="-310" type="line"/>
			<point x="1096" y="-310"/>
			<point x="1076" y="-310"/>
			<point x="1076" y="-224" type="curve" smooth="yes"/>
			<point x="1076" y="882" type="line"/>
			<point x="1010" y="882" type="line"/>
			<point x="936" y="710" type="line"/>
			<point x="898" y="768"/>
			<point x="798" y="882"/>
			<point x="618" y="882" type="curve" smooth="yes"/>
			<point x="348" y="882"/>
			<point x="108" y="688"/>
		</contour>
		<contour>
			<point x="298" y="430" type="curve" smooth="yes"/>
			<point x="298" y="648"/>
			<point x="456" y="812"/>
			<point x="636" y="812" type="curve" smooth="yes"/>
			<point x="804" y="812"/>
			<point x="918" y="656"/>
			<point x="918" y="538" type="curve" smooth="yes"/>
			<point x="918" y="298" type="line" smooth="yes"/>
			<point x="918" y="228"/>
			<point x="872" y="170"/>
			<point x="818" y="124" type="curve" smooth="yes"/>
			<point x="734" y="48"/>
			<point x="642" y="44"/>
			<point x="612" y="44" type="curve" smooth="yes"/>
			<point x="438" y="44"/>
			<point x="298" y="216"/>
		</contour>
	</outline>
</glyph>
<glyph name="s" format="2">
  <advance width="487"/>
  <unicode hex="0073"/>
  <outline>
    <contour>
      <point x="434" y="129" type="curve" smooth="yes"/>
      <point x="434" y="169"/>
      <point x="414" y="199"/>
      <point x="392" y="218" type="curve" smooth="yes"/>
      <point x="350" y="255"/>
      <point x="310" y="262"/>
      <point x="250" y="272" type="curve" smooth="yes"/>
      <point x="175" y="284"/>
      <point x="108" y="296"/>
      <point x="108" y="347" type="curve" smooth="yes"/>
      <point x="108" y="376"/>
      <point x="135" y="417"/>
      <point x="239" y="417" type="curve" smooth="yes"/>
      <point x="309" y="417"/>
      <point x="362" y="391"/>
      <point x="368" y="320" type="curve" smooth="yes"/>
      <point x="369" y="307"/>
      <point x="370" y="299"/>
      <point x="386" y="299" type="curve" smooth="yes"/>
      <point x="405" y="299"/>
      <point x="405" y="308"/>
      <point x="405" y="327" type="curve" smooth="yes"/>
      <point x="405" y="418" type="line" smooth="yes"/>
      <point x="405" y="435"/>
      <point x="405" y="446"/>
      <point x="389" y="446" type="curve" smooth="yes"/>
      <point x="384" y="446"/>
      <point x="382" y="446"/>
      <point x="367" y="434" type="curve" smooth="yes"/>
      <point x="365" y="432"/>
      <point x="364" y="431"/>
      <point x="349" y="419" type="curve"/>
      <point x="311" y="445"/>
      <point x="260" y="446"/>
      <point x="240" y="446" type="curve" smooth="yes"/>
      <point x="83" y="446"/>
      <point x="53" y="367"/>
      <point x="53" y="322" type="curve" smooth="yes"/>
      <point x="53.0" y="288.68"/>
      <point x="66.6408" y="264.4924"/>
      <point x="87.63376000000001" y="246.607312" type="curve" smooth="yes"/>
      <point x="128.3848" y="211.8892"/>
      <point x="196.84" y="200.92"/>
      <point x="247" y="193" type="curve" smooth="yes"/>
      <point x="279.0454" y="188.01516"/>
      <point x="332.3896255648" y="179.4805157392"/>
      <point x="360.44733773498353" y="151.14536758059424" type="curve" smooth="yes"/>
      <point x="371.7898841872" y="139.6906654912"/>
      <point x="379.0" y="125.00008000000001"/>
      <point x="379" y="106" type="curve" smooth="yes"/>
      <point x="379" y="67"/>
      <point x="349" y="22"/>
      <point x="247" y="22" type="curve" smooth="yes"/>
      <point x="151" y="22"/>
      <point x="111" y="78"/>
      <point x="91" y="153" type="curve"/>
      <point x="88" y="162"/>
      <point x="86" y="168"/>
      <point x="72" y="168" type="curve" smooth="yes"/>
      <point x="53" y="168"/>
      <point x="53" y="159"/>
      <point x="53" y="139" type="curve" smooth="yes"/>
      <point x="53" y="18" type="line" smooth="yes"/>
      <point x="53" y="1"/>
      <point x="53" y="-10"/>
      <point x="69" y="-10" type="curve" smooth="yes"/>
      <point x="75" y="-10"/>
      <point x="76" y="-9"/>
      <point x="95" y="9" type="curve" smooth="yes"/>
      <point x="118" y="33" type="line"/>
      <point x="167" y="-10"/>
      <point x="227" y="-10"/>
      <point x="247" y="-10" type="curve" smooth="yes"/>
      <point x="395" y="-10"/>
      <point x="434" y="70"/>
    </contour>
  </outline>
</glyph>
<glyph name="t" format="2">
  <advance width="481"/>
  <unicode hex="0074"/>
  <outline>
    <contour>
      <point x="218" y="392" type="line"/>
      <point x="382" y="392" type="line"/>
      <point x="382" y="431" type="line"/>
      <point x="218" y="431" type="line"/>
      <point x="218" y="615" type="line"/>
      <point x="181" y="615" type="line"/>
      <point x="180" y="526"/>
      <point x="137" y="428"/>
      <point x="36" y="424" type="curve"/>
      <point x="36" y="392" type="line"/>
      <point x="135" y="392" type="line"/>
      <point x="135" y="125" type="line" smooth="yes"/>
      <point x="135" y="20"/>
      <point x="214" y="-10"/>
      <point x="282" y="-10" type="curve" smooth="yes"/>
      <point x="351" y="-10"/>
      <point x="401" y="45"/>
      <point x="401" y="126" type="curve" smooth="yes"/>
      <point x="401" y="181" type="line"/>
      <point x="364" y="181" type="line"/>
      <point x="364" y="128" type="line" smooth="yes"/>
      <point x="364" y="57"/>
      <point x="327" y="25"/>
      <point x="290" y="25" type="curve" smooth="yes"/>
      <point x="218" y="25"/>
      <point x="218" y="106"/>
      <point x="218" y="125" type="curve" smooth="yes"/>
    </contour>
  </outline>
</glyph>
<glyph name="u" format="2">
	<unicode hex="0075"/>
	<advance width="1350"/>
	<outline>
		<contour>
			<point x="284" y="646" type="curve" smooth="yes"/>
			<point x="284" y="334" type="line" smooth="yes"/>
			<point x="284" y="198"/>
			<point x="284" y="110"/>
			<point x="374" y="44" type="curve" smooth="yes"/>
			<point x="450" y="-12"/>
			<point x="550" y="-20"/>
			<point x="634" y="-20" type="curve" smooth="yes"/>
			<point x="760" y="-20"/>
			<point x="866" y="30"/>
			<point x="936" y="144" type="curve"/>
			<point x="936" y="144" type="line"/>
			<point x="936" y="-20" type="line"/>
			<point x="1252" y="0" type="line"/>
			<point x="1252" y="78" type="line"/>
			<point x="1112" y="78"/>
			<point x="1094" y="92"/>
			<point x="1094" y="190" type="curve" smooth="yes"/>
			<point x="1094" y="882" type="line"/>
			<point x="770" y="860" type="line"/>
			<point x="770" y="782" type="line"/>
			<point x="910" y="782"/>
			<point x="928" y="768"/>
			<point x="928" y="670" type="curve" smooth="yes"/>
			<point x="928" y="336" type="line" smooth="yes"/>
			<point x="928" y="154"/>
			<point x="802" y="44"/>
			<point x="648" y="44" type="curve" smooth="yes"/>
			<point x="458" y="44"/>
			<point x="450" y="128"/>
			<point x="450" y="226" type="curve" smooth="yes"/>
			<point x="450" y="882" type="line"/>
			<point x="126" y="860" type="line"/>
			<point x="126" y="782" type="line"/>
			<point x="284" y="782"/>
			<point x="284" y="764"/>
		</contour>
	</outline>
</glyph>
<glyph name="v" format="2">
	<unicode hex="0076"/>
	<advance width="1286"/>
	<outline>
		<contour>
			<point x="642" y="-20" type="curve" smooth="yes"/>
			<point x="682" y="-20"/>
			<point x="692" y="-2"/>
			<point x="706" y="26" type="curve" smooth="yes"/>
			<point x="808" y="238"/>
			<point x="910" y="450"/>
			<point x="1012" y="662" type="curve" smooth="yes"/>
			<point x="1060" y="760"/>
			<point x="1132" y="782"/>
			<point x="1206" y="784" type="curve"/>
			<point x="1206" y="810"/>
			<point x="1206" y="836"/>
			<point x="1206" y="862" type="curve"/>
			<point x="1204" y="862"/>
			<point x="1114" y="854"/>
			<point x="1046" y="854" type="curve" smooth="yes"/>
			<point x="980" y="854"/>
			<point x="868" y="860"/>
			<point x="856" y="862" type="curve"/>
			<point x="856" y="836"/>
			<point x="856" y="810"/>
			<point x="856" y="784" type="curve"/>
			<point x="942" y="780"/>
			<point x="942" y="716"/>
			<point x="942" y="710" type="curve" smooth="yes"/>
			<point x="942" y="684"/>
			<point x="932" y="664"/>
			<point x="924" y="648" type="curve" smooth="yes"/>
			<point x="846" y="487"/>
			<point x="768" y="326"/>
			<point x="690" y="164" type="curve"/>
			<point x="603" y="343"/>
			<point x="517" y="522"/>
			<point x="430" y="702" type="curve"/>
			<point x="424" y="712"/>
			<point x="418" y="726"/>
			<point x="418" y="740" type="curve" smooth="yes"/>
			<point x="418" y="784"/>
			<point x="490" y="784"/>
			<point x="524" y="784" type="curve"/>
			<point x="524" y="810"/>
			<point x="524" y="836"/>
			<point x="524" y="862" type="curve"/>
			<point x="458" y="858"/>
			<point x="308" y="854"/>
			<point x="286" y="854" type="curve" smooth="yes"/>
			<point x="244" y="854"/>
			<point x="124" y="858"/>
			<point x="80" y="862" type="curve"/>
			<point x="80" y="836"/>
			<point x="80" y="810"/>
			<point x="80" y="784" type="curve"/>
			<point x="198" y="784"/>
			<point x="218" y="778"/>
			<point x="248" y="716" type="curve" smooth="yes"/>
			<point x="358" y="487"/>
			<point x="468" y="258"/>
			<point x="578" y="28" type="curve" smooth="yes"/>
			<point x="598" y="-14"/>
			<point x="618" y="-20"/>
		</contour>
	</outline>
</glyph>
<glyph name="w" format="2">
	<unicode hex="0077"/>
	<advance width="1740"/>
	<outline>
		<contour>
			<point x="1482" y="658" type="line" smooth="yes"/>
			<point x="1534" y="782"/>
			<point x="1628" y="784"/>
			<point x="1662" y="784" type="curve"/>
			<point x="1662" y="810"/>
			<point x="1662" y="836"/>
			<point x="1662" y="862" type="curve"/>
			<point x="1658" y="862"/>
			<point x="1576" y="854"/>
			<point x="1506" y="854" type="curve" smooth="yes"/>
			<point x="1452" y="854"/>
			<point x="1330" y="860"/>
			<point x="1304" y="862" type="curve"/>
			<point x="1304" y="836"/>
			<point x="1304" y="810"/>
			<point x="1304" y="784" type="curve"/>
			<point x="1386" y="782"/>
			<point x="1412" y="734"/>
			<point x="1412" y="698" type="curve" smooth="yes"/>
			<point x="1412" y="682"/>
			<point x="1410" y="678"/>
			<point x="1400" y="654" type="curve" smooth="yes"/>
			<point x="1196" y="158" type="line"/>
			<point x="968" y="708" type="line"/>
			<point x="966" y="714"/>
			<point x="962" y="728"/>
			<point x="962" y="736" type="curve" smooth="yes"/>
			<point x="962" y="784"/>
			<point x="1036" y="784"/>
			<point x="1072" y="784" type="curve"/>
			<point x="1072" y="862" type="line"/>
			<point x="1028" y="858"/>
			<point x="886" y="854"/>
			<point x="850" y="854" type="curve" smooth="yes"/>
			<point x="782" y="854"/>
			<point x="696" y="860"/>
			<point x="662" y="862" type="curve"/>
			<point x="662" y="784" type="line"/>
			<point x="719" y="784"/>
			<point x="753" y="784"/>
			<point x="778" y="770" type="curve" smooth="yes"/>
			<point x="799" y="758"/>
			<point x="813" y="734"/>
			<point x="828" y="690" type="curve"/>
			<point x="622" y="188" type="line"/>
			<point x="410" y="698" type="line" smooth="yes"/>
			<point x="400" y="720"/>
			<point x="398" y="728"/>
			<point x="398" y="736" type="curve" smooth="yes"/>
			<point x="398" y="784"/>
			<point x="474" y="784"/>
			<point x="510" y="784" type="curve"/>
			<point x="510" y="862" type="line"/>
			<point x="468" y="858"/>
			<point x="328" y="854"/>
			<point x="276" y="854" type="curve" smooth="yes"/>
			<point x="260" y="854"/>
			<point x="130" y="856"/>
			<point x="76" y="862" type="curve"/>
			<point x="76" y="784" type="line"/>
			<point x="194" y="784"/>
			<point x="206" y="774"/>
			<point x="230" y="716" type="curve" smooth="yes"/>
			<point x="516" y="30" type="line" smooth="yes"/>
			<point x="530" y="-2"/>
			<point x="536" y="-20"/>
			<point x="576" y="-20" type="curve" smooth="yes"/>
			<point x="602" y="-20"/>
			<point x="620" y="-12"/>
			<point x="636" y="26" type="curve" smooth="yes"/>
			<point x="868" y="592" type="line"/>
			<point x="1102" y="26" type="line" smooth="yes"/>
			<point x="1118" y="-14"/>
			<point x="1138" y="-20"/>
			<point x="1162" y="-20" type="curve" smooth="yes"/>
			<point x="1202" y="-20"/>
			<point x="1208" y="-2"/>
			<point x="1222" y="30" type="curve" smooth="yes"/>
		</contour>
	</outline>
</glyph>
<glyph name="y" format="2">
	<unicode hex="0079"/>
	<advance width="1286"/>
	<outline>
		<contour>
			<point x="286" y="-408" type="curve" smooth="yes"/>
			<point x="464" y="-408"/>
			<point x="566" y="-238"/>
			<point x="596" y="-178" type="curve" smooth="yes"/>
			<point x="1008" y="660" type="line" smooth="yes"/>
			<point x="1066" y="780"/>
			<point x="1164" y="782"/>
			<point x="1206" y="784" type="curve"/>
			<point x="1206" y="862" type="line"/>
			<point x="1192" y="860"/>
			<point x="1108" y="854"/>
			<point x="1046" y="854" type="curve" smooth="yes"/>
			<point x="994" y="854"/>
			<point x="880" y="860"/>
			<point x="856" y="862" type="curve"/>
			<point x="856" y="784" type="line"/>
			<point x="928" y="780"/>
			<point x="940" y="736"/>
			<point x="940" y="710" type="curve" smooth="yes"/>
			<point x="940" y="686"/>
			<point x="932" y="670"/>
			<point x="924" y="654" type="curve" smooth="yes"/>
			<point x="690" y="180" type="line"/>
			<point x="432" y="704" type="line"/>
			<point x="426" y="714"/>
			<point x="420" y="726"/>
			<point x="420" y="740" type="curve" smooth="yes"/>
			<point x="420" y="784"/>
			<point x="490" y="784"/>
			<point x="524" y="784" type="curve"/>
			<point x="524" y="862" type="line"/>
			<point x="480" y="858"/>
			<point x="338" y="854"/>
			<point x="288" y="854" type="curve" smooth="yes"/>
			<point x="256" y="854"/>
			<point x="130" y="858"/>
			<point x="80" y="862" type="curve"/>
			<point x="80" y="784" type="line"/>
			<point x="202" y="784"/>
			<point x="220" y="776"/>
			<point x="252" y="712" type="curve" smooth="yes"/>
			<point x="602" y="0" type="line"/>
			<point x="585" y="-35"/>
			<point x="567" y="-69"/>
			<point x="550" y="-104" type="curve" smooth="yes"/>
			<point x="498" y="-208"/>
			<point x="430" y="-344"/>
			<point x="288" y="-344" type="curve" smooth="yes"/>
			<point x="280" y="-344"/>
			<point x="238" y="-344"/>
			<point x="202" y="-322" type="curve"/>
			<point x="224" y="-312"/>
			<point x="254" y="-288"/>
			<point x="254" y="-240" type="curve" smooth="yes"/>
			<point x="254" y="-186"/>
			<point x="216" y="-150"/>
			<point x="164" y="-150" type="curve" smooth="yes"/>
			<point x="116" y="-150"/>
			<point x="74" y="-182"/>
			<point x="74" y="-242" type="curve" smooth="yes"/>
			<point x="74" y="-338"/>
			<point x="172" y="-408"/>
		</contour>
	</outline>
</glyph>
<glyph name="z" format="2">
	<unicode hex="007A"/>
	<advance width="1092"/>
	<outline>
		<contour>
			<point x="742" y="798" type="line"/>
			<point x="114" y="82" type="line"/>
			<point x="92" y="60"/>
			<point x="92" y="56"/>
			<point x="92" y="40" type="curve" smooth="yes"/>
			<point x="92" y="0"/>
			<point x="114" y="0"/>
			<point x="152" y="0" type="curve" smooth="yes"/>
			<point x="926" y="0" type="line"/>
			<point x="964" y="394" type="line"/>
			<point x="890" y="394" type="line"/>
			<point x="868" y="162"/>
			<point x="830" y="70"/>
			<point x="564" y="70" type="curve" smooth="yes"/>
			<point x="310" y="70" type="line"/>
			<point x="936" y="784" type="line"/>
			<point x="958" y="806"/>
			<point x="958" y="810"/>
			<point x="958" y="824" type="curve" smooth="yes"/>
			<point x="958" y="862"/>
			<point x="934" y="862"/>
			<point x="898" y="862" type="curve" smooth="yes"/>
			<point x="152" y="862" type="line"/>
			<point x="126" y="520" type="line"/>
			<point x="200" y="520" type="line"/>
			<point x="214" y="746"/>
			<point x="280" y="798"/>
			<point x="500" y="798" type="curve" smooth="yes"/>
		</contour>
	</outline>
</glyph>
<glyph name="exclamdown" format="2">
	<unicode hex="00A1"/>
	<advance width="351"/>
	<outline>
		<contour>
			<point x="176" y="-215" type="curve" smooth="yes"/>
			<point x="205" y="-215"/>
			<point x="236" y="-194"/>
			<point x="236" y="-158" type="curve"/>
			<point x="222.68" y="-13.478"/>
			<point x="209.36" y="131.044"/>
			<point x="196" y="276" type="curve" smooth="yes"/>
			<point x="194" y="294"/>
			<point x="194" y="303"/>
			<point x="176" y="303" type="curve" smooth="yes"/>
			<point x="159" y="303"/>
			<point x="157" y="294"/>
			<point x="156" y="278" type="curve" smooth="yes"/>
			<point x="142.68" y="132.812"/>
			<point x="129.36" y="-12.376"/>
			<point x="116" y="-158" type="curve"/>
			<point x="116" y="-194"/>
			<point x="147" y="-215"/>
		</contour>
		<contour>
			<point x="236" y="440" type="curve" smooth="yes"/>
			<point x="236" y="472"/>
			<point x="210" y="500"/>
			<point x="176" y="500" type="curve" smooth="yes"/>
			<point x="143" y="500"/>
			<point x="116" y="472"/>
			<point x="116" y="440" type="curve" smooth="yes"/>
			<point x="116" y="408"/>
			<point x="142" y="380"/>
			<point x="176" y="380" type="curve" smooth="yes"/>
			<point x="209" y="380"/>
			<point x="236" y="408"/>
		</contour>
	</outline>
</glyph>
<glyph name="dieresis" format="2">
	<unicode hex="00A8"/>
	<advance width="1222"/>
	<outline>
		<contour>
			<point x="498" y="1238" type="curve" smooth="yes"/>
			<point x="498" y="1296"/>
			<point x="452" y="1352"/>
			<point x="384" y="1352" type="curve" smooth="yes"/>
			<point x="326" y="1352"/>
			<point x="272" y="1306"/>
			<point x="272" y="1240" type="curve" smooth="yes"/>
			<point x="272" y="1166"/>
			<point x="332" y="1126"/>
			<point x="384" y="1126" type="curve" smooth="yes"/>
			<point x="454" y="1126"/>
			<point x="498" y="1186"/>
		</contour>
		<contour>
			<point x="948" y="1238" type="curve" smooth="yes"/>
			<point x="948" y="1312"/>
			<point x="888" y="1352"/>
			<point x="836" y="1352" type="curve" smooth="yes"/>
			<point x="766" y="1352"/>
			<point x="722" y="1292"/>
			<point x="722" y="1240" type="curve" smooth="yes"/>
			<point x="722" y="1182"/>
			<point x="768" y="1126"/>
			<point x="836" y="1126" type="curve" smooth="yes"/>
			<point x="894" y="1126"/>
			<point x="948" y="1172"/>
		</contour>
	</outline>
</glyph>
<glyph name="macron" format="2">
	<unicode hex="00AF"/>
	<advance width="1222"/>
	<outline>
		<contour>
			<point x="1030" y="1116" type="line"/>
			<point x="1030" y="1200" type="line"/>
			<point x="190" y="1200" type="line"/>
			<point x="190" y="1116" type="line"/>
		</contour>
	</outline>
</glyph>
<glyph name="acute" format="2">
	<unicode hex="00B4"/>
	<advance width="1222"/>
	<outline>
		<contour>
			<point x="554" y="1008" type="line"/>
			<point x="892" y="1236" type="line" smooth="yes"/>
			<point x="916" y="1252"/>
			<point x="942" y="1270"/>
			<point x="942" y="1308" type="curve" smooth="yes"/>
			<point x="942" y="1348"/>
			<point x="906" y="1396"/>
			<point x="856" y="1396" type="curve" smooth="yes"/>
			<point x="820" y="1396"/>
			<point x="796" y="1372"/>
			<point x="796" y="1370" type="curve"/>
			<point x="699" y="1269"/>
			<point x="603" y="1168"/>
			<point x="506" y="1066" type="curve"/>
		</contour>
	</outline>
</glyph>
<glyph name="cedilla" format="2">
	<unicode hex="00B8"/>
	<advance width="1092"/>
	<outline>
		<contour>
			<point x="722" y="-244" type="curve" smooth="yes"/>
			<point x="722" y="-350"/>
			<point x="486" y="-350"/>
			<point x="410" y="-350" type="curve" smooth="yes"/>
			<point x="384" y="-350"/>
			<point x="358" y="-350"/>
			<point x="332" y="-350" type="curve"/>
			<point x="332" y="-414" type="line"/>
			<point x="367" y="-414"/>
			<point x="401" y="-414"/>
			<point x="436" y="-414" type="curve" smooth="yes"/>
			<point x="572" y="-414"/>
			<point x="668" y="-404"/>
			<point x="736" y="-386" type="curve" smooth="yes"/>
			<point x="858" y="-354"/>
			<point x="888" y="-300"/>
			<point x="888" y="-244" type="curve" smooth="yes"/>
			<point x="888" y="-138"/>
			<point x="782" y="-100"/>
			<point x="692" y="-86" type="curve"/>
			<point x="692" y="-42" type="line"/>
			<point x="526" y="-42" type="line"/>
			<point x="526" y="-140" type="line"/>
			<point x="652" y="-140"/>
			<point x="722" y="-178"/>
		</contour>
	</outline>
</glyph>
<glyph name="questiondown" format="2">
	<unicode hex="00BF"/>
	<advance width="1156"/>
	<outline>
		<contour>
			<point x="158" y="-138" type="curve" smooth="yes"/>
			<point x="158" y="-210"/>
			<point x="190" y="-408"/>
			<point x="546" y="-408" type="curve" smooth="yes"/>
			<point x="826" y="-408"/>
			<point x="998" y="-304"/>
			<point x="998" y="-142" type="curve" smooth="yes"/>
			<point x="998" y="-50"/>
			<point x="918" y="-40"/>
			<point x="900" y="-40" type="curve" smooth="yes"/>
			<point x="870" y="-40"/>
			<point x="804" y="-60"/>
			<point x="804" y="-138" type="curve" smooth="yes"/>
			<point x="804" y="-172"/>
			<point x="822" y="-224"/>
			<point x="890" y="-234" type="curve"/>
			<point x="806" y="-340"/>
			<point x="596" y="-344"/>
			<point x="552" y="-344" type="curve" smooth="yes"/>
			<point x="352" y="-344"/>
			<point x="348" y="-242"/>
			<point x="348" y="-152" type="curve" smooth="yes"/>
			<point x="348" y="-80"/>
			<point x="356" y="-32"/>
			<point x="404" y="22" type="curve" smooth="yes"/>
			<point x="568" y="202"/>
			<point x="584" y="376"/>
			<point x="584" y="528" type="curve" smooth="yes"/>
			<point x="584" y="536"/>
			<point x="584" y="544"/>
			<point x="584" y="552" type="curve" smooth="yes"/>
			<point x="584" y="594"/>
			<point x="578" y="606"/>
			<point x="546" y="606" type="curve" smooth="yes"/>
			<point x="510" y="606"/>
			<point x="510" y="588"/>
			<point x="510" y="552" type="curve" smooth="yes"/>
			<point x="510" y="522" type="line" smooth="yes"/>
			<point x="510" y="442"/>
			<point x="510" y="240"/>
			<point x="278" y="74" type="curve" smooth="yes"/>
			<point x="238" y="44"/>
			<point x="158" y="-12"/>
		</contour>
		<contour>
			<point x="666" y="880" type="curve" smooth="yes"/>
			<point x="666" y="944"/>
			<point x="614" y="1000"/>
			<point x="546" y="1000" type="curve" smooth="yes"/>
			<point x="480" y="1000"/>
			<point x="426" y="944"/>
			<point x="426" y="880" type="curve" smooth="yes"/>
			<point x="426" y="816"/>
			<point x="478" y="760"/>
			<point x="546" y="760" type="curve" smooth="yes"/>
			<point x="612" y="760"/>
			<point x="666" y="816"/>
		</contour>
	</outline>
</glyph>
<glyph name="Oslash" format="2">
	<unicode hex="00D8"/>
	<advance width="1870"/>
	<outline>
		<contour>
			<point x="1574" y="1442" type="line"/>
			<point x="1518" y="1486" type="line"/>
			<point x="1364" y="1288" type="line"/>
			<point x="1284" y="1332"/>
			<point x="1142" y="1408"/>
			<point x="934" y="1408" type="curve" smooth="yes"/>
			<point x="498" y="1408"/>
			<point x="158" y="1072"/>
			<point x="158" y="678" type="curve" smooth="yes"/>
			<point x="158" y="476"/>
			<point x="250" y="266"/>
			<point x="446" y="118" type="curve"/>
			<point x="296" y="-76" type="line"/>
			<point x="313" y="-91"/>
			<point x="331" y="-105"/>
			<point x="348" y="-120" type="curve"/>
			<point x="504" y="78" type="line"/>
			<point x="572" y="34"/>
			<point x="726" y="-42"/>
			<point x="934" y="-42" type="curve" smooth="yes"/>
			<point x="1366" y="-42"/>
			<point x="1710" y="282"/>
			<point x="1710" y="678" type="curve" smooth="yes"/>
			<point x="1710" y="900"/>
			<point x="1598" y="1114"/>
			<point x="1420" y="1246" type="curve"/>
		</contour>
		<contour>
			<point x="934" y="22" type="curve" smooth="yes"/>
			<point x="846" y="22"/>
			<point x="694" y="40"/>
			<point x="562" y="150" type="curve"/>
			<point x="1356" y="1164" type="line"/>
			<point x="1502" y="1012"/>
			<point x="1510" y="770"/>
			<point x="1510" y="678" type="curve" smooth="yes"/>
			<point x="1510" y="458"/>
			<point x="1458" y="308"/>
			<point x="1350" y="192" type="curve" smooth="yes"/>
			<point x="1264" y="98"/>
			<point x="1116" y="22"/>
		</contour>
		<contour>
			<point x="510" y="200" type="line"/>
			<point x="378" y="340"/>
			<point x="358" y="538"/>
			<point x="358" y="678" type="curve" smooth="yes"/>
			<point x="358" y="885"/>
			<point x="412" y="1043"/>
			<point x="503" y="1154" type="curve" smooth="yes"/>
			<point x="607" y="1281"/>
			<point x="760" y="1344"/>
			<point x="934" y="1344" type="curve" smooth="yes"/>
			<point x="976" y="1344"/>
			<point x="1154" y="1342"/>
			<point x="1304" y="1214" type="curve"/>
		</contour>
	</outline>
</glyph>
<glyph name="germandbls" format="2">
	<unicode hex="00DF"/>
	<advance width="1222"/>
	<outline>
		<contour>
			<point x="790" y="826" type="curve"/>
			<point x="970" y="888"/>
			<point x="1062" y="1004"/>
			<point x="1062" y="1118" type="curve" smooth="yes"/>
			<point x="1062" y="1274"/>
			<point x="894" y="1408"/>
			<point x="664" y="1408" type="curve" smooth="yes"/>
			<point x="478" y="1408"/>
			<point x="274" y="1308"/>
			<point x="274" y="1106" type="curve" smooth="yes"/>
			<point x="274" y="862" type="line"/>
			<point x="116" y="862" type="line"/>
			<point x="116" y="784" type="line"/>
			<point x="274" y="784" type="line"/>
			<point x="274" y="164" type="line" smooth="yes"/>
			<point x="274" y="78"/>
			<point x="254" y="78"/>
			<point x="116" y="78" type="curve"/>
			<point x="116" y="0" type="line"/>
			<point x="150" y="2"/>
			<point x="294" y="8"/>
			<point x="334" y="8" type="curve" smooth="yes"/>
			<point x="354" y="8"/>
			<point x="386" y="8"/>
			<point x="432" y="0" type="curve"/>
			<point x="432" y="1104" type="line" smooth="yes"/>
			<point x="432" y="1344"/>
			<point x="646" y="1344"/>
			<point x="662" y="1344" type="curve" smooth="yes"/>
			<point x="776" y="1344"/>
			<point x="888" y="1272"/>
			<point x="888" y="1120" type="curve" smooth="yes"/>
			<point x="888" y="984"/>
			<point x="788" y="874"/>
			<point x="606" y="862" type="curve" smooth="yes"/>
			<point x="582" y="860"/>
			<point x="562" y="860"/>
			<point x="562" y="830" type="curve" smooth="yes"/>
			<point x="562" y="824"/>
			<point x="562" y="800"/>
			<point x="592" y="798" type="curve" smooth="yes"/>
			<point x="846" y="782"/>
			<point x="954" y="562"/>
			<point x="954" y="348" type="curve" smooth="yes"/>
			<point x="954" y="114"/>
			<point x="810" y="44"/>
			<point x="714" y="44" type="curve" smooth="yes"/>
			<point x="710" y="44"/>
			<point x="654" y="44"/>
			<point x="616" y="70" type="curve"/>
			<point x="624" y="74"/>
			<point x="654" y="92"/>
			<point x="654" y="138" type="curve" smooth="yes"/>
			<point x="654" y="184"/>
			<point x="624" y="216"/>
			<point x="576" y="216" type="curve" smooth="yes"/>
			<point x="532" y="216"/>
			<point x="498" y="186"/>
			<point x="498" y="136" type="curve" smooth="yes"/>
			<point x="498" y="50"/>
			<point x="582" y="-20"/>
			<point x="718" y="-20" type="curve" smooth="yes"/>
			<point x="934" y="-20"/>
			<point x="1128" y="134"/>
			<point x="1128" y="348" type="curve" smooth="yes"/>
			<point x="1128" y="536"/>
			<point x="1012" y="738"/>
		</contour>
	</outline>
</glyph>
<glyph name="oslash" format="2">
	<unicode hex="00F8"/>
	<advance width="1222"/>
	<outline>
		<contour>
			<point x="216" y="-212" type="line"/>
			<point x="378" y="28" type="line"/>
			<point x="492" y="-20"/>
			<point x="586" y="-20"/>
			<point x="610" y="-20" type="curve" smooth="yes"/>
			<point x="892" y="-20"/>
			<point x="1112" y="184"/>
			<point x="1112" y="426" type="curve" smooth="yes"/>
			<point x="1112" y="558"/>
			<point x="1046" y="710"/>
			<point x="900" y="806" type="curve"/>
			<point x="1056" y="1038" type="line"/>
			<point x="1002" y="1074" type="line"/>
			<point x="844" y="838" type="line"/>
			<point x="786" y="868"/>
			<point x="704" y="892"/>
			<point x="610" y="892" type="curve" smooth="yes"/>
			<point x="326" y="892"/>
			<point x="108" y="676"/>
			<point x="108" y="426" type="curve" smooth="yes"/>
			<point x="108" y="252"/>
			<point x="218" y="124"/>
			<point x="322" y="60" type="curve"/>
			<point x="166" y="-176" type="line"/>
		</contour>
		<contour>
			<point x="610" y="44" type="curve" smooth="yes"/>
			<point x="502" y="44"/>
			<point x="430" y="86"/>
			<point x="422" y="90" type="curve"/>
			<point x="852" y="734" type="line"/>
			<point x="928" y="658"/>
			<point x="946" y="548"/>
			<point x="946" y="426" type="curve" smooth="yes"/>
			<point x="946" y="374"/>
			<point x="946" y="224"/>
			<point x="849" y="128" type="curve" smooth="yes"/>
			<point x="799" y="79"/>
			<point x="724" y="44"/>
		</contour>
		<contour>
			<point x="370" y="132" type="line"/>
			<point x="280" y="210"/>
			<point x="274" y="348"/>
			<point x="274" y="426" type="curve" smooth="yes"/>
			<point x="274" y="546"/>
			<point x="290" y="644"/>
			<point x="356" y="722" type="curve" smooth="yes"/>
			<point x="416" y="792"/>
			<point x="512" y="828"/>
			<point x="610" y="828" type="curve" smooth="yes"/>
			<point x="706" y="828"/>
			<point x="776" y="792"/>
			<point x="802" y="776" type="curve"/>
		</contour>
	</outline>
</glyph>
<glyph name="dotlessi" format="2">
	<unicode hex="0131"/>
	<advance width="702"/>
	<outline>
		<contour>
			<point x="444" y="882" type="line"/>
			<point x="136" y="860" type="line"/>
			<point x="136" y="782" type="line"/>
			<point x="268" y="782"/>
			<point x="286" y="768"/>
			<point x="286" y="670" type="curve" smooth="yes"/>
			<point x="286" y="164" type="line" smooth="yes"/>
			<point x="286" y="78"/>
			<point x="266" y="78"/>
			<point x="128" y="78" type="curve"/>
			<point x="128" y="78" type="line"/>
			<point x="128" y="0" type="line"/>
			<point x="186" y="4"/>
			<point x="342" y="8"/>
			<point x="362" y="8" type="curve" smooth="yes"/>
			<point x="382" y="8"/>
			<point x="534" y="4"/>
			<point x="586" y="0" type="curve"/>
			<point x="586" y="78" type="line"/>
			<point x="462" y="78"/>
			<point x="444" y="78"/>
			<point x="444" y="162" type="curve" smooth="yes"/>
		</contour>
	</outline>
</glyph>
<glyph name="OE" format="2">
	<unicode hex="0152"/>
	<advance width="2414"/>
	<outline>
		<contour>
			<point x="2320" y="532" type="line"/>
			<point x="2246" y="532" type="line"/>
			<point x="2192" y="230"/>
			<point x="2146" y="78"/>
			<point x="1790" y="78" type="curve" smooth="yes"/>
			<point x="1492" y="78" type="line" smooth="yes"/>
			<point x="1394" y="78"/>
			<point x="1394" y="94"/>
			<point x="1394" y="156" type="curve" smooth="yes"/>
			<point x="1394" y="670" type="line"/>
			<point x="1648" y="670" type="line" smooth="yes"/>
			<point x="1846" y="670"/>
			<point x="1906" y="632"/>
			<point x="1906" y="436" type="curve"/>
			<point x="1980" y="436" type="line"/>
			<point x="1980" y="982" type="line"/>
			<point x="1906" y="982" type="line"/>
			<point x="1906" y="788"/>
			<point x="1846" y="748"/>
			<point x="1648" y="748" type="curve" smooth="yes"/>
			<point x="1394" y="748" type="line"/>
			<point x="1394" y="1210" type="line" smooth="yes"/>
			<point x="1394" y="1272"/>
			<point x="1394" y="1288"/>
			<point x="1492" y="1288" type="curve" smooth="yes"/>
			<point x="1772" y="1288" type="line" smooth="yes"/>
			<point x="2102" y="1288"/>
			<point x="2144" y="1166"/>
			<point x="2180" y="900" type="curve"/>
			<point x="2254" y="900" type="line"/>
			<point x="2192" y="1366" type="line"/>
			<point x="1310" y="1366" type="line" smooth="yes"/>
			<point x="1286" y="1366"/>
			<point x="1246" y="1366"/>
			<point x="1156" y="1384" type="curve" smooth="yes"/>
			<point x="1032" y="1406"/>
			<point x="996" y="1408"/>
			<point x="954" y="1408" type="curve" smooth="yes"/>
			<point x="536" y="1408"/>
			<point x="184" y="1082"/>
			<point x="184" y="678" type="curve" smooth="yes"/>
			<point x="184" y="272"/>
			<point x="542" y="-42"/>
			<point x="954" y="-42" type="curve" smooth="yes"/>
			<point x="986" y="-42"/>
			<point x="1022" y="-42"/>
			<point x="1124" y="-22" type="curve" smooth="yes"/>
			<point x="1216" y="-6"/>
			<point x="1258" y="0"/>
			<point x="1310" y="0" type="curve" smooth="yes"/>
			<point x="2226" y="0" type="line"/>
		</contour>
		<contour>
			<point x="398" y="708" type="curve" smooth="yes"/>
			<point x="398" y="1060"/>
			<point x="646" y="1344"/>
			<point x="966" y="1344" type="curve" smooth="yes"/>
			<point x="1194" y="1344"/>
			<point x="1214" y="1244"/>
			<point x="1218" y="964" type="curve" smooth="yes"/>
			<point x="1220" y="870"/>
			<point x="1220" y="778"/>
			<point x="1220" y="684" type="curve" smooth="yes"/>
			<point x="1220" y="412"/>
			<point x="1220" y="312"/>
			<point x="1210" y="236" type="curve" smooth="yes"/>
			<point x="1192" y="92"/>
			<point x="1154" y="22"/>
			<point x="966" y="22" type="curve" smooth="yes"/>
			<point x="640" y="22"/>
			<point x="398" y="340"/>
		</contour>
	</outline>
</glyph>
<glyph name="oe" format="2">
	<unicode hex="0153"/>
	<advance width="1870"/>
	<outline>
		<contour>
			<point x="590" y="-20" type="curve" smooth="yes"/>
			<point x="746" y="-20"/>
			<point x="894" y="44"/>
			<point x="1002" y="184" type="curve"/>
			<point x="1080" y="70"/>
			<point x="1238" y="-20"/>
			<point x="1416" y="-20" type="curve" smooth="yes"/>
			<point x="1676" y="-20"/>
			<point x="1776" y="192"/>
			<point x="1776" y="240" type="curve" smooth="yes"/>
			<point x="1776" y="250"/>
			<point x="1772" y="272"/>
			<point x="1738" y="272" type="curve" smooth="yes"/>
			<point x="1712" y="272"/>
			<point x="1706" y="258"/>
			<point x="1700" y="238" type="curve"/>
			<point x="1644" y="86"/>
			<point x="1508" y="50"/>
			<point x="1426" y="50" type="curve" smooth="yes"/>
			<point x="1348" y="50"/>
			<point x="1082" y="90"/>
			<point x="1082" y="452" type="curve"/>
			<point x="1716" y="452" type="line" smooth="yes"/>
			<point x="1760" y="452"/>
			<point x="1776" y="452"/>
			<point x="1776" y="500" type="curve" smooth="yes"/>
			<point x="1776" y="676"/>
			<point x="1680" y="892"/>
			<point x="1388" y="892" type="curve" smooth="yes"/>
			<point x="1270" y="892"/>
			<point x="1116" y="852"/>
			<point x="996" y="694" type="curve"/>
			<point x="906" y="816"/>
			<point x="758" y="892"/>
			<point x="590" y="892" type="curve" smooth="yes"/>
			<point x="318" y="892"/>
			<point x="96" y="690"/>
			<point x="96" y="436" type="curve" smooth="yes"/>
			<point x="96" y="188"/>
			<point x="314" y="-20"/>
		</contour>
		<contour>
			<point x="592" y="44" type="curve" smooth="yes"/>
			<point x="516" y="44"/>
			<point x="272" y="84"/>
			<point x="272" y="446" type="curve" smooth="yes"/>
			<point x="272" y="796"/>
			<point x="520" y="828"/>
			<point x="592" y="828" type="curve" smooth="yes"/>
			<point x="690" y="828"/>
			<point x="916" y="772"/>
			<point x="916" y="446" type="curve" smooth="yes"/>
			<point x="916" y="98"/>
			<point x="684" y="44"/>
		</contour>
		<contour>
			<point x="1086" y="512" type="line"/>
			<point x="1112" y="762"/>
			<point x="1288" y="828"/>
			<point x="1384" y="828" type="curve" smooth="yes"/>
			<point x="1618" y="828"/>
			<point x="1628" y="566"/>
			<point x="1630" y="512" type="curve"/>
		</contour>
	</outline>
</glyph>
<glyph name="circumflex" format="2">
	<unicode hex="02C6"/>
	<advance width="1222"/>
	<outline>
		<contour>
			<point x="610" y="1388" type="line"/>
			<point x="298" y="1122" type="line"/>
			<point x="342" y="1064" type="line"/>
			<point x="610" y="1262" type="line"/>
			<point x="878" y="1064" type="line"/>
			<point x="922" y="1122" type="line"/>
		</contour>
	</outline>
</glyph>
<glyph name="caron" format="2">
	<unicode hex="02C7"/>
	<advance width="1222"/>
	<outline>
		<contour>
			<point x="610" y="1154" type="line"/>
			<point x="338" y="1288" type="line"/>
			<point x="302" y="1224" type="line"/>
			<point x="610" y="1028" type="line"/>
			<point x="918" y="1224" type="line"/>
			<point x="882" y="1288" type="line"/>
		</contour>
	</outline>
</glyph>
<glyph name="breve" format="2">
	<unicode hex="02D8"/>
	<advance width="611"/>
	<outline>
		<contour>
			<point x="450" y="694" type="line"/>
			<point x="448" y="610"/>
			<point x="373" y="564"/>
			<point x="305" y="564" type="curve" smooth="yes"/>
			<point x="236" y="564"/>
			<point x="162" y="610"/>
			<point x="160" y="694" type="curve"/>
			<point x="128" y="694" type="line"/>
			<point x="131" y="581"/>
			<point x="219" y="515"/>
			<point x="305" y="515" type="curve" smooth="yes"/>
			<point x="391" y="515"/>
			<point x="479" y="581"/>
			<point x="482" y="694" type="curve"/>
		</contour>
	</outline>
</glyph>
<glyph name="dotaccent" format="2">
	<unicode hex="02D9"/>
	<advance width="351"/>
	<outline>
		<contour>
			<point x="236" y="616" type="curve" smooth="yes"/>
			<point x="236" y="648"/>
			<point x="210" y="676"/>
			<point x="176" y="676" type="curve" smooth="yes"/>
			<point x="139" y="676"/>
			<point x="115" y="645"/>
			<point x="115" y="616" type="curve" smooth="yes"/>
			<point x="115" y="584"/>
			<point x="141" y="556"/>
			<point x="175" y="556" type="curve" smooth="yes"/>
			<point x="212" y="556"/>
			<point x="236" y="587"/>
		</contour>
	</outline>
</glyph>
<glyph name="ring" format="2">
	<unicode hex="02DA"/>
	<advance width="1792"/>
	<outline>
		<contour>
			<point x="1126" y="1254" type="curve" smooth="yes"/>
			<point x="1126" y="1350"/>
			<point x="1026" y="1430"/>
			<point x="896" y="1430" type="curve" smooth="yes"/>
			<point x="756" y="1430"/>
			<point x="664" y="1342"/>
			<point x="664" y="1256" type="curve" smooth="yes"/>
			<point x="664" y="1160"/>
			<point x="764" y="1080"/>
			<point x="894" y="1080" type="curve" smooth="yes"/>
			<point x="1034" y="1080"/>
			<point x="1126" y="1168"/>
		</contour>
		<contour>
			<point x="896" y="1144" type="curve" smooth="yes"/>
			<point x="840" y="1144"/>
			<point x="738" y="1144"/>
			<point x="738" y="1254" type="curve" smooth="yes"/>
			<point x="738" y="1366"/>
			<point x="838" y="1366"/>
			<point x="894" y="1366" type="curve" smooth="yes"/>
			<point x="950" y="1366"/>
			<point x="1052" y="1366"/>
			<point x="1052" y="1256" type="curve" smooth="yes"/>
			<point x="1052" y="1144"/>
			<point x="952" y="1144"/>
		</contour>
	</outline>
</glyph>
<glyph name="tilde" format="2">
  <advance width="611"/>
  <unicode hex="02DC"/>
  <outline>
    <contour>
      <point x="133" y="571" type="line"/>
      <point x="173" y="609"/>
      <point x="199" y="615"/>
      <point x="222" y="615" type="curve" smooth="yes"/>
      <point x="246" y="615"/>
      <point x="268" y="606"/>
      <point x="293" y="595" type="curve" smooth="yes"/>
      <point x="325" y="581"/>
      <point x="348" y="571"/>
      <point x="375" y="571" type="curve" smooth="yes"/>
      <point x="403.38704" y="571.0"/>
      <point x="423.449451488" y="581.40578564"/>
      <point x="449.15109952408494" y="603.8285721192407" type="curve" smooth="yes"/>
      <point x="463.2870856192" y="616.1611741936"/>
      <point x="479.12896" y="632.12896"/>
      <point x="499" y="652" type="curve"/>
      <point x="477" y="675" type="line"/>
      <point x="437" y="637"/>
      <point x="411" y="631"/>
      <point x="388" y="631" type="curve" smooth="yes"/>
      <point x="364" y="631"/>
      <point x="342" y="640"/>
      <point x="317" y="651" type="curve" smooth="yes"/>
      <point x="285" y="665"/>
      <point x="262" y="675"/>
      <point x="235" y="675" type="curve" smooth="yes"/>
      <point x="213.06456" y="675.0"/>
      <point x="196.5401285328" y="671.2539171696"/>
      <point x="169.04601773945413" y="649.2608147156349" type="curve" smooth="yes"/>
      <point x="153.92417157120002" y="637.1645401872"/>
      <point x="135.48396000000002" y="619.54848"/>
      <point x="111" y="594" type="curve"/>
    </contour>
  </outline>
</glyph>
<glyph name="hungarumlaut" format="2">
	<unicode hex="02DD"/>
	<advance width="1222"/>
	<outline>
		<contour>
			<point x="322" y="1058" type="line"/>
			<point x="382" y="1016" type="line"/>
			<point x="451" y="1095"/>
			<point x="521" y="1173"/>
			<point x="590" y="1252" type="curve" smooth="yes"/>
			<point x="604" y="1268"/>
			<point x="620" y="1288"/>
			<point x="620" y="1316" type="curve" smooth="yes"/>
			<point x="620" y="1358"/>
			<point x="580" y="1400"/>
			<point x="530" y="1400" type="curve" smooth="yes"/>
			<point x="508" y="1400"/>
			<point x="478" y="1396"/>
			<point x="452" y="1340" type="curve" smooth="yes"/>
		</contour>
		<contour>
			<point x="710" y="1058" type="line"/>
			<point x="730" y="1044"/>
			<point x="750" y="1030"/>
			<point x="770" y="1016" type="curve"/>
			<point x="839" y="1095"/>
			<point x="909" y="1173"/>
			<point x="978" y="1252" type="curve" smooth="yes"/>
			<point x="992" y="1268"/>
			<point x="1008" y="1288"/>
			<point x="1008" y="1316" type="curve" smooth="yes"/>
			<point x="1008" y="1358"/>
			<point x="968" y="1400"/>
			<point x="918" y="1400" type="curve" smooth="yes"/>
			<point x="896" y="1400"/>
			<point x="866" y="1396"/>
			<point x="840" y="1340" type="curve" smooth="yes"/>
		</contour>
	</outline>
</glyph>
<glyph name="endash" format="2">
	<unicode hex="2013"/>
	<advance width="611"/>
	<outline>
		<contour>
			<point x="596" y="250" type="line"/>
			<point x="596" y="282" type="line"/>
			<point x="14" y="282" type="line"/>
			<point x="14" y="250" type="line"/>
		</contour>
	</outline>
</glyph>
<glyph name="emdash" format="2">
	<unicode hex="2014"/>
	<advance width="2444"/>
	<outline>
		<contour>
			<point x="2386" y="500" type="line"/>
			<point x="2386" y="564" type="line"/>
			<point x="56" y="564" type="line"/>
			<point x="56" y="500" type="line"/>
		</contour>
	</outline>
</glyph>
<glyph name="quoteleft" format="2">
	<unicode hex="2018"/>
	<advance width="702"/>
	<outline>
		<contour>
			<point x="352" y="760" type="curve" smooth="yes"/>
			<point x="430" y="760"/>
			<point x="472" y="818"/>
			<point x="472" y="880" type="curve" smooth="yes"/>
			<point x="472" y="942"/>
			<point x="430" y="1000"/>
			<point x="352" y="1000" type="curve" smooth="yes"/>
			<point x="320" y="1000"/>
			<point x="286" y="990"/>
			<point x="264" y="966" type="curve"/>
			<point x="264" y="1086"/>
			<point x="298" y="1218"/>
			<point x="432" y="1330" type="curve"/>
			<point x="440" y="1334"/>
			<point x="448" y="1342"/>
			<point x="448" y="1354" type="curve" smooth="yes"/>
			<point x="448" y="1370"/>
			<point x="430" y="1388"/>
			<point x="414" y="1388" type="curve" smooth="yes"/>
			<point x="384" y="1388"/>
			<point x="200" y="1230"/>
			<point x="200" y="984" type="curve" smooth="yes"/>
			<point x="200" y="850"/>
			<point x="262" y="760"/>
		</contour>
	</outline>
</glyph>
<glyph name="quoteright" format="2">
	<unicode hex="2019"/>
	<advance width="702"/>
	<outline>
		<contour>
			<point x="290" y="760" type="curve" smooth="yes"/>
			<point x="320" y="760"/>
			<point x="504" y="918"/>
			<point x="504" y="1164" type="curve" smooth="yes"/>
			<point x="504" y="1298"/>
			<point x="442" y="1388"/>
			<point x="352" y="1388" type="curve" smooth="yes"/>
			<point x="274" y="1388"/>
			<point x="232" y="1330"/>
			<point x="232" y="1268" type="curve" smooth="yes"/>
			<point x="232" y="1206"/>
			<point x="274" y="1148"/>
			<point x="352" y="1148" type="curve" smooth="yes"/>
			<point x="384" y="1148"/>
			<point x="418" y="1158"/>
			<point x="440" y="1182" type="curve"/>
			<point x="440" y="1062"/>
			<point x="406" y="930"/>
			<point x="272" y="818" type="curve"/>
			<point x="264" y="814"/>
			<point x="256" y="806"/>
			<point x="256" y="794" type="curve" smooth="yes"/>
			<point x="256" y="778"/>
			<point x="274" y="760"/>
		</contour>
	</outline>
</glyph>
<glyph name="quotedblleft" format="2">
	<unicode hex="201C"/>
	<advance width="1222"/>
	<outline>
		<contour>
			<point x="540" y="760" type="curve" smooth="yes"/>
			<point x="618" y="760"/>
			<point x="660" y="818"/>
			<point x="660" y="880" type="curve" smooth="yes"/>
			<point x="660" y="942"/>
			<point x="618" y="1000"/>
			<point x="540" y="1000" type="curve" smooth="yes"/>
			<point x="508" y="1000"/>
			<point x="474" y="990"/>
			<point x="452" y="966" type="curve"/>
			<point x="452" y="1086"/>
			<point x="486" y="1218"/>
			<point x="620" y="1330" type="curve"/>
			<point x="628" y="1334"/>
			<point x="636" y="1342"/>
			<point x="636" y="1354" type="curve" smooth="yes"/>
			<point x="636" y="1370"/>
			<point x="618" y="1388"/>
			<point x="602" y="1388" type="curve" smooth="yes"/>
			<point x="572" y="1388"/>
			<point x="388" y="1230"/>
			<point x="388" y="984" type="curve" smooth="yes"/>
			<point x="388" y="850"/>
			<point x="450" y="760"/>
		</contour>
		<contour>
			<point x="994" y="760" type="curve" smooth="yes"/>
			<point x="1072" y="760"/>
			<point x="1114" y="818"/>
			<point x="1114" y="880" type="curve" smooth="yes"/>
			<point x="1114" y="942"/>
			<point x="1072" y="1000"/>
			<point x="994" y="1000" type="curve" smooth="yes"/>
			<point x="962" y="1000"/>
			<point x="928" y="990"/>
			<point x="906" y="966" type="curve"/>
			<point x="906" y="1086"/>
			<point x="940" y="1218"/>
			<point x="1074" y="1330" type="curve"/>
			<point x="1082" y="1334"/>
			<point x="1090" y="1342"/>
			<point x="1090" y="1354" type="curve" smooth="yes"/>
			<point x="1090" y="1370"/>
			<point x="1072" y="1388"/>
			<point x="1056" y="1388" type="curve" smooth="yes"/>
			<point x="1026" y="1388"/>
			<point x="842" y="1230"/>
			<point x="842" y="984" type="curve" smooth="yes"/>
			<point x="842" y="850"/>
			<point x="904" y="760"/>
		</contour>
	</outline>
</glyph>
<glyph name="quotedblright" format="2">
	<unicode hex="201D"/>
	<advance width="611"/>
	<outline>
		<contour>
			<point x="82" y="380" type="curve" smooth="yes"/>
			<point x="97" y="380"/>
			<point x="189" y="459"/>
			<point x="189" y="582" type="curve" smooth="yes"/>
			<point x="189" y="649"/>
			<point x="158" y="694"/>
			<point x="113" y="694" type="curve" smooth="yes"/>
			<point x="74" y="694"/>
			<point x="53" y="665"/>
			<point x="53" y="634" type="curve" smooth="yes"/>
			<point x="53" y="603"/>
			<point x="74" y="574"/>
			<point x="113" y="574" type="curve" smooth="yes"/>
			<point x="129" y="574"/>
			<point x="146" y="579"/>
			<point x="157" y="591" type="curve"/>
			<point x="157" y="531"/>
			<point x="140" y="465"/>
			<point x="73" y="409" type="curve"/>
			<point x="69" y="407"/>
			<point x="65" y="403"/>
			<point x="65" y="397" type="curve" smooth="yes"/>
			<point x="65" y="389"/>
			<point x="74" y="380"/>
		</contour>
		<contour>
			<point x="309" y="380" type="curve" smooth="yes"/>
			<point x="324" y="380"/>
			<point x="416" y="459"/>
			<point x="416" y="582" type="curve" smooth="yes"/>
			<point x="416" y="649"/>
			<point x="385" y="694"/>
			<point x="340" y="694" type="curve" smooth="yes"/>
			<point x="301" y="694"/>
			<point x="280" y="665"/>
			<point x="280" y="634" type="curve" smooth="yes"/>
			<point x="280" y="603"/>
			<point x="301" y="574"/>
			<point x="340" y="574" type="curve" smooth="yes"/>
			<point x="356" y="574"/>
			<point x="373" y="579"/>
			<point x="384" y="591" type="curve"/>
			<point x="384" y="531"/>
			<point x="367" y="465"/>
			<point x="300" y="409" type="curve"/>
			<point x="296" y="407"/>
			<point x="292" y="403"/>
			<point x="292" y="397" type="curve" smooth="yes"/>
			<point x="292" y="389"/>
			<point x="301" y="380"/>
		</contour>
	</outline>
</glyph>
<glyph name="a.alt" format="2">
	<advance width="1222"/>
	<outline>
		<contour>
			<point x="128" y="210" type="curve" smooth="yes"/>
			<point x="128" y="32"/>
			<point x="340" y="-20"/>
			<point x="496" y="-20" type="curve" smooth="yes"/>
			<point x="666" y="-20"/>
			<point x="774" y="66"/>
			<point x="810" y="154" type="curve"/>
			<point x="810" y="56"/>
			<point x="858" y="0"/>
			<point x="978" y="0" type="curve" smooth="yes"/>
			<point x="1012" y="0"/>
			<point x="1046" y="0"/>
			<point x="1080" y="0" type="curve" smooth="yes"/>
			<point x="1120" y="0"/>
			<point x="1134" y="4"/>
			<point x="1134" y="32" type="curve" smooth="yes"/>
			<point x="1134" y="62"/>
			<point x="1124" y="66"/>
			<point x="1040" y="66" type="curve" smooth="yes"/>
			<point x="950" y="66"/>
			<point x="950" y="92"/>
			<point x="950" y="144" type="curve" smooth="yes"/>
			<point x="950" y="596" type="line" smooth="yes"/>
			<point x="950" y="694"/>
			<point x="897" y="771"/>
			<point x="815" y="822" type="curve" smooth="yes"/>
			<point x="740" y="867"/>
			<point x="642" y="892"/>
			<point x="536" y="892" type="curve" smooth="yes"/>
			<point x="440" y="892"/>
			<point x="204" y="882"/>
			<point x="204" y="714" type="curve" smooth="yes"/>
			<point x="204" y="660"/>
			<point x="240" y="616"/>
			<point x="302" y="616" type="curve" smooth="yes"/>
			<point x="360" y="616"/>
			<point x="398" y="660"/>
			<point x="398" y="712" type="curve" smooth="yes"/>
			<point x="398" y="748"/>
			<point x="382" y="782"/>
			<point x="346" y="798" type="curve"/>
			<point x="412" y="828"/>
			<point x="512" y="828"/>
			<point x="532" y="828" type="curve" smooth="yes"/>
			<point x="674" y="828"/>
			<point x="784" y="744"/>
			<point x="784" y="592" type="curve" smooth="yes"/>
			<point x="784" y="540" type="line"/>
			<point x="692" y="536"/>
			<point x="532" y="532"/>
			<point x="386" y="480" type="curve" smooth="yes"/>
			<point x="254" y="434"/>
			<point x="128" y="344"/>
		</contour>
		<contour>
			<point x="784" y="284" type="line" smooth="yes"/>
			<point x="784" y="193"/>
			<point x="745" y="136"/>
			<point x="695" y="100" type="curve" smooth="yes"/>
			<point x="631" y="54"/>
			<point x="550" y="44"/>
			<point x="514" y="44" type="curve" smooth="yes"/>
			<point x="406" y="44"/>
			<point x="304" y="110"/>
			<point x="304" y="210" type="curve" smooth="yes"/>
			<point x="304" y="322"/>
			<point x="412" y="468"/>
			<point x="784" y="480" type="curve"/>
		</contour>
	</outline>
</glyph>
<glyph name="dotlessj" format="2">
	<advance width="768"/>
	<outline>
		<contour>
			<point x="366" y="670" type="curve" smooth="yes"/>
			<point x="366" y="-90" type="line" smooth="yes"/>
			<point x="366" y="-184"/>
			<point x="340" y="-344"/>
			<point x="212" y="-344" type="curve" smooth="yes"/>
			<point x="182" y="-344"/>
			<point x="138" y="-338"/>
			<point x="110" y="-328" type="curve"/>
			<point x="128" y="-318"/>
			<point x="154" y="-302"/>
			<point x="154" y="-244" type="curve" smooth="yes"/>
			<point x="154" y="-188"/>
			<point x="112" y="-148"/>
			<point x="58" y="-148" type="curve" smooth="yes"/>
			<point x="0" y="-148"/>
			<point x="-40" y="-188"/>
			<point x="-40" y="-246" type="curve" smooth="yes"/>
			<point x="-40" y="-360"/>
			<point x="88" y="-408"/>
			<point x="214" y="-408" type="curve" smooth="yes"/>
			<point x="382" y="-408"/>
			<point x="524" y="-280"/>
			<point x="524" y="-88" type="curve" smooth="yes"/>
			<point x="524" y="882" type="line"/>
			<point x="192" y="860" type="line"/>
			<point x="192" y="782" type="line"/>
			<point x="346" y="782"/>
			<point x="366" y="768"/>
		</contour>
	</outline>
</glyph>
